{"glyphs":{"0":{"ha":889,"x_min":42,"x_max":847,"o":"m 426 -7 q 227 59 314 -7 q 91 241 140 125 q 42 507 42 357 q 73 728 42 626 q 161 904 104 829 q 294 1021 218 979 q 461 1063 371 1063 q 662 997 575 1063 q 798 817 749 932 q 847 550 847 701 q 815 329 847 431 q 726 152 783 228 q 593 35 669 76 q 426 -7 517 -7 m 486 110 q 560 152 528 110 q 613 268 593 194 q 632 435 632 342 q 612 623 632 532 q 558 787 592 714 q 483 903 525 860 q 396 946 440 946 q 295 860 333 946 q 257 636 257 775 q 276 442 257 536 q 328 274 296 349 q 402 154 361 199 q 486 110 443 110 z "},"1":{"ha":556,"x_min":14,"x_max":458,"o":"m 458 0 l 185 0 q 188 110 186 39 q 190 272 189 181 q 191 463 190 363 q 192 661 192 563 q 193 844 193 760 l 28 850 l 14 932 q 256 1007 150 972 q 449 1076 361 1042 q 451 958 450 1033 q 453 788 453 883 q 456 587 454 693 q 458 374 457 481 q 458 172 458 268 q 458 0 458 75 z "},"2":{"ha":847,"x_min":14,"x_max":806,"o":"m 799 -14 l 57 13 l 39 125 q 236 299 146 207 q 394 482 326 390 q 498 656 461 574 q 535 803 535 739 q 499 910 535 868 q 410 951 464 951 q 282 895 349 951 q 151 732 215 839 l 14 883 q 185 1015 79 967 q 408 1063 290 1063 q 606 1022 519 1063 q 742 908 692 981 q 792 744 792 836 q 680 467 792 615 q 328 128 568 318 l 806 160 l 799 -14 z "},"3":{"ha":903,"x_min":14,"x_max":861,"o":"m 440 -7 q 205 41 314 -7 q 14 179 96 89 q 58 238 32 204 q 113 306 83 272 q 165 367 142 340 q 358 173 274 235 q 515 111 443 111 q 618 151 578 111 q 658 254 658 192 q 559 407 658 349 q 282 475 460 465 l 340 681 q 597 804 597 681 q 574 878 597 844 q 515 934 551 913 q 435 956 478 956 q 318 908 375 956 q 192 749 261 860 l 49 896 q 173 984 101 947 q 326 1042 244 1021 q 490 1063 408 1063 q 663 1034 588 1063 q 783 956 739 1006 q 826 843 826 907 q 795 740 826 789 q 711 658 764 692 q 590 611 658 624 q 728 548 667 594 q 825 437 789 501 q 861 301 861 372 q 806 144 861 214 q 656 33 751 74 q 440 -7 561 -7 z "},"4":{"ha":889,"x_min":42,"x_max":875,"o":"m 517 -3 q 513 144 514 63 q 511 303 513 225 q 253 307 375 304 q 42 314 132 310 q 43 458 42 374 q 47 643 44 543 q 54 849 50 743 q 63 1056 58 954 q 194 1052 122 1056 q 318 1042 267 1049 q 301 885 310 971 q 285 712 293 800 q 272 544 278 624 q 264 407 267 465 q 388 408 325 407 q 511 411 450 408 q 511 436 511 424 q 513 649 511 540 q 516 862 514 758 q 521 1051 518 965 q 670 1050 610 1051 q 765 1046 731 1049 q 756 867 761 971 q 746 647 751 763 q 736 421 740 532 q 869 432 815 426 l 875 300 q 732 300 804 300 q 726 117 728 196 q 724 3 724 38 q 663 0 700 1 q 585 -2 625 -1 q 517 -3 546 -3 z "},"5":{"ha":889,"x_min":42,"x_max":847,"o":"m 419 1 q 229 33 326 1 q 42 121 132 64 q 183 301 126 244 q 354 162 283 203 q 494 121 425 121 q 603 154 564 121 q 643 247 643 188 q 578 383 643 326 q 391 471 513 440 q 100 501 269 501 q 98 668 100 576 q 92 857 96 760 q 81 1046 88 954 l 819 1076 l 803 929 l 343 950 q 342 842 343 900 q 339 732 340 785 q 335 646 338 679 q 715 553 583 632 q 847 338 847 474 q 814 207 847 268 q 722 100 781 146 q 585 28 663 54 q 419 1 508 1 z "},"6":{"ha":931,"x_min":42,"x_max":889,"o":"m 468 -7 q 247 56 343 -7 q 96 231 150 119 q 42 489 42 343 q 81 717 42 613 q 190 899 119 822 q 354 1019 260 976 q 560 1063 449 1063 q 726 1035 647 1063 q 861 958 806 1008 q 793 883 836 926 q 710 807 750 839 q 624 890 661 860 q 555 932 588 919 q 485 944 522 944 q 331 867 385 944 q 271 643 276 790 q 401 684 333 669 q 532 699 469 699 q 717 658 638 699 q 843 545 797 617 q 889 379 889 474 q 856 230 889 300 q 765 106 824 160 q 631 23 707 53 q 468 -7 556 -7 m 431 567 q 276 518 344 567 q 326 312 289 404 q 415 165 363 219 q 529 111 468 111 q 611 139 574 111 q 672 213 649 167 q 694 313 694 260 q 658 438 694 381 q 561 531 621 496 q 431 567 501 567 z "},"7":{"ha":889,"x_min":42,"x_max":819,"o":"m 57 613 q 55 744 57 665 q 49 915 53 824 q 42 1090 46 1006 q 154 1101 82 1097 q 297 1104 226 1104 q 294 1051 296 1081 q 603 1050 475 1051 q 819 1046 732 1049 q 806 826 815 954 q 782 553 796 699 q 752 264 768 408 q 719 -6 736 119 q 577 -3 647 -6 q 461 6 507 0 q 603 958 536 385 q 453 952 540 958 q 290 936 367 946 q 284 767 286 853 q 282 624 282 682 q 181 615 242 618 q 57 613 119 613 z "},"8":{"ha":931,"x_min":42,"x_max":889,"o":"m 450 -7 q 293 13 367 -7 q 163 69 219 33 q 74 152 107 106 q 42 251 42 199 q 69 337 42 294 q 158 428 96 379 q 329 540 221 476 q 183 650 238 603 q 106 737 129 697 q 83 815 83 776 q 138 939 83 883 q 281 1028 192 994 q 479 1063 371 1063 q 672 1031 585 1063 q 810 947 758 1000 q 861 829 861 894 q 813 718 861 772 q 643 590 764 664 q 833 437 776 506 q 889 296 889 368 q 854 179 889 233 q 759 83 819 125 q 619 17 699 40 q 450 -7 540 -7 m 301 857 q 322 806 301 832 q 391 746 342 781 q 528 660 440 711 q 616 735 589 703 q 643 799 643 768 q 613 867 643 835 q 533 918 582 899 q 428 938 483 938 q 336 915 371 938 q 301 857 301 893 m 504 118 q 612 147 572 118 q 651 226 651 176 q 603 329 651 275 q 436 467 556 383 q 314 369 349 411 q 279 285 279 328 q 310 201 279 239 q 392 141 340 164 q 504 118 443 118 z "},"9":{"ha":931,"x_min":42,"x_max":889,"o":"m 401 -7 q 294 1 351 -7 q 181 24 236 10 q 83 56 126 38 q 150 203 108 132 q 421 111 328 111 q 578 191 517 111 q 654 411 639 271 q 525 371 593 385 q 393 357 457 357 q 208 396 288 357 q 85 505 129 435 q 42 668 42 575 q 74 820 42 749 q 162 946 106 892 q 292 1031 218 1000 q 451 1063 367 1063 q 626 1023 546 1063 q 765 912 706 983 q 856 744 824 840 q 889 533 889 647 q 826 253 889 375 q 654 63 764 132 q 401 -7 544 -7 m 236 751 q 259 655 236 701 q 321 571 282 608 q 408 511 360 533 q 507 489 456 489 q 658 540 590 489 q 622 751 654 660 q 538 893 590 842 q 418 944 485 944 q 328 918 369 944 q 261 848 286 892 q 236 751 236 804 z "},"A":{"ha":1042,"x_min":21,"x_max":1021,"o":"m 401 217 q 327 217 365 217 q 249 221 289 218 q 188 -6 218 113 l 21 6 q 194 535 99 268 q 399 1056 290 803 q 513 1065 450 1061 q 643 1069 576 1069 q 824 594 728 864 q 1021 14 919 325 q 869 -7 940 0 q 724 -14 797 -14 q 658 232 694 103 q 401 217 535 217 m 456 907 q 383 688 426 828 q 286 358 339 547 q 401 349 342 351 q 528 346 460 346 q 578 347 553 346 q 626 347 604 347 q 565 563 596 458 q 506 756 533 668 q 456 907 478 844 z "},"Á":{"ha":1042,"x_min":21,"x_max":1021,"o":"m 401 217 q 327 217 365 217 q 249 221 289 218 q 188 -6 218 113 l 21 6 q 194 535 99 268 q 399 1056 290 803 q 513 1065 450 1061 q 643 1069 576 1069 q 824 594 728 864 q 1021 14 919 325 q 869 -7 940 0 q 724 -14 797 -14 q 658 232 694 103 q 401 217 535 217 m 456 907 q 383 688 426 828 q 286 358 339 547 q 401 349 342 351 q 528 346 460 346 q 578 347 553 346 q 626 347 604 347 q 565 563 596 458 q 506 756 533 668 q 456 907 478 844 m 342 1107 l 319 1163 l 650 1365 l 736 1232 l 342 1107 z "},"Â":{"ha":1042,"x_min":21,"x_max":1021,"o":"m 401 217 q 327 217 365 217 q 249 221 289 218 q 188 -6 218 113 l 21 6 q 194 535 99 268 q 399 1056 290 803 q 513 1065 450 1061 q 643 1069 576 1069 q 824 594 728 864 q 1021 14 919 325 q 869 -7 940 0 q 724 -14 797 -14 q 658 232 694 103 q 401 217 535 217 m 456 907 q 383 688 426 828 q 286 358 339 547 q 401 349 342 351 q 528 346 460 346 q 578 347 553 346 q 626 347 604 347 q 565 563 596 458 q 506 756 533 668 q 456 907 478 844 m 310 1096 l 263 1138 l 528 1385 l 793 1138 l 746 1096 l 528 1225 l 310 1096 z "},"Ä":{"ha":1042,"x_min":21,"x_max":1021,"o":"m 401 217 q 327 217 365 217 q 249 221 289 218 q 188 -6 218 113 l 21 6 q 194 535 99 268 q 399 1056 290 803 q 513 1065 450 1061 q 643 1069 576 1069 q 824 594 728 864 q 1021 14 919 325 q 869 -7 940 0 q 724 -14 797 -14 q 658 232 694 103 q 401 217 535 217 m 456 907 q 383 688 426 828 q 286 358 339 547 q 401 349 342 351 q 528 346 460 346 q 578 347 553 346 q 626 347 604 347 q 565 563 596 458 q 506 756 533 668 q 456 907 478 844 m 590 1129 l 590 1329 l 757 1329 l 757 1129 l 590 1129 m 299 1129 l 299 1329 l 465 1329 l 465 1129 l 299 1129 z "},"À":{"ha":1042,"x_min":21,"x_max":1021,"o":"m 401 217 q 327 217 365 217 q 249 221 289 218 q 188 -6 218 113 l 21 6 q 194 535 99 268 q 399 1056 290 803 q 513 1065 450 1061 q 643 1069 576 1069 q 824 594 728 864 q 1021 14 919 325 q 869 -7 940 0 q 724 -14 797 -14 q 658 232 694 103 q 401 217 535 217 m 456 907 q 383 688 426 828 q 286 358 339 547 q 401 349 342 351 q 528 346 460 346 q 578 347 553 346 q 626 347 604 347 q 565 563 596 458 q 506 756 533 668 q 456 907 478 844 m 714 1107 l 319 1232 l 406 1365 l 736 1163 l 714 1107 z "},"Å":{"ha":1042,"x_min":21,"x_max":1021,"o":"m 401 217 q 327 217 365 217 q 249 221 289 218 q 188 -6 218 113 l 21 6 q 194 535 99 268 q 399 1056 290 803 q 513 1065 450 1061 q 643 1069 576 1069 q 824 594 728 864 q 1021 14 919 325 q 869 -7 940 0 q 724 -14 797 -14 q 658 232 694 103 q 401 217 535 217 m 456 907 q 383 688 426 828 q 286 358 339 547 q 401 349 342 351 q 528 346 460 346 q 578 347 553 346 q 626 347 604 347 q 565 563 596 458 q 506 756 533 668 q 456 907 478 844 m 531 1039 q 410 1083 456 1039 q 364 1197 364 1126 q 408 1308 364 1267 q 525 1350 453 1350 q 646 1306 600 1350 q 692 1192 692 1263 q 648 1081 692 1124 q 531 1039 604 1039 m 536 1092 q 572 1178 572 1092 q 558 1264 572 1231 q 519 1297 543 1297 q 483 1211 483 1297 q 499 1126 483 1160 q 536 1092 514 1092 z "},"Ã":{"ha":1042,"x_min":21,"x_max":1021,"o":"m 401 217 q 327 217 365 217 q 249 221 289 218 q 188 -6 218 113 l 21 6 q 194 535 99 268 q 399 1056 290 803 q 513 1065 450 1061 q 643 1069 576 1069 q 824 594 728 864 q 1021 14 919 325 q 869 -7 940 0 q 724 -14 797 -14 q 658 232 694 103 q 401 217 535 217 m 456 907 q 383 688 426 828 q 286 358 339 547 q 401 349 342 351 q 528 346 460 346 q 578 347 553 346 q 626 347 604 347 q 565 563 596 458 q 506 756 533 668 q 456 907 478 844 m 618 1121 q 503 1179 564 1121 q 404 1233 446 1233 q 369 1222 386 1233 q 321 1175 353 1210 l 286 1236 q 436 1346 357 1346 q 553 1288 494 1346 q 650 1233 607 1233 q 685 1245 668 1233 q 735 1292 703 1257 l 769 1231 q 618 1121 697 1121 z "},"Æ":{"ha":1368,"x_min":21,"x_max":1326,"o":"m 201 -11 l 21 11 q 158 269 83 135 q 313 541 232 404 q 475 807 393 678 q 633 1047 557 936 q 774 1047 694 1047 q 938 1048 853 1047 q 1100 1049 1022 1049 q 1236 1051 1178 1050 q 1321 1053 1294 1051 l 1326 914 l 940 932 q 940 758 940 844 q 942 589 940 671 l 1300 614 l 1289 456 l 942 468 q 944 258 943 350 q 947 118 946 167 l 1325 136 l 1318 -7 q 1058 3 1221 0 q 683 7 894 7 q 682 208 683 108 q 585 201 631 203 q 489 199 540 199 q 412 200 456 199 q 300 204 368 201 q 247 92 272 146 q 201 -11 222 38 m 382 374 q 681 326 515 340 q 669 644 676 497 q 653 897 663 792 q 524 655 596 794 q 382 374 451 515 z "},"B":{"ha":867,"x_min":69,"x_max":839,"o":"m 281 -7 q 186 -3 238 -7 q 82 7 135 0 q 79 108 81 39 q 76 269 78 176 q 74 465 75 361 q 72 675 72 569 q 70 876 71 781 q 69 1044 69 972 q 213 1058 144 1053 q 340 1063 282 1063 q 664 1000 549 1063 q 779 822 779 938 q 579 593 779 675 q 768 486 697 561 q 839 317 839 411 q 767 150 839 224 q 570 35 696 76 q 281 -7 444 -7 m 288 961 q 290 590 288 760 q 427 631 368 603 q 520 700 486 660 q 554 785 554 740 q 517 873 554 833 q 420 937 481 913 q 288 961 360 961 m 313 92 q 451 115 388 92 q 554 178 515 139 q 593 268 593 218 q 551 374 593 322 q 440 464 508 426 q 293 511 371 501 q 313 92 299 264 z "},"C":{"ha":958,"x_min":28,"x_max":944,"o":"m 525 -7 q 266 57 378 -7 q 91 235 154 121 q 28 499 28 349 q 68 721 28 618 q 180 900 108 824 q 349 1019 251 976 q 558 1063 446 1063 q 780 1016 676 1063 q 944 890 883 969 q 756 725 843 772 q 499 935 649 935 q 335 850 397 935 q 274 622 274 765 q 299 440 274 529 q 369 278 325 350 q 467 163 413 206 q 579 121 522 121 q 665 142 621 121 q 749 202 710 164 q 815 288 789 240 l 944 186 q 525 -7 775 -7 z "},"Ç":{"ha":958,"x_min":28,"x_max":944,"o":"m 525 -7 q 266 57 378 -7 q 91 235 154 121 q 28 499 28 349 q 68 721 28 618 q 180 900 108 824 q 349 1019 251 976 q 558 1063 446 1063 q 780 1016 676 1063 q 944 890 883 969 q 756 725 843 772 q 499 935 649 935 q 335 850 397 935 q 274 622 274 765 q 299 440 274 529 q 369 278 325 350 q 467 163 413 206 q 579 121 522 121 q 665 142 621 121 q 749 202 710 164 q 815 288 789 240 l 944 186 q 525 -7 775 -7 m 444 -322 l 425 -264 q 498 -221 472 -243 q 524 -181 524 -199 q 481 -128 524 -154 q 375 -90 438 -103 q 433 -17 394 -61 q 513 65 472 26 l 568 38 l 531 -26 q 622 -89 589 -53 q 656 -164 656 -125 q 601 -253 656 -212 q 444 -322 546 -294 z "},"D":{"ha":958,"x_min":69,"x_max":931,"o":"m 239 -7 q 155 -5 199 -7 q 69 0 111 -3 q 70 304 69 151 q 72 597 71 457 q 74 853 72 738 q 79 1049 76 969 q 185 1059 133 1056 q 285 1063 236 1063 q 767 931 604 1063 q 931 544 931 800 q 752 134 931 275 q 239 -7 574 -7 m 315 108 q 528 147 447 108 q 647 268 610 185 q 685 489 685 351 q 597 819 685 707 q 324 950 508 932 q 321 837 322 913 q 319 665 319 761 q 317 465 318 568 q 316 269 317 363 q 315 108 315 175 z "},"Ð":{"ha":1042,"x_min":14,"x_max":1014,"o":"m 322 -7 q 238 -5 282 -7 q 153 0 194 -3 q 153 235 153 117 q 154 467 153 354 l 14 463 l 19 610 l 156 606 q 158 856 157 742 q 163 1049 160 971 q 268 1059 217 1056 q 368 1063 319 1063 q 851 931 688 1063 q 1014 544 1014 800 q 835 134 1014 275 q 322 -7 657 -7 m 399 108 q 612 147 531 108 q 731 268 693 185 q 768 489 768 351 q 680 819 768 707 q 407 950 592 932 q 404 809 406 906 q 401 597 403 713 l 564 592 l 568 481 l 400 475 q 399 274 400 371 q 399 108 399 176 z "},"E":{"ha":885,"x_min":69,"x_max":843,"o":"m 836 -7 q 681 1 788 -3 q 427 6 575 4 q 106 7 279 7 q 99 126 103 46 q 92 308 96 206 q 83 522 88 411 q 76 737 79 633 q 72 921 74 840 q 69 1042 69 1001 q 210 1042 131 1042 q 378 1044 290 1043 q 551 1048 465 1046 q 712 1052 638 1050 q 838 1056 786 1054 l 843 907 l 347 924 q 347 758 347 842 q 349 593 347 674 l 815 608 l 810 456 l 350 475 q 353 288 351 376 q 357 126 354 199 l 842 143 l 836 -7 z "},"É":{"ha":885,"x_min":69,"x_max":843,"o":"m 836 -7 q 681 1 788 -3 q 427 6 575 4 q 106 7 279 7 q 99 126 103 46 q 92 308 96 206 q 83 522 88 411 q 76 737 79 633 q 72 921 74 840 q 69 1042 69 1001 q 210 1042 131 1042 q 378 1044 290 1043 q 551 1048 465 1046 q 712 1052 638 1050 q 838 1056 786 1054 l 843 907 l 347 924 q 347 758 347 842 q 349 593 347 674 l 815 608 l 810 456 l 350 475 q 353 288 351 376 q 357 126 354 199 l 842 143 l 836 -7 m 269 1107 l 247 1163 l 578 1365 l 664 1232 l 269 1107 z "},"Ê":{"ha":885,"x_min":69,"x_max":843,"o":"m 836 -7 q 681 1 788 -3 q 427 6 575 4 q 106 7 279 7 q 99 126 103 46 q 92 308 96 206 q 83 522 88 411 q 76 737 79 633 q 72 921 74 840 q 69 1042 69 1001 q 210 1042 131 1042 q 378 1044 290 1043 q 551 1048 465 1046 q 712 1052 638 1050 q 838 1056 786 1054 l 843 907 l 347 924 q 347 758 347 842 q 349 593 347 674 l 815 608 l 810 456 l 350 475 q 353 288 351 376 q 357 126 354 199 l 842 143 l 836 -7 m 238 1096 l 190 1138 l 456 1385 l 721 1138 l 674 1096 l 456 1225 l 238 1096 z "},"Ë":{"ha":885,"x_min":69,"x_max":843,"o":"m 836 -7 q 681 1 788 -3 q 427 6 575 4 q 106 7 279 7 q 99 126 103 46 q 92 308 96 206 q 83 522 88 411 q 76 737 79 633 q 72 921 74 840 q 69 1042 69 1001 q 210 1042 131 1042 q 378 1044 290 1043 q 551 1048 465 1046 q 712 1052 638 1050 q 838 1056 786 1054 l 843 907 l 347 924 q 347 758 347 842 q 349 593 347 674 l 815 608 l 810 456 l 350 475 q 353 288 351 376 q 357 126 354 199 l 842 143 l 836 -7 m 518 1129 l 518 1329 l 685 1329 l 685 1129 l 518 1129 m 226 1129 l 226 1329 l 393 1329 l 393 1129 l 226 1129 z "},"È":{"ha":885,"x_min":69,"x_max":843,"o":"m 836 -7 q 681 1 788 -3 q 427 6 575 4 q 106 7 279 7 q 99 126 103 46 q 92 308 96 206 q 83 522 88 411 q 76 737 79 633 q 72 921 74 840 q 69 1042 69 1001 q 210 1042 131 1042 q 378 1044 290 1043 q 551 1048 465 1046 q 712 1052 638 1050 q 838 1056 786 1054 l 843 907 l 347 924 q 347 758 347 842 q 349 593 347 674 l 815 608 l 810 456 l 350 475 q 353 288 351 376 q 357 126 354 199 l 842 143 l 836 -7 m 642 1107 l 247 1232 l 333 1365 l 664 1163 l 642 1107 z "},"F":{"ha":847,"x_min":69,"x_max":806,"o":"m 347 -7 l 69 3 q 70 147 69 58 q 72 342 71 236 q 74 557 72 447 q 76 765 75 667 q 79 936 78 863 q 82 1042 81 1010 q 282 1043 176 1042 q 488 1047 388 1044 q 672 1051 589 1049 q 806 1056 756 1053 l 800 919 l 331 939 q 339 644 336 790 l 785 658 l 775 508 l 342 533 q 347 -7 347 253 z "},"G":{"ha":1039,"x_min":28,"x_max":1011,"o":"m 504 -7 q 258 58 365 -7 q 89 239 150 124 q 28 504 28 354 q 69 728 28 626 q 185 906 110 831 q 362 1022 260 981 q 586 1063 464 1063 q 813 1021 710 1063 q 972 908 917 979 q 788 742 881 804 q 518 942 690 942 q 338 852 403 942 q 272 601 272 763 q 297 414 272 501 q 363 259 321 326 q 459 153 404 192 q 576 115 514 115 q 659 135 624 115 q 700 186 694 156 q 695 262 699 217 q 687 357 692 307 q 678 454 682 407 q 504 461 560 457 l 500 567 q 778 569 646 567 q 1011 578 911 572 l 1007 450 q 915 450 960 450 q 922 310 919 390 q 924 153 924 231 q 803 68 872 104 q 657 13 733 32 q 504 -7 581 -7 z "},"H":{"ha":1028,"x_min":69,"x_max":958,"o":"m 69 -3 q 70 292 69 143 q 72 579 71 440 q 74 838 72 718 q 79 1050 76 958 q 216 1049 160 1050 q 317 1044 272 1047 q 319 589 317 804 q 701 603 508 590 q 701 817 701 706 q 701 1044 701 928 q 946 1053 822 1053 q 953 801 950 938 q 956 521 956 664 q 958 243 957 378 q 958 -3 958 108 q 822 -1 886 -3 q 693 3 757 0 q 697 195 696 78 q 700 458 699 313 q 480 460 571 458 q 321 467 389 463 q 333 3 325 210 q 208 -1 272 0 q 69 -3 144 -3 z "},"I":{"ha":500,"x_min":97,"x_max":403,"o":"m 97 -1 q 114 685 114 336 q 113 813 114 743 q 112 946 113 883 q 110 1046 111 1008 q 166 1050 126 1049 q 253 1051 206 1051 q 327 1050 290 1051 q 390 1046 364 1049 q 386 874 388 960 q 384 710 385 788 q 383 576 383 633 q 388 249 383 388 q 403 3 393 110 q 251 -1 328 0 q 97 -1 174 -1 z "},"Í":{"ha":500,"x_min":42,"x_max":458,"o":"m 97 -1 q 114 685 114 336 q 113 813 114 743 q 112 946 113 883 q 110 1046 111 1008 q 166 1050 126 1049 q 253 1051 206 1051 q 327 1050 290 1051 q 390 1046 364 1049 q 386 874 388 960 q 384 710 385 788 q 383 576 383 633 q 388 249 383 388 q 403 3 393 110 q 251 -1 328 0 q 97 -1 174 -1 m 64 1107 l 42 1163 l 372 1365 l 458 1232 l 64 1107 z "},"Î":{"ha":500,"x_min":-15,"x_max":515,"o":"m 97 -1 q 114 685 114 336 q 113 813 114 743 q 112 946 113 883 q 110 1046 111 1008 q 166 1050 126 1049 q 253 1051 206 1051 q 327 1050 290 1051 q 390 1046 364 1049 q 386 874 388 960 q 384 710 385 788 q 383 576 383 633 q 388 249 383 388 q 403 3 393 110 q 251 -1 328 0 q 97 -1 174 -1 m 32 1096 l -15 1138 l 250 1385 l 515 1138 l 468 1096 l 250 1225 l 32 1096 z "},"Ï":{"ha":500,"x_min":21,"x_max":479,"o":"m 97 -1 q 114 685 114 336 q 113 813 114 743 q 112 946 113 883 q 110 1046 111 1008 q 166 1050 126 1049 q 253 1051 206 1051 q 327 1050 290 1051 q 390 1046 364 1049 q 386 874 388 960 q 384 710 385 788 q 383 576 383 633 q 388 249 383 388 q 403 3 393 110 q 251 -1 328 0 q 97 -1 174 -1 m 313 1129 l 313 1329 l 479 1329 l 479 1129 l 313 1129 m 21 1129 l 21 1329 l 188 1329 l 188 1129 l 21 1129 z "},"Ì":{"ha":500,"x_min":42,"x_max":458,"o":"m 97 -1 q 114 685 114 336 q 113 813 114 743 q 112 946 113 883 q 110 1046 111 1008 q 166 1050 126 1049 q 253 1051 206 1051 q 327 1050 290 1051 q 390 1046 364 1049 q 386 874 388 960 q 384 710 385 788 q 383 576 383 633 q 388 249 383 388 q 403 3 393 110 q 251 -1 328 0 q 97 -1 174 -1 m 436 1107 l 42 1232 l 128 1365 l 458 1163 l 436 1107 z "},"J":{"ha":814,"x_min":14,"x_max":744,"o":"m 374 -7 q 14 75 178 -7 l 43 183 q 222 126 163 142 q 315 110 281 110 q 388 134 358 110 q 436 219 418 158 q 462 388 454 279 q 469 664 469 496 q 467 851 469 754 q 463 1044 465 947 q 742 1053 603 1053 q 743 992 743 1033 q 744 902 743 951 q 744 808 744 853 q 727 401 744 561 q 668 153 710 242 q 554 28 626 64 q 374 -7 482 -7 z "},"K":{"ha":986,"x_min":69,"x_max":965,"o":"m 69 -6 q 69 138 69 49 q 70 333 69 226 q 71 551 71 440 q 72 764 71 663 q 74 942 72 865 q 76 1054 75 1018 l 326 1046 q 320 795 322 935 q 317 511 318 656 q 528 771 425 633 q 736 1069 631 908 l 925 1028 q 644 690 803 863 q 756 484 699 596 q 866 253 813 372 q 965 18 919 135 q 819 -1 892 6 q 669 -7 747 -7 q 616 152 647 65 q 547 331 585 239 q 471 510 510 422 q 315 360 396 435 q 314 172 314 263 q 314 3 314 82 l 69 -6 z "},"L":{"ha":889,"x_min":69,"x_max":868,"o":"m 868 -7 q 763 -4 836 -6 q 584 -2 689 -3 q 353 -1 479 -1 q 93 0 228 0 q 75 544 81 286 q 69 1047 69 803 q 181 1049 101 1049 q 358 1050 260 1050 q 358 826 358 949 q 355 576 357 704 q 351 327 353 449 q 344 103 349 206 q 625 106 489 103 q 864 115 761 110 l 868 -7 z "},"Ł":{"ha":1003,"x_min":14,"x_max":982,"o":"m 72 326 l 14 438 l 189 529 q 185 792 186 664 q 183 1047 183 921 q 294 1049 215 1049 q 472 1050 374 1050 q 472 873 472 968 q 469 676 471 778 l 622 757 l 681 646 l 468 535 q 464 308 467 418 q 458 103 461 197 q 739 106 603 103 q 978 115 875 110 l 982 -7 q 876 -4 950 -6 q 698 -2 803 -3 q 467 -1 593 -1 q 207 0 342 0 q 193 390 199 200 l 72 326 z "},"M":{"ha":1250,"x_min":69,"x_max":1181,"o":"m 104 1054 q 248 1067 182 1063 q 371 1072 314 1072 q 444 854 403 968 q 533 625 486 740 q 628 403 579 510 q 766 722 700 558 q 896 1071 832 886 q 1044 1067 971 1071 q 1169 1056 1118 1063 q 1170 874 1169 979 q 1172 649 1171 769 q 1174 410 1172 529 q 1176 185 1175 290 q 1181 3 1178 79 q 1103 0 1149 1 q 1007 -2 1057 -1 q 914 -3 957 -3 q 922 278 919 138 q 927 553 925 419 q 929 800 929 686 q 809 488 871 636 q 678 194 747 339 l 464 182 q 317 512 385 354 q 196 806 249 669 l 226 -3 l 69 3 q 78 171 74 76 q 85 369 82 265 q 92 577 89 474 q 99 774 96 681 q 103 941 101 868 q 104 1054 104 1014 z "},"N":{"ha":1056,"x_min":69,"x_max":986,"o":"m 69 4 q 71 156 69 67 q 74 349 72 246 q 79 559 76 453 q 85 762 82 665 q 92 933 89 858 q 97 1046 94 1007 q 199 1050 133 1049 q 364 1051 265 1051 q 602 694 478 883 q 856 289 726 504 l 825 1053 q 903 1051 861 1053 q 986 1046 946 1049 q 985 797 986 929 q 982 533 983 664 q 978 291 981 403 q 973 103 975 179 q 968 3 971 26 q 890 0 939 1 q 790 -2 840 -1 q 708 -3 740 -3 q 465 375 599 176 q 194 769 331 574 l 231 -4 q 69 4 153 -4 z "},"Ñ":{"ha":1056,"x_min":69,"x_max":986,"o":"m 69 4 q 71 156 69 67 q 74 349 72 246 q 79 559 76 453 q 85 762 82 665 q 92 933 89 858 q 97 1046 94 1007 q 199 1050 133 1049 q 364 1051 265 1051 q 602 694 478 883 q 856 289 726 504 l 825 1053 q 903 1051 861 1053 q 986 1046 946 1049 q 985 797 986 929 q 982 533 983 664 q 978 291 981 403 q 973 103 975 179 q 968 3 971 26 q 890 0 939 1 q 790 -2 840 -1 q 708 -3 740 -3 q 465 375 599 176 q 194 769 331 574 l 231 -4 q 69 4 153 -4 m 607 1121 q 492 1179 553 1121 q 393 1233 435 1233 q 358 1222 375 1233 q 310 1175 342 1210 l 275 1236 q 425 1346 346 1346 q 542 1288 483 1346 q 639 1233 596 1233 q 674 1245 657 1233 q 724 1292 692 1257 l 758 1231 q 607 1121 686 1121 z "},"O":{"ha":1056,"x_min":28,"x_max":1028,"o":"m 528 -7 q 328 33 419 -7 q 170 144 238 72 q 65 315 103 217 q 28 528 28 413 q 65 741 28 643 q 170 911 103 839 q 328 1023 238 983 q 528 1063 419 1063 q 728 1023 636 1063 q 887 911 819 983 q 991 741 954 839 q 1028 528 1028 643 q 991 315 1028 413 q 887 144 954 217 q 728 33 819 72 q 528 -7 636 -7 m 557 110 q 675 156 625 110 q 753 285 725 201 q 781 479 781 368 q 743 717 781 611 q 642 884 706 822 q 499 946 578 946 q 381 900 432 946 q 303 771 331 854 q 275 576 275 688 q 313 340 275 446 q 414 172 350 233 q 557 110 478 110 z "},"Ó":{"ha":1056,"x_min":28,"x_max":1028,"o":"m 528 -7 q 328 33 419 -7 q 170 144 238 72 q 65 315 103 217 q 28 528 28 413 q 65 741 28 643 q 170 911 103 839 q 328 1023 238 983 q 528 1063 419 1063 q 728 1023 636 1063 q 887 911 819 983 q 991 741 954 839 q 1028 528 1028 643 q 991 315 1028 413 q 887 144 954 217 q 728 33 819 72 q 528 -7 636 -7 m 557 110 q 675 156 625 110 q 753 285 725 201 q 781 479 781 368 q 743 717 781 611 q 642 884 706 822 q 499 946 578 946 q 381 900 432 946 q 303 771 331 854 q 275 576 275 688 q 313 340 275 446 q 414 172 350 233 q 557 110 478 110 m 342 1107 l 319 1163 l 650 1365 l 736 1232 l 342 1107 z "},"Ô":{"ha":1056,"x_min":28,"x_max":1028,"o":"m 528 -7 q 328 33 419 -7 q 170 144 238 72 q 65 315 103 217 q 28 528 28 413 q 65 741 28 643 q 170 911 103 839 q 328 1023 238 983 q 528 1063 419 1063 q 728 1023 636 1063 q 887 911 819 983 q 991 741 954 839 q 1028 528 1028 643 q 991 315 1028 413 q 887 144 954 217 q 728 33 819 72 q 528 -7 636 -7 m 557 110 q 675 156 625 110 q 753 285 725 201 q 781 479 781 368 q 743 717 781 611 q 642 884 706 822 q 499 946 578 946 q 381 900 432 946 q 303 771 331 854 q 275 576 275 688 q 313 340 275 446 q 414 172 350 233 q 557 110 478 110 m 310 1096 l 263 1138 l 528 1385 l 793 1138 l 746 1096 l 528 1225 l 310 1096 z "},"Ö":{"ha":1056,"x_min":28,"x_max":1028,"o":"m 528 -7 q 328 33 419 -7 q 170 144 238 72 q 65 315 103 217 q 28 528 28 413 q 65 741 28 643 q 170 911 103 839 q 328 1023 238 983 q 528 1063 419 1063 q 728 1023 636 1063 q 887 911 819 983 q 991 741 954 839 q 1028 528 1028 643 q 991 315 1028 413 q 887 144 954 217 q 728 33 819 72 q 528 -7 636 -7 m 557 110 q 675 156 625 110 q 753 285 725 201 q 781 479 781 368 q 743 717 781 611 q 642 884 706 822 q 499 946 578 946 q 381 900 432 946 q 303 771 331 854 q 275 576 275 688 q 313 340 275 446 q 414 172 350 233 q 557 110 478 110 m 590 1129 l 590 1329 l 757 1329 l 757 1129 l 590 1129 m 299 1129 l 299 1329 l 465 1329 l 465 1129 l 299 1129 z "},"Ò":{"ha":1056,"x_min":28,"x_max":1028,"o":"m 528 -7 q 328 33 419 -7 q 170 144 238 72 q 65 315 103 217 q 28 528 28 413 q 65 741 28 643 q 170 911 103 839 q 328 1023 238 983 q 528 1063 419 1063 q 728 1023 636 1063 q 887 911 819 983 q 991 741 954 839 q 1028 528 1028 643 q 991 315 1028 413 q 887 144 954 217 q 728 33 819 72 q 528 -7 636 -7 m 557 110 q 675 156 625 110 q 753 285 725 201 q 781 479 781 368 q 743 717 781 611 q 642 884 706 822 q 499 946 578 946 q 381 900 432 946 q 303 771 331 854 q 275 576 275 688 q 313 340 275 446 q 414 172 350 233 q 557 110 478 110 m 714 1107 l 319 1232 l 406 1365 l 736 1163 l 714 1107 z "},"Ø":{"ha":1056,"x_min":28,"x_max":1028,"o":"m 188 -42 l 76 35 l 164 151 q 64 319 100 222 q 28 528 28 415 q 65 741 28 643 q 170 911 103 839 q 328 1023 238 983 q 528 1063 419 1063 q 667 1044 601 1063 q 789 990 732 1025 l 868 1097 l 979 1021 l 892 904 q 992 737 956 833 q 1028 528 1028 640 q 991 315 1028 413 q 887 144 954 217 q 728 33 819 72 q 528 -7 636 -7 q 389 12 454 -7 q 267 65 324 31 l 188 -42 m 275 576 q 284 456 275 514 q 310 349 293 399 l 678 842 q 596 919 642 892 q 499 946 550 946 q 381 900 432 946 q 303 771 331 854 q 275 576 275 688 m 557 110 q 675 156 625 110 q 753 285 725 201 q 781 479 781 368 q 772 599 781 542 q 746 707 763 657 l 378 214 q 460 137 414 164 q 557 110 506 110 z "},"Õ":{"ha":1056,"x_min":28,"x_max":1028,"o":"m 528 -7 q 328 33 419 -7 q 170 144 238 72 q 65 315 103 217 q 28 528 28 413 q 65 741 28 643 q 170 911 103 839 q 328 1023 238 983 q 528 1063 419 1063 q 728 1023 636 1063 q 887 911 819 983 q 991 741 954 839 q 1028 528 1028 643 q 991 315 1028 413 q 887 144 954 217 q 728 33 819 72 q 528 -7 636 -7 m 557 110 q 675 156 625 110 q 753 285 725 201 q 781 479 781 368 q 743 717 781 611 q 642 884 706 822 q 499 946 578 946 q 381 900 432 946 q 303 771 331 854 q 275 576 275 688 q 313 340 275 446 q 414 172 350 233 q 557 110 478 110 m 618 1121 q 503 1179 564 1121 q 404 1233 446 1233 q 369 1222 386 1233 q 321 1175 353 1210 l 286 1236 q 436 1346 357 1346 q 553 1288 494 1346 q 650 1233 607 1233 q 685 1245 668 1233 q 735 1292 703 1257 l 769 1231 q 618 1121 697 1121 z "},"Œ":{"ha":1375,"x_min":28,"x_max":1333,"o":"m 500 -7 q 310 33 397 -7 q 160 144 224 72 q 63 313 97 215 q 28 526 28 410 q 90 804 28 683 q 263 994 153 925 q 514 1063 372 1063 q 624 1050 572 1063 q 791 1053 696 1051 q 987 1058 886 1056 q 1177 1064 1088 1061 q 1328 1069 1267 1067 l 1333 914 l 947 932 q 947 758 947 844 q 949 589 947 671 l 1307 614 l 1296 456 l 949 468 q 951 258 950 350 q 954 118 953 167 l 1332 136 l 1325 -14 q 1099 -6 1224 -10 q 846 2 974 -1 q 608 6 718 6 q 500 -7 558 -7 m 529 114 q 676 208 624 114 q 728 474 728 303 q 695 717 728 611 q 605 882 663 822 q 471 942 547 942 q 325 847 378 942 q 272 582 272 753 q 305 340 272 446 q 396 174 338 233 q 529 114 454 114 z "},"P":{"ha":903,"x_min":69,"x_max":875,"o":"m 76 -3 q 76 358 76 189 q 74 664 75 526 q 72 899 74 801 q 69 1042 71 996 q 219 1058 151 1053 q 346 1064 286 1064 q 628 1024 510 1064 q 811 910 747 985 q 875 733 875 836 q 805 539 875 625 q 610 401 735 453 q 324 344 486 350 q 326 172 325 258 q 326 3 326 86 q 219 -1 279 0 q 76 -3 158 -3 m 304 954 q 315 746 310 878 q 322 457 319 614 q 618 704 618 497 q 533 887 618 819 q 304 954 449 954 z "},"Þ":{"ha":917,"x_min":69,"x_max":889,"o":"m 82 -3 q 77 191 79 72 q 73 454 75 310 q 70 753 71 599 q 69 1051 69 907 q 153 1051 106 1051 q 248 1049 201 1050 q 322 1046 294 1047 q 322 974 322 1011 q 322 896 322 936 q 750 815 611 890 q 889 588 889 740 q 818 389 889 475 q 619 253 747 303 q 319 200 490 204 q 317 87 318 138 q 315 3 317 36 q 226 0 272 1 q 142 -2 181 -1 q 82 -3 104 -3 m 632 519 q 550 703 632 635 q 322 782 468 772 q 322 544 322 665 q 319 314 321 422 q 558 367 483 318 q 632 519 632 415 z "},"Q":{"ha":1056,"x_min":28,"x_max":1028,"o":"m 528 -7 q 328 33 419 -7 q 170 144 238 72 q 65 315 103 217 q 28 528 28 413 q 65 741 28 643 q 170 911 103 839 q 328 1023 238 983 q 528 1063 419 1063 q 728 1023 636 1063 q 887 911 819 983 q 991 741 954 839 q 1028 528 1028 643 q 999 338 1028 426 q 918 182 969 250 q 1014 18 979 108 q 937 -18 982 0 q 845 -51 892 -36 q 760 -74 799 -65 q 725 32 742 -14 q 528 -7 633 -7 m 275 576 q 296 397 275 481 q 353 251 317 314 q 586 360 453 360 q 761 313 674 360 q 781 479 781 388 q 743 717 781 611 q 642 884 706 822 q 499 946 578 946 q 381 900 432 946 q 303 771 331 854 q 275 576 275 688 m 557 110 q 668 150 619 110 q 549 229 617 229 q 433 156 481 229 q 557 110 492 110 z "},"R":{"ha":924,"x_min":69,"x_max":903,"o":"m 621 -15 q 468 302 546 174 q 321 485 390 431 q 325 243 324 368 q 326 -3 326 118 q 195 -1 264 -3 q 76 3 126 1 q 76 249 76 121 q 76 501 76 376 q 74 733 75 625 q 72 922 72 842 q 69 1042 71 1003 q 210 1058 140 1053 q 342 1063 281 1063 q 614 1030 497 1063 q 796 937 731 997 q 861 790 861 876 q 827 671 861 728 q 735 572 793 614 q 603 514 676 531 q 658 440 625 488 q 728 333 692 392 q 800 214 765 274 q 863 102 835 154 q 903 18 890 50 q 842 8 881 14 q 762 -2 804 3 q 681 -10 719 -7 q 621 -15 643 -14 m 304 954 q 313 783 308 892 q 321 542 317 675 q 538 599 458 547 q 618 738 618 651 q 577 849 618 800 q 465 926 536 899 q 304 954 394 954 z "},"S":{"ha":903,"x_min":21,"x_max":882,"o":"m 456 -7 q 298 14 379 -7 q 144 72 217 35 q 21 156 71 108 q 92 248 53 201 q 178 340 131 294 q 297 233 232 282 q 428 153 363 183 q 550 122 494 122 q 640 149 600 122 q 679 228 679 176 q 642 315 679 276 q 544 385 604 353 q 415 450 483 418 q 297 508 356 478 q 191 575 239 539 q 115 656 143 611 q 86 758 86 701 q 116 869 86 815 q 200 967 146 924 q 328 1037 254 1011 q 492 1063 403 1063 q 697 1028 593 1063 q 876 928 800 993 q 809 835 851 881 q 726 757 767 789 q 558 892 642 838 q 401 947 475 947 q 320 920 347 947 q 293 863 293 893 q 324 801 293 829 q 404 747 354 774 q 514 693 454 721 q 641 631 576 664 q 760 555 706 597 q 849 458 815 513 q 882 335 882 404 q 848 203 882 265 q 755 94 814 142 q 619 20 696 47 q 456 -7 542 -7 z "},"Š":{"ha":903,"x_min":21,"x_max":882,"o":"m 456 -7 q 298 14 379 -7 q 144 72 217 35 q 21 156 71 108 q 92 248 53 201 q 178 340 131 294 q 297 233 232 282 q 428 153 363 183 q 550 122 494 122 q 640 149 600 122 q 679 228 679 176 q 642 315 679 276 q 544 385 604 353 q 415 450 483 418 q 297 508 356 478 q 191 575 239 539 q 115 656 143 611 q 86 758 86 701 q 116 869 86 815 q 200 967 146 924 q 328 1037 254 1011 q 492 1063 403 1063 q 697 1028 593 1063 q 876 928 800 993 q 809 835 851 881 q 726 757 767 789 q 558 892 642 838 q 401 947 475 947 q 320 920 347 947 q 293 863 293 893 q 324 801 293 829 q 404 747 354 774 q 514 693 454 721 q 641 631 576 664 q 760 555 706 597 q 849 458 815 513 q 882 335 882 404 q 848 203 882 265 q 755 94 814 142 q 619 20 696 47 q 456 -7 542 -7 m 465 1096 l 200 1343 l 247 1385 l 465 1256 l 683 1385 l 731 1343 l 465 1096 z "},"T":{"ha":1069,"x_min":21,"x_max":1049,"o":"m 675 -3 q 590 -2 640 -3 q 487 0 539 -1 q 396 3 435 1 q 397 156 396 65 q 398 352 397 247 q 399 562 399 457 q 401 759 400 667 q 404 917 403 851 q 201 915 300 915 q 21 914 103 914 l 26 1053 q 218 1052 115 1053 q 428 1051 321 1051 q 635 1049 535 1050 q 821 1048 736 1049 q 965 1047 906 1047 q 1044 1044 1024 1046 l 1049 928 q 874 923 972 925 q 667 919 775 921 q 669 769 668 857 q 672 580 671 682 q 673 374 672 478 q 674 172 674 269 q 675 -3 675 75 z "},"U":{"ha":1018,"x_min":42,"x_max":976,"o":"m 517 -7 q 294 40 385 -7 q 147 189 203 86 q 67 460 92 292 q 42 874 42 629 q 43 975 42 929 q 46 1051 44 1021 q 205 1050 136 1051 q 322 1046 274 1049 q 318 811 318 919 q 343 413 318 561 q 425 201 368 265 q 578 138 482 138 q 719 191 667 138 q 794 367 771 244 q 817 697 817 490 q 815 844 817 763 q 807 1047 813 925 l 972 1053 q 976 960 975 1013 q 976 853 976 908 q 953 447 976 611 q 876 182 929 282 q 734 38 822 82 q 517 -7 646 -7 z "},"Ú":{"ha":1018,"x_min":42,"x_max":976,"o":"m 517 -7 q 294 40 385 -7 q 147 189 203 86 q 67 460 92 292 q 42 874 42 629 q 43 975 42 929 q 46 1051 44 1021 q 205 1050 136 1051 q 322 1046 274 1049 q 318 811 318 919 q 343 413 318 561 q 425 201 368 265 q 578 138 482 138 q 719 191 667 138 q 794 367 771 244 q 817 697 817 490 q 815 844 817 763 q 807 1047 813 925 l 972 1053 q 976 960 975 1013 q 976 853 976 908 q 953 447 976 611 q 876 182 929 282 q 734 38 822 82 q 517 -7 646 -7 m 383 1107 l 361 1163 l 692 1365 l 778 1232 l 383 1107 z "},"Û":{"ha":1018,"x_min":42,"x_max":976,"o":"m 517 -7 q 294 40 385 -7 q 147 189 203 86 q 67 460 92 292 q 42 874 42 629 q 43 975 42 929 q 46 1051 44 1021 q 205 1050 136 1051 q 322 1046 274 1049 q 318 811 318 919 q 343 413 318 561 q 425 201 368 265 q 578 138 482 138 q 719 191 667 138 q 794 367 771 244 q 817 697 817 490 q 815 844 817 763 q 807 1047 813 925 l 972 1053 q 976 960 975 1013 q 976 853 976 908 q 953 447 976 611 q 876 182 929 282 q 734 38 822 82 q 517 -7 646 -7 m 351 1096 l 304 1138 l 569 1385 l 835 1138 l 788 1096 l 569 1225 l 351 1096 z "},"Ü":{"ha":1018,"x_min":42,"x_max":976,"o":"m 517 -7 q 294 40 385 -7 q 147 189 203 86 q 67 460 92 292 q 42 874 42 629 q 43 975 42 929 q 46 1051 44 1021 q 205 1050 136 1051 q 322 1046 274 1049 q 318 811 318 919 q 343 413 318 561 q 425 201 368 265 q 578 138 482 138 q 719 191 667 138 q 794 367 771 244 q 817 697 817 490 q 815 844 817 763 q 807 1047 813 925 l 972 1053 q 976 960 975 1013 q 976 853 976 908 q 953 447 976 611 q 876 182 929 282 q 734 38 822 82 q 517 -7 646 -7 m 632 1129 l 632 1329 l 799 1329 l 799 1129 l 632 1129 m 340 1129 l 340 1329 l 507 1329 l 507 1129 l 340 1129 z "},"Ù":{"ha":1018,"x_min":42,"x_max":976,"o":"m 517 -7 q 294 40 385 -7 q 147 189 203 86 q 67 460 92 292 q 42 874 42 629 q 43 975 42 929 q 46 1051 44 1021 q 205 1050 136 1051 q 322 1046 274 1049 q 318 811 318 919 q 343 413 318 561 q 425 201 368 265 q 578 138 482 138 q 719 191 667 138 q 794 367 771 244 q 817 697 817 490 q 815 844 817 763 q 807 1047 813 925 l 972 1053 q 976 960 975 1013 q 976 853 976 908 q 953 447 976 611 q 876 182 929 282 q 734 38 822 82 q 517 -7 646 -7 m 756 1107 l 361 1232 l 447 1365 l 778 1163 l 756 1107 z "},"V":{"ha":1042,"x_min":21,"x_max":1021,"o":"m 399 -14 q 215 473 311 201 q 21 1042 118 744 q 177 1063 106 1057 q 318 1069 249 1069 q 385 813 350 944 q 458 556 421 681 q 528 325 494 431 q 586 149 561 219 q 660 372 617 232 q 753 690 703 513 q 854 1064 803 868 l 1021 1053 q 848 519 944 788 q 643 0 751 250 l 399 -14 z "},"W":{"ha":1250,"x_min":21,"x_max":1229,"o":"m 472 -11 l 229 -3 q 112 501 165 233 q 21 1042 58 769 q 314 1069 175 1069 q 338 833 325 953 q 365 603 351 714 q 393 397 379 492 q 419 232 407 301 q 519 715 481 503 q 567 1042 557 926 q 682 1052 625 1049 q 786 1056 739 1056 q 818 881 797 985 q 875 619 839 776 q 967 232 911 463 q 1008 463 989 344 q 1042 694 1026 582 q 1067 903 1057 807 q 1079 1064 1076 999 l 1229 1053 q 1171 690 1204 874 q 1099 329 1138 506 q 1021 -3 1061 153 l 818 -11 q 733 317 774 151 q 656 631 692 482 q 572 322 618 482 q 472 -11 526 161 z "},"X":{"ha":1014,"x_min":21,"x_max":993,"o":"m 210 -7 l 49 7 q 383 501 193 231 q 21 1039 201 781 q 122 1049 67 1044 q 228 1056 176 1053 q 319 1058 281 1058 q 431 900 374 983 q 546 729 488 817 q 785 1056 660 888 l 938 1042 q 625 607 769 813 q 816 305 722 458 q 993 8 910 151 q 854 -3 931 1 q 708 -8 778 -8 q 590 181 651 83 q 465 376 529 278 q 210 -7 324 169 z "},"Y":{"ha":1069,"x_min":21,"x_max":1049,"o":"m 678 -3 q 579 -2 632 -3 q 478 0 526 -1 q 397 3 431 1 q 399 152 397 69 q 403 319 400 235 q 408 472 406 403 q 257 676 332 572 q 120 869 182 779 q 21 1019 58 960 q 137 1047 61 1033 q 301 1069 213 1060 q 426 850 349 976 q 600 579 503 724 q 753 818 679 696 q 893 1065 828 940 l 1049 1032 q 940 863 1003 956 q 805 670 876 769 q 663 478 733 571 q 670 328 667 411 q 676 160 674 246 q 678 -3 678 75 z "},"Ý":{"ha":1069,"x_min":21,"x_max":1049,"o":"m 678 -3 q 579 -2 632 -3 q 478 0 526 -1 q 397 3 431 1 q 399 152 397 69 q 403 319 400 235 q 408 472 406 403 q 257 676 332 572 q 120 869 182 779 q 21 1019 58 960 q 137 1047 61 1033 q 301 1069 213 1060 q 426 850 349 976 q 600 579 503 724 q 753 818 679 696 q 893 1065 828 940 l 1049 1032 q 940 863 1003 956 q 805 670 876 769 q 663 478 733 571 q 670 328 667 411 q 676 160 674 246 q 678 -3 678 75 m 369 1107 l 347 1163 l 678 1365 l 764 1232 l 369 1107 z "},"Ÿ":{"ha":1069,"x_min":21,"x_max":1049,"o":"m 678 -3 q 579 -2 632 -3 q 478 0 526 -1 q 397 3 431 1 q 399 152 397 69 q 403 319 400 235 q 408 472 406 403 q 257 676 332 572 q 120 869 182 779 q 21 1019 58 960 q 137 1047 61 1033 q 301 1069 213 1060 q 426 850 349 976 q 600 579 503 724 q 753 818 679 696 q 893 1065 828 940 l 1049 1032 q 940 863 1003 956 q 805 670 876 769 q 663 478 733 571 q 670 328 667 411 q 676 160 674 246 q 678 -3 678 75 m 618 1129 l 618 1329 l 785 1329 l 785 1129 l 618 1129 m 326 1129 l 326 1329 l 493 1329 l 493 1129 l 326 1129 z "},"Z":{"ha":917,"x_min":42,"x_max":875,"o":"m 875 -3 q 703 -3 799 -3 q 508 -2 607 -3 q 319 -1 408 -1 q 164 1 229 0 q 72 3 99 1 l 42 124 q 355 579 221 375 q 585 949 489 783 q 420 940 510 946 q 240 928 331 935 q 72 914 150 922 l 63 1053 q 288 1053 174 1053 q 506 1052 401 1053 q 692 1050 610 1051 q 824 1047 775 1049 l 854 949 q 761 789 811 872 q 650 606 711 706 q 511 385 589 507 q 335 108 433 263 q 604 124 465 114 q 869 146 743 135 l 875 -3 z "},"Ž":{"ha":917,"x_min":42,"x_max":875,"o":"m 875 -3 q 703 -3 799 -3 q 508 -2 607 -3 q 319 -1 408 -1 q 164 1 229 0 q 72 3 99 1 l 42 124 q 355 579 221 375 q 585 949 489 783 q 420 940 510 946 q 240 928 331 935 q 72 914 150 922 l 63 1053 q 288 1053 174 1053 q 506 1052 401 1053 q 692 1050 610 1051 q 824 1047 775 1049 l 854 949 q 761 789 811 872 q 650 606 711 706 q 511 385 589 507 q 335 108 433 263 q 604 124 465 114 q 869 146 743 135 l 875 -3 m 458 1096 l 193 1343 l 240 1385 l 458 1256 l 676 1385 l 724 1343 l 458 1096 z "},"Ａ":{"ha":1133,"x_min":42,"x_max":1092,"o":"m 442 207 q 363 208 404 207 q 281 211 322 210 q 217 -21 249 100 l 42 -10 q 224 535 124 260 q 439 1071 325 811 q 558 1081 492 1076 q 694 1086 625 1086 q 885 597 783 874 q 1092 -1 986 319 q 932 -22 1007 -15 q 779 -29 857 -29 q 711 224 749 90 q 580 211 646 215 q 442 207 514 207 m 499 918 q 422 692 468 838 q 321 353 376 547 q 440 343 378 346 q 574 340 501 340 q 626 341 600 340 q 678 342 653 342 q 613 563 646 456 q 551 763 581 671 q 499 918 522 854 z "},"Ｂ":{"ha":961,"x_min":97,"x_max":906,"o":"m 319 -21 q 221 -17 275 -21 q 110 -7 167 -14 q 107 97 108 26 q 104 263 106 168 q 101 465 103 357 q 99 681 100 572 q 98 888 99 790 q 97 1061 97 986 q 249 1075 176 1069 q 382 1081 321 1081 q 722 1016 601 1081 q 843 832 843 951 q 633 596 843 682 q 831 485 757 563 q 906 311 906 408 q 831 140 906 215 q 624 22 756 65 q 319 -21 492 -21 m 326 975 q 329 593 326 767 q 473 636 410 607 q 572 706 536 665 q 607 794 607 747 q 568 885 607 844 q 466 951 529 926 q 326 975 403 975 m 353 78 q 503 103 436 79 q 608 169 569 128 q 647 261 647 210 q 602 372 647 318 q 485 464 557 425 q 332 513 414 503 q 340 276 335 385 q 353 78 346 167 z "},"Ｃ":{"ha":1060,"x_min":56,"x_max":1018,"o":"m 576 -21 q 305 44 422 -21 q 122 227 188 110 q 56 499 56 344 q 98 728 56 622 q 215 913 140 833 q 392 1036 290 992 q 613 1081 494 1081 q 845 1033 736 1081 q 1018 903 954 985 q 819 732 911 781 q 549 949 706 949 q 378 861 443 949 q 313 626 313 774 q 340 438 313 531 q 413 272 367 346 q 517 153 460 197 q 633 110 574 110 q 724 132 676 110 q 813 194 771 154 q 882 282 854 233 l 1018 178 q 576 -21 839 -21 z "},"Ｄ":{"ha":1057,"x_min":97,"x_max":1001,"o":"m 275 -21 q 187 -19 232 -21 q 97 -14 142 -17 q 98 299 97 142 q 99 600 99 456 q 102 865 100 744 q 107 1065 104 985 q 217 1076 164 1072 q 322 1081 271 1081 q 830 945 658 1081 q 1001 546 1001 810 q 814 124 1001 269 q 275 -21 626 -21 m 354 97 q 578 136 493 97 q 703 261 664 175 q 743 489 743 347 q 651 829 743 713 q 364 964 558 946 q 361 847 363 925 q 358 669 360 769 q 356 464 357 569 q 355 263 356 358 q 354 97 354 167 z "},"Ｅ":{"ha":979,"x_min":97,"x_max":910,"o":"m 903 -22 q 740 -15 851 -18 q 473 -10 628 -11 q 135 -8 318 -8 q 128 114 132 32 q 120 302 125 196 q 112 522 115 408 q 105 743 108 636 q 99 933 101 850 q 97 1057 97 1015 q 245 1058 161 1057 q 422 1060 329 1058 q 604 1063 514 1061 q 772 1067 694 1065 q 904 1072 850 1069 l 910 928 l 389 935 q 389 764 389 850 q 390 594 389 678 l 881 611 l 875 454 l 392 474 q 394 281 393 372 q 399 114 396 189 l 908 122 l 903 -22 z "},"Ｆ":{"ha":942,"x_min":97,"x_max":872,"o":"m 390 -18 l 97 -14 q 98 135 97 43 q 100 336 99 226 q 103 559 101 446 q 106 774 104 672 q 108 950 107 875 q 111 1057 110 1025 q 322 1058 211 1057 q 538 1062 432 1060 q 732 1067 644 1064 q 872 1072 819 1069 l 865 936 l 372 951 q 377 797 375 874 q 381 644 379 721 l 850 649 l 839 508 l 383 533 q 389 252 388 390 q 390 -18 390 114 z "},"Ｇ":{"ha":1143,"x_min":56,"x_max":1088,"o":"m 554 -21 q 296 46 408 -21 q 119 231 183 113 q 56 504 56 350 q 99 735 56 629 q 220 918 142 840 q 406 1038 299 996 q 640 1081 513 1081 q 878 1038 769 1081 q 1046 921 988 994 q 853 750 950 815 q 569 956 749 956 q 379 863 447 956 q 311 606 311 771 q 336 413 311 503 q 406 253 361 322 q 508 144 450 183 q 631 104 565 104 q 717 126 679 104 q 760 178 754 147 q 755 255 758 208 q 747 353 751 301 q 738 453 742 404 q 630 456 676 454 q 554 461 583 458 l 550 569 q 842 572 703 569 q 1088 581 982 575 l 1082 449 q 986 449 1033 449 q 992 303 990 386 q 994 143 994 221 q 868 56 940 93 q 715 -1 796 19 q 554 -21 635 -21 z "},"Ｈ":{"ha":1128,"x_min":97,"x_max":1031,"o":"m 97 -17 q 98 286 97 133 q 99 582 99 439 q 102 849 100 725 q 107 1067 104 974 q 251 1065 192 1067 q 357 1061 310 1064 q 358 820 357 938 q 360 592 358 703 q 559 597 458 593 q 760 607 660 600 q 761 827 761 713 q 761 1061 761 942 q 890 1068 825 1065 q 1018 1071 954 1071 q 1025 810 1022 951 q 1028 522 1028 669 q 1030 237 1029 375 q 1031 -17 1031 99 q 887 -15 954 -17 q 751 -11 819 -14 q 756 188 754 67 q 760 458 758 308 q 528 460 624 458 q 361 467 433 463 q 367 215 364 335 q 375 -11 371 96 q 244 -15 311 -14 q 97 -17 176 -17 z "},"Ｉ":{"ha":599,"x_min":139,"x_max":460,"o":"m 139 -15 q 156 690 156 331 q 155 823 156 751 q 153 960 154 894 q 151 1063 153 1025 q 211 1067 169 1065 q 301 1069 253 1069 q 380 1067 342 1069 q 446 1063 418 1065 q 442 888 443 976 q 440 719 440 799 q 439 579 439 639 q 444 242 439 385 q 460 -11 450 99 q 139 -15 300 -15 z "},"Ｊ":{"ha":906,"x_min":42,"x_max":808,"o":"m 419 -22 q 222 1 319 -22 q 42 64 125 24 l 72 175 q 210 130 156 147 q 299 106 264 113 q 358 99 333 99 q 435 124 404 99 q 484 211 465 149 q 511 385 503 274 q 519 669 519 497 q 517 863 519 761 q 513 1061 515 964 q 806 1069 658 1069 q 807 1008 807 1050 q 808 915 807 965 q 808 818 808 864 q 797 469 808 614 q 759 228 786 324 q 688 78 732 132 q 577 1 643 24 q 419 -22 511 -22 z "},"Ｋ":{"ha":1079,"x_min":97,"x_max":1038,"o":"m 97 -24 q 97 123 97 32 q 98 324 97 214 q 99 549 99 435 q 99 768 99 664 q 101 951 100 872 q 104 1067 103 1029 l 367 1058 q 360 801 363 944 q 357 507 358 657 q 578 776 469 635 q 797 1083 686 917 l 996 1040 q 700 692 865 869 q 817 480 758 594 q 933 242 876 365 q 1038 0 989 119 q 884 -19 960 -12 q 726 -25 808 -25 q 672 139 704 50 q 599 322 639 228 q 518 506 560 417 q 356 351 439 428 q 354 159 354 253 q 354 -15 354 65 l 97 -24 z "},"Ｌ":{"ha":978,"x_min":97,"x_max":936,"o":"m 936 -22 q 825 -19 903 -21 q 638 -17 747 -18 q 396 -15 528 -15 q 122 -14 264 -14 q 103 547 110 281 q 97 1064 97 813 q 213 1066 129 1065 q 401 1067 297 1067 q 401 836 401 961 q 398 580 400 711 q 393 323 396 449 q 386 92 390 197 q 681 96 538 92 q 932 106 824 100 l 936 -22 z "},"Ｍ":{"ha":1361,"x_min":97,"x_max":1264,"o":"m 133 1069 q 285 1083 215 1078 q 414 1089 354 1089 q 491 864 447 982 q 584 628 535 746 q 683 399 633 510 q 828 728 760 560 q 965 1086 897 897 q 1120 1082 1043 1086 q 1253 1071 1197 1078 q 1253 884 1253 993 q 1255 652 1254 775 q 1257 406 1256 529 q 1260 174 1258 283 q 1264 -12 1261 65 q 1183 -15 1231 -14 q 1082 -17 1135 -17 q 983 -18 1029 -18 q 992 272 989 126 q 998 553 996 417 q 1000 808 1000 690 q 874 487 939 640 q 736 185 808 333 l 511 171 q 357 511 428 349 q 231 814 286 674 l 263 -18 l 97 -12 q 106 160 101 63 q 114 365 110 257 q 122 579 118 472 q 128 782 125 686 q 132 953 131 878 q 133 1069 133 1028 z "},"Ｎ":{"ha":1156,"x_min":97,"x_max":1058,"o":"m 97 -11 q 99 145 97 53 q 102 344 100 238 q 108 560 104 451 q 114 769 111 669 q 120 944 117 868 q 126 1061 124 1021 q 233 1065 164 1064 q 406 1067 303 1067 q 656 699 525 894 q 921 282 786 503 l 889 1068 q 971 1066 926 1068 q 1058 1061 1015 1064 q 1058 849 1058 961 q 1056 624 1057 738 q 1052 404 1054 510 q 1048 212 1050 299 q 1044 66 1046 125 q 1039 -12 1042 7 q 956 -15 1008 -14 q 852 -17 904 -17 q 767 -18 800 -18 q 513 371 653 167 q 228 776 372 575 l 267 -19 q 97 -11 185 -19 z "},"Ｏ":{"ha":1161,"x_min":56,"x_max":1106,"o":"m 581 -22 q 371 19 467 -22 q 204 134 275 60 q 94 309 133 208 q 56 528 56 410 q 94 748 56 647 q 204 923 133 849 q 371 1038 275 997 q 581 1079 467 1079 q 790 1038 694 1079 q 957 923 886 997 q 1067 748 1028 849 q 1106 528 1106 647 q 1067 309 1106 410 q 957 134 1028 208 q 790 19 886 60 q 581 -22 694 -22 m 611 97 q 735 145 682 97 q 817 278 788 193 q 846 478 846 364 q 807 722 846 614 q 701 894 768 831 q 550 958 633 958 q 426 911 479 958 q 344 778 374 864 q 315 578 315 693 q 338 390 315 476 q 401 237 360 303 q 495 134 442 171 q 611 97 549 97 z "},"Ｐ":{"ha":985,"x_min":97,"x_max":943,"o":"m 104 -17 q 103 355 104 181 q 102 671 103 529 q 100 913 101 813 q 97 1060 99 1013 q 253 1076 182 1071 q 386 1082 325 1082 q 683 1041 558 1082 q 876 924 808 1000 q 943 742 943 849 q 869 542 943 629 q 665 401 796 454 q 364 342 533 349 q 366 165 365 254 q 367 -10 367 76 q 253 -15 315 -12 q 104 -17 190 -17 m 343 969 q 353 755 349 892 q 361 457 358 618 q 672 713 672 500 q 584 900 672 831 q 343 969 496 969 z "},"Ｑ":{"ha":1161,"x_min":56,"x_max":1106,"o":"m 581 -22 q 371 19 467 -22 q 204 134 275 60 q 94 309 133 208 q 56 528 56 410 q 94 748 56 647 q 204 923 133 849 q 371 1038 275 997 q 581 1079 467 1079 q 790 1038 694 1079 q 957 923 886 997 q 1067 748 1028 849 q 1106 528 1106 647 q 1075 333 1106 424 q 990 172 1044 243 q 1092 3 1054 96 q 1010 -33 1057 -15 q 914 -67 963 -51 q 824 -92 865 -83 q 788 18 806 -31 q 581 -22 690 -22 m 315 578 q 337 394 315 479 q 396 244 358 308 q 642 356 501 356 q 825 307 733 356 q 846 478 846 383 q 807 722 846 614 q 701 894 768 831 q 550 958 633 958 q 426 911 479 958 q 344 778 374 864 q 315 578 315 693 m 611 97 q 728 139 676 97 q 603 221 674 221 q 482 144 531 221 q 611 97 542 97 z "},"Ｒ":{"ha":1014,"x_min":97,"x_max":972,"o":"m 676 -31 q 516 296 597 164 q 361 485 435 428 q 365 235 364 364 q 367 -18 367 107 q 229 -16 301 -18 q 104 -12 157 -14 q 104 240 104 108 q 103 501 104 372 q 101 741 103 629 q 99 935 100 853 q 97 1057 99 1018 q 245 1073 171 1068 q 383 1078 319 1078 q 669 1044 547 1078 q 860 949 792 1011 q 929 797 929 886 q 894 674 929 733 q 797 573 858 615 q 657 514 735 531 q 715 438 681 488 q 789 328 750 389 q 865 205 828 267 q 930 90 901 143 q 972 4 958 38 q 909 -6 949 0 q 824 -17 869 -11 q 740 -26 779 -22 q 676 -31 700 -29 m 343 967 q 353 790 349 901 q 360 542 357 679 q 590 601 506 547 q 674 743 674 654 q 631 858 674 808 q 513 938 588 908 q 343 967 439 967 z "},"Ｓ":{"ha":988,"x_min":42,"x_max":946,"o":"m 497 -22 q 332 -1 418 -22 q 170 58 246 21 q 42 144 94 96 q 116 240 75 193 q 206 335 157 288 q 331 224 263 275 q 469 142 400 174 q 597 111 539 111 q 691 138 650 111 q 732 219 732 165 q 693 309 732 269 q 591 383 654 349 q 456 449 528 417 q 332 508 393 476 q 220 576 271 539 q 140 660 169 614 q 110 765 110 707 q 141 880 110 824 q 229 981 172 936 q 365 1053 286 1026 q 536 1079 443 1079 q 751 1043 643 1079 q 940 940 860 1007 q 869 845 914 893 q 782 764 824 797 q 606 903 693 847 q 440 960 518 960 q 356 933 385 960 q 328 874 328 906 q 360 810 328 839 q 444 753 392 781 q 560 699 497 726 q 693 635 625 669 q 818 556 761 600 q 910 457 875 513 q 946 329 946 401 q 910 194 946 258 q 813 82 875 131 q 669 6 750 33 q 497 -22 589 -22 z "},"Ｔ":{"ha":1164,"x_min":42,"x_max":1122,"o":"m 729 -14 q 640 -13 693 -14 q 532 -11 586 -12 q 436 -8 478 -10 q 437 149 436 56 q 438 351 438 243 q 440 568 439 460 q 442 771 440 676 q 444 932 443 865 q 231 930 335 931 q 42 929 128 929 l 49 1072 q 250 1072 142 1072 q 470 1070 358 1071 q 688 1069 582 1069 q 882 1067 793 1068 q 1033 1066 971 1067 q 1117 1064 1094 1065 l 1122 943 q 938 938 1042 940 q 721 935 835 936 q 724 781 722 871 q 726 586 725 690 q 727 374 726 482 q 728 167 728 267 q 729 -14 729 67 z "},"Ｕ":{"ha":1121,"x_min":69,"x_max":1051,"o":"m 568 -22 q 335 26 431 -22 q 181 180 239 74 q 96 460 122 286 q 69 886 69 633 q 72 990 69 943 q 75 1068 74 1038 q 241 1067 169 1068 q 364 1063 313 1065 q 360 821 360 933 q 386 411 360 563 q 472 194 413 260 q 632 128 532 128 q 781 183 726 128 q 860 364 836 238 q 883 704 883 490 q 881 855 883 772 q 874 1064 879 938 l 1046 1071 q 1050 974 1049 1028 q 1051 864 1051 921 q 1026 445 1051 615 q 945 172 1001 275 q 797 24 889 69 q 568 -22 704 -22 z "},"Ｖ":{"ha":1133,"x_min":42,"x_max":1092,"o":"m 438 -29 q 244 472 346 193 q 42 1058 143 751 q 206 1080 131 1074 q 353 1086 281 1086 q 424 822 386 958 q 500 557 461 686 q 574 319 539 428 q 635 138 608 211 q 712 368 667 224 q 810 696 757 513 q 917 1081 863 879 l 1092 1069 q 910 519 1011 796 q 694 -15 808 242 l 438 -29 z "},"Ｗ":{"ha":1351,"x_min":42,"x_max":1310,"o":"m 515 -26 l 260 -18 q 137 501 192 225 q 42 1058 82 778 q 349 1086 201 1086 q 374 843 360 965 q 403 606 388 721 q 433 394 418 492 q 460 224 447 296 q 565 721 525 503 q 614 1058 604 939 q 735 1069 675 1065 q 844 1072 794 1072 q 878 892 856 999 q 938 623 900 785 q 1035 224 976 461 q 1078 461 1058 339 q 1115 699 1099 583 q 1140 914 1131 815 q 1153 1081 1150 1013 l 1310 1069 q 1249 695 1283 885 q 1174 324 1214 506 q 1092 -18 1135 143 l 878 -26 q 789 310 832 140 q 708 635 746 481 q 620 315 668 481 q 515 -26 572 150 z "},"Ｘ":{"ha":1104,"x_min":42,"x_max":1063,"o":"m 240 -22 l 71 -8 q 422 501 222 221 q 231 783 328 643 q 42 1054 135 922 q 147 1065 89 1061 q 260 1072 204 1069 q 356 1075 315 1075 q 593 736 468 919 q 843 1072 713 899 l 1004 1058 q 676 611 828 821 q 876 299 778 457 q 1063 -7 975 142 q 917 -19 997 -14 q 764 -24 836 -24 q 640 171 704 71 q 508 372 575 271 q 240 -22 358 160 z "},"Ｙ":{"ha":1163,"x_min":42,"x_max":1121,"o":"m 731 -18 q 627 -17 682 -18 q 522 -15 572 -17 q 436 -12 472 -14 q 438 142 436 57 q 442 313 439 226 q 449 471 444 400 q 289 680 368 574 q 145 880 210 786 q 42 1035 81 974 q 164 1063 85 1049 q 336 1086 243 1076 q 467 860 386 990 q 650 582 547 731 q 810 828 733 701 q 957 1082 888 954 l 1121 1047 q 1006 873 1072 969 q 864 675 939 776 q 715 478 789 574 q 723 324 719 408 q 728 151 726 239 q 731 -18 731 63 z "},"Ｚ":{"ha":1013,"x_min":69,"x_max":943,"o":"m 943 -18 q 763 -18 863 -18 q 558 -17 663 -18 q 359 -16 453 -17 q 197 -15 265 -15 q 101 -12 129 -14 l 69 113 q 397 581 257 371 q 638 961 538 790 q 465 953 560 958 q 276 940 371 947 q 101 925 182 933 l 90 1068 q 325 1068 206 1068 q 554 1067 444 1068 q 751 1065 664 1067 q 889 1063 838 1064 l 921 961 q 823 797 875 882 q 707 609 771 711 q 562 381 643 507 q 376 96 481 254 q 658 113 513 101 q 936 135 804 124 l 943 -18 z "},"a":{"ha":875,"x_min":42,"x_max":833,"o":"m 308 -7 q 116 51 190 -7 q 42 201 42 108 q 103 358 42 286 q 275 481 165 431 q 526 551 385 532 q 389 674 476 674 q 253 633 336 674 q 83 528 169 593 l 42 667 q 433 785 249 785 q 665 706 578 785 q 793 456 753 628 q 833 3 833 285 q 740 -1 807 1 q 594 -3 672 -3 q 593 85 594 42 q 308 -7 450 -7 m 271 211 q 305 143 271 168 q 396 118 339 118 q 589 204 496 118 q 557 453 581 351 q 452 417 503 442 q 360 358 401 392 q 295 285 319 324 q 271 211 271 247 z "},"á":{"ha":875,"x_min":42,"x_max":833,"o":"m 308 -7 q 116 51 190 -7 q 42 201 42 108 q 103 358 42 286 q 275 481 165 431 q 526 551 385 532 q 389 674 476 674 q 253 633 336 674 q 83 528 169 593 l 42 667 q 433 785 249 785 q 665 706 578 785 q 793 456 753 628 q 833 3 833 285 q 740 -1 807 1 q 594 -3 672 -3 q 593 85 594 42 q 308 -7 450 -7 m 271 211 q 305 143 271 168 q 396 118 339 118 q 589 204 496 118 q 557 453 581 351 q 452 417 503 442 q 360 358 401 392 q 295 285 319 324 q 271 211 271 247 m 251 829 l 229 885 l 560 1088 l 646 954 l 251 829 z "},"â":{"ha":875,"x_min":42,"x_max":833,"o":"m 308 -7 q 116 51 190 -7 q 42 201 42 108 q 103 358 42 286 q 275 481 165 431 q 526 551 385 532 q 389 674 476 674 q 253 633 336 674 q 83 528 169 593 l 42 667 q 433 785 249 785 q 665 706 578 785 q 793 456 753 628 q 833 3 833 285 q 740 -1 807 1 q 594 -3 672 -3 q 593 85 594 42 q 308 -7 450 -7 m 271 211 q 305 143 271 168 q 396 118 339 118 q 589 204 496 118 q 557 453 581 351 q 452 417 503 442 q 360 358 401 392 q 295 285 319 324 q 271 211 271 247 m 219 818 l 172 860 l 438 1107 l 703 860 l 656 818 l 438 947 l 219 818 z "},"ä":{"ha":875,"x_min":42,"x_max":833,"o":"m 308 -7 q 116 51 190 -7 q 42 201 42 108 q 103 358 42 286 q 275 481 165 431 q 526 551 385 532 q 389 674 476 674 q 253 633 336 674 q 83 528 169 593 l 42 667 q 433 785 249 785 q 665 706 578 785 q 793 456 753 628 q 833 3 833 285 q 740 -1 807 1 q 594 -3 672 -3 q 593 85 594 42 q 308 -7 450 -7 m 271 211 q 305 143 271 168 q 396 118 339 118 q 589 204 496 118 q 557 453 581 351 q 452 417 503 442 q 360 358 401 392 q 295 285 319 324 q 271 211 271 247 m 500 851 l 500 1051 l 667 1051 l 667 851 l 500 851 m 208 851 l 208 1051 l 375 1051 l 375 851 l 208 851 z "},"à":{"ha":875,"x_min":42,"x_max":833,"o":"m 308 -7 q 116 51 190 -7 q 42 201 42 108 q 103 358 42 286 q 275 481 165 431 q 526 551 385 532 q 389 674 476 674 q 253 633 336 674 q 83 528 169 593 l 42 667 q 433 785 249 785 q 665 706 578 785 q 793 456 753 628 q 833 3 833 285 q 740 -1 807 1 q 594 -3 672 -3 q 593 85 594 42 q 308 -7 450 -7 m 271 211 q 305 143 271 168 q 396 118 339 118 q 589 204 496 118 q 557 453 581 351 q 452 417 503 442 q 360 358 401 392 q 295 285 319 324 q 271 211 271 247 m 624 829 l 229 954 l 315 1088 l 646 885 l 624 829 z "},"å":{"ha":875,"x_min":42,"x_max":833,"o":"m 308 -7 q 116 51 190 -7 q 42 201 42 108 q 103 358 42 286 q 275 481 165 431 q 526 551 385 532 q 389 674 476 674 q 253 633 336 674 q 83 528 169 593 l 42 667 q 433 785 249 785 q 665 706 578 785 q 793 456 753 628 q 833 3 833 285 q 740 -1 807 1 q 594 -3 672 -3 q 593 85 594 42 q 308 -7 450 -7 m 271 211 q 305 143 271 168 q 396 118 339 118 q 589 204 496 118 q 557 453 581 351 q 452 417 503 442 q 360 358 401 392 q 295 285 319 324 q 271 211 271 247 m 440 761 q 319 805 365 761 q 274 919 274 849 q 318 1031 274 989 q 435 1072 363 1072 q 556 1028 510 1072 q 601 914 601 985 q 558 803 601 846 q 440 761 514 761 m 446 814 q 482 900 482 814 q 467 986 482 953 q 429 1019 453 1019 q 393 933 393 1019 q 408 848 393 882 q 446 814 424 814 z "},"ã":{"ha":875,"x_min":42,"x_max":833,"o":"m 308 -7 q 116 51 190 -7 q 42 201 42 108 q 103 358 42 286 q 275 481 165 431 q 526 551 385 532 q 389 674 476 674 q 253 633 336 674 q 83 528 169 593 l 42 667 q 433 785 249 785 q 665 706 578 785 q 793 456 753 628 q 833 3 833 285 q 740 -1 807 1 q 594 -3 672 -3 q 593 85 594 42 q 308 -7 450 -7 m 271 211 q 305 143 271 168 q 396 118 339 118 q 589 204 496 118 q 557 453 581 351 q 452 417 503 442 q 360 358 401 392 q 295 285 319 324 q 271 211 271 247 m 528 843 q 413 901 474 843 q 314 956 356 956 q 279 944 296 956 q 231 897 263 932 l 196 958 q 346 1068 267 1068 q 463 1010 404 1068 q 560 956 517 956 q 595 967 578 956 q 644 1014 613 979 l 679 953 q 528 843 607 843 z "},"æ":{"ha":1333,"x_min":42,"x_max":1292,"o":"m 301 -7 q 112 51 182 -7 q 42 206 42 108 q 99 367 42 293 q 257 489 156 440 q 493 554 358 538 q 347 674 438 674 q 231 634 294 674 q 111 528 167 594 l 42 667 q 220 758 143 731 q 378 785 297 785 q 663 651 563 785 q 792 749 717 713 q 956 785 868 785 q 1131 738 1056 785 q 1249 607 1207 690 q 1292 413 1292 524 l 775 310 q 850 163 796 219 q 976 107 904 107 q 1096 149 1039 107 q 1192 268 1153 192 l 1292 185 q 929 -7 1149 -7 q 765 26 839 -7 q 642 115 692 58 q 478 25 567 57 q 301 -7 389 -7 m 915 674 q 841 642 874 674 q 788 556 808 611 q 764 432 767 501 l 1065 476 q 1041 575 1063 531 q 987 647 1019 619 q 915 674 954 674 m 250 228 q 284 144 250 178 q 368 111 318 111 q 554 226 457 111 q 526 457 550 358 q 390 413 453 447 q 288 330 326 379 q 250 228 250 281 z "},"b":{"ha":833,"x_min":69,"x_max":792,"o":"m 301 -3 q 179 -1 242 -3 q 76 3 117 1 q 74 105 75 35 q 73 269 74 175 q 72 470 72 364 q 70 683 71 576 q 69 886 69 790 q 69 1051 69 982 q 145 1051 101 1051 q 233 1049 189 1050 q 308 1046 278 1047 q 308 726 308 915 q 483 785 392 785 q 642 735 572 785 q 751 598 711 685 q 792 400 792 511 q 749 195 792 288 q 635 48 707 103 q 475 -7 564 -7 q 303 42 393 -7 q 301 -3 301 14 m 419 671 q 307 601 358 671 q 306 394 307 497 q 304 206 306 292 q 365 131 328 158 q 443 104 401 104 q 545 171 508 104 q 582 356 582 238 q 560 517 582 446 q 503 630 539 589 q 419 671 467 671 z "},"c":{"ha":819,"x_min":42,"x_max":806,"o":"m 446 -7 q 291 24 364 -7 q 162 110 218 56 q 74 235 106 164 q 42 386 42 307 q 74 540 42 468 q 165 667 107 611 q 299 753 224 722 q 461 785 375 785 q 806 635 642 785 l 674 490 q 560 623 629 572 q 425 674 492 674 q 309 613 353 674 q 265 449 265 551 q 298 278 265 356 q 386 153 331 200 q 507 107 442 107 q 620 143 564 107 q 714 240 676 179 l 799 157 q 446 -7 635 -7 z "},"ç":{"ha":819,"x_min":42,"x_max":806,"o":"m 446 -7 q 291 24 364 -7 q 162 110 218 56 q 74 235 106 164 q 42 386 42 307 q 74 540 42 468 q 165 667 107 611 q 299 753 224 722 q 461 785 375 785 q 806 635 642 785 l 674 490 q 560 623 629 572 q 425 674 492 674 q 309 613 353 674 q 265 449 265 551 q 298 278 265 356 q 386 153 331 200 q 507 107 442 107 q 620 143 564 107 q 714 240 676 179 l 799 157 q 446 -7 635 -7 m 368 -322 l 349 -264 q 422 -221 396 -243 q 447 -181 447 -199 q 404 -128 447 -154 q 299 -90 361 -103 q 357 -17 318 -61 q 436 65 396 26 l 492 38 l 454 -26 q 546 -89 513 -53 q 579 -164 579 -125 q 524 -253 579 -212 q 368 -322 469 -294 z "},"d":{"ha":833,"x_min":42,"x_max":764,"o":"m 350 -7 q 192 43 263 -7 q 82 181 122 93 q 42 378 42 268 q 84 583 42 492 q 199 730 126 675 q 358 785 271 785 q 525 739 438 785 q 525 1051 525 924 q 601 1051 557 1051 q 689 1049 644 1050 q 764 1046 733 1047 q 764 877 764 975 q 763 668 764 779 q 762 448 763 557 q 760 244 761 339 q 759 85 760 150 q 757 -3 758 19 q 635 -1 697 -3 q 532 3 572 1 q 531 54 532 21 q 350 -7 444 -7 m 251 422 q 273 260 251 332 q 331 148 294 189 q 414 107 368 107 q 529 181 476 107 q 527 366 528 263 q 526 576 526 469 q 467 648 503 622 q 390 674 432 674 q 288 608 325 674 q 251 422 251 542 z "},"ð":{"ha":833,"x_min":42,"x_max":792,"o":"m 401 -7 q 213 39 294 -7 q 87 167 132 85 q 42 358 42 249 q 85 551 42 467 q 207 682 129 635 q 385 729 285 729 q 463 721 424 729 q 407 822 438 769 l 89 788 l 74 871 l 340 933 q 283 1021 314 975 l 424 1076 q 517 974 472 1025 l 682 1013 l 733 858 l 615 846 q 747 603 701 721 q 792 381 792 485 q 741 181 792 268 q 603 43 690 93 q 401 -7 515 -7 m 251 422 q 278 263 251 335 q 350 149 306 192 q 449 107 394 107 q 543 163 510 107 q 576 321 576 219 q 538 544 576 426 q 472 598 511 578 q 389 618 433 618 q 287 568 322 618 q 251 422 251 518 z "},"e":{"ha":861,"x_min":42,"x_max":819,"o":"m 438 -7 q 235 45 325 -7 q 94 187 146 97 q 42 390 42 276 q 92 593 42 504 q 231 733 143 682 q 432 785 319 785 q 622 738 538 785 q 758 608 706 692 q 819 413 810 525 l 268 310 q 351 163 294 219 q 479 107 408 107 q 608 152 544 107 q 707 268 672 197 l 806 185 q 642 43 738 93 q 438 -7 546 -7 m 250 446 q 250 432 250 438 l 574 476 q 517 619 564 565 q 401 674 469 674 q 290 613 331 674 q 250 446 250 553 z "},"é":{"ha":861,"x_min":42,"x_max":819,"o":"m 438 -7 q 235 45 325 -7 q 94 187 146 97 q 42 390 42 276 q 92 593 42 504 q 231 733 143 682 q 432 785 319 785 q 622 738 538 785 q 758 608 706 692 q 819 413 810 525 l 268 310 q 351 163 294 219 q 479 107 408 107 q 608 152 544 107 q 707 268 672 197 l 806 185 q 642 43 738 93 q 438 -7 546 -7 m 250 446 q 250 432 250 438 l 574 476 q 517 619 564 565 q 401 674 469 674 q 290 613 331 674 q 250 446 250 553 m 244 829 l 222 885 l 553 1088 l 639 954 l 244 829 z "},"ê":{"ha":861,"x_min":42,"x_max":819,"o":"m 438 -7 q 235 45 325 -7 q 94 187 146 97 q 42 390 42 276 q 92 593 42 504 q 231 733 143 682 q 432 785 319 785 q 622 738 538 785 q 758 608 706 692 q 819 413 810 525 l 268 310 q 351 163 294 219 q 479 107 408 107 q 608 152 544 107 q 707 268 672 197 l 806 185 q 642 43 738 93 q 438 -7 546 -7 m 250 446 q 250 432 250 438 l 574 476 q 517 619 564 565 q 401 674 469 674 q 290 613 331 674 q 250 446 250 553 m 213 818 l 165 860 l 431 1107 l 696 860 l 649 818 l 431 947 l 213 818 z "},"ë":{"ha":861,"x_min":42,"x_max":819,"o":"m 438 -7 q 235 45 325 -7 q 94 187 146 97 q 42 390 42 276 q 92 593 42 504 q 231 733 143 682 q 432 785 319 785 q 622 738 538 785 q 758 608 706 692 q 819 413 810 525 l 268 310 q 351 163 294 219 q 479 107 408 107 q 608 152 544 107 q 707 268 672 197 l 806 185 q 642 43 738 93 q 438 -7 546 -7 m 250 446 q 250 432 250 438 l 574 476 q 517 619 564 565 q 401 674 469 674 q 290 613 331 674 q 250 446 250 553 m 493 851 l 493 1051 l 660 1051 l 660 851 l 493 851 m 201 851 l 201 1051 l 368 1051 l 368 851 l 201 851 z "},"è":{"ha":861,"x_min":42,"x_max":819,"o":"m 438 -7 q 235 45 325 -7 q 94 187 146 97 q 42 390 42 276 q 92 593 42 504 q 231 733 143 682 q 432 785 319 785 q 622 738 538 785 q 758 608 706 692 q 819 413 810 525 l 268 310 q 351 163 294 219 q 479 107 408 107 q 608 152 544 107 q 707 268 672 197 l 806 185 q 642 43 738 93 q 438 -7 546 -7 m 250 446 q 250 432 250 438 l 574 476 q 517 619 564 565 q 401 674 469 674 q 290 613 331 674 q 250 446 250 553 m 617 829 l 222 954 l 308 1088 l 639 885 l 617 829 z "},"f":{"ha":611,"x_min":42,"x_max":569,"o":"m 146 -3 q 150 379 146 217 q 168 658 154 542 l 50 658 l 42 786 l 188 786 q 258 959 213 900 q 378 1041 304 1018 q 563 1069 453 1064 l 557 951 q 456 918 492 951 q 404 786 421 885 l 569 786 l 561 658 l 390 658 q 385 515 386 596 q 383 333 383 435 q 385 163 383 244 q 389 3 386 81 q 265 -1 331 1 q 146 -3 200 -3 z "},"g":{"ha":861,"x_min":42,"x_max":792,"o":"m 165 -181 l 161 -69 q 349 -46 274 -64 q 469 9 424 -28 q 539 111 515 46 q 342 49 449 49 q 185 92 253 49 q 79 212 117 135 q 42 390 42 289 q 84 590 42 500 q 199 732 126 679 q 358 785 271 785 q 452 771 403 785 q 551 733 501 757 q 549 768 550 750 q 665 772 610 771 q 788 774 719 774 q 792 563 792 656 q 775 253 792 382 q 718 40 758 124 q 606 -93 678 -44 q 426 -161 535 -142 q 165 -181 318 -181 m 251 438 q 299 250 251 319 q 425 181 346 181 q 568 300 529 181 q 569 369 569 332 q 568 451 569 408 q 564 549 567 494 q 492 634 538 601 q 397 667 447 667 q 290 606 329 667 q 251 438 251 544 z "},"h":{"ha":875,"x_min":69,"x_max":833,"o":"m 301 -3 q 185 -1 250 -3 q 76 3 121 1 q 74 103 75 35 q 73 265 74 172 q 72 463 72 358 q 70 674 71 568 q 69 877 69 781 q 69 1046 69 974 q 143 1049 100 1047 q 231 1051 186 1050 q 308 1051 276 1051 q 308 899 308 986 q 307 717 308 813 q 409 767 356 749 q 514 785 463 785 q 756 594 678 785 q 833 3 833 404 q 744 -1 799 0 q 594 -3 690 -3 q 449 674 594 674 q 374 638 413 674 q 307 544 336 601 q 305 359 306 449 q 303 194 304 269 q 302 67 303 119 q 301 -3 301 15 z "},"i":{"ha":378,"x_min":69,"x_max":308,"o":"m 71 868 l 71 1056 l 307 1056 l 307 868 l 71 868 m 76 -3 q 74 122 75 43 q 72 302 72 200 q 70 521 71 404 q 69 760 69 638 q 201 758 132 760 q 308 754 269 757 q 308 542 308 653 q 306 326 307 431 q 304 136 306 221 q 301 3 303 51 q 179 -1 238 0 q 76 -3 121 -3 z "},"ı":{"ha":378,"x_min":69,"x_max":308,"o":"m 76 -3 q 74 122 75 43 q 72 302 72 200 q 70 521 71 404 q 69 760 69 638 q 201 758 132 760 q 308 754 269 757 q 308 542 308 653 q 306 326 307 431 q 304 136 306 221 q 301 3 303 51 q 179 -1 238 0 q 76 -3 121 -3 z "},"í":{"ha":378,"x_min":-19,"x_max":397,"o":"m 76 -3 q 74 122 75 43 q 72 302 72 200 q 70 521 71 404 q 69 760 69 638 q 201 758 132 760 q 308 754 269 757 q 308 542 308 653 q 306 326 307 431 q 304 136 306 221 q 301 3 303 51 q 179 -1 238 0 q 76 -3 121 -3 m 3 829 l -19 885 l 311 1088 l 397 954 l 3 829 z "},"î":{"ha":378,"x_min":-76,"x_max":454,"o":"m 76 -3 q 74 122 75 43 q 72 302 72 200 q 70 521 71 404 q 69 760 69 638 q 201 758 132 760 q 308 754 269 757 q 308 542 308 653 q 306 326 307 431 q 304 136 306 221 q 301 3 303 51 q 179 -1 238 0 q 76 -3 121 -3 m -29 818 l -76 860 l 189 1107 l 454 860 l 407 818 l 189 947 l -29 818 z "},"ï":{"ha":378,"x_min":-40,"x_max":418,"o":"m 76 -3 q 74 122 75 43 q 72 302 72 200 q 70 521 71 404 q 69 760 69 638 q 201 758 132 760 q 308 754 269 757 q 308 542 308 653 q 306 326 307 431 q 304 136 306 221 q 301 3 303 51 q 179 -1 238 0 q 76 -3 121 -3 m 251 851 l 251 1051 l 418 1051 l 418 851 l 251 851 m -40 851 l -40 1051 l 126 1051 l 126 851 l -40 851 z "},"ì":{"ha":378,"x_min":-19,"x_max":397,"o":"m 76 -3 q 74 122 75 43 q 72 302 72 200 q 70 521 71 404 q 69 760 69 638 q 201 758 132 760 q 308 754 269 757 q 308 542 308 653 q 306 326 307 431 q 304 136 306 221 q 301 3 303 51 q 179 -1 238 0 q 76 -3 121 -3 m 375 829 l -19 954 l 67 1088 l 397 885 l 375 829 z "},"j":{"ha":493,"x_min":14,"x_max":424,"o":"m 175 868 l 175 1056 l 411 1056 l 411 868 l 175 868 m 83 -181 l 14 -56 q 148 100 106 -15 q 190 426 190 215 q 187 567 190 485 q 176 754 183 650 q 288 758 228 757 q 415 760 347 760 q 424 504 424 613 q 388 145 424 288 q 278 -76 353 3 q 83 -181 203 -156 z "},"k":{"ha":875,"x_min":69,"x_max":861,"o":"m 76 -3 q 74 103 75 29 q 73 275 74 176 q 72 484 72 374 q 70 702 71 594 q 69 901 69 810 q 69 1051 69 993 q 196 1050 131 1051 q 308 1046 261 1049 q 308 892 308 985 q 308 692 308 800 q 307 478 307 585 q 455 603 382 539 q 590 724 528 667 q 692 826 651 782 l 815 743 q 713 653 771 701 q 590 554 656 604 q 653 437 618 504 q 726 295 689 369 q 799 148 764 221 q 861 14 833 75 l 594 -14 q 508 219 553 106 q 418 425 463 333 q 306 347 363 385 q 303 134 304 228 q 301 3 303 40 q 213 -1 265 0 q 76 -3 160 -3 z "},"l":{"ha":444,"x_min":69,"x_max":431,"o":"m 308 1051 q 304 896 306 972 q 303 754 303 819 q 316 395 303 535 q 357 181 329 256 q 431 83 385 107 l 333 -28 q 208 22 258 -19 q 126 145 157 63 q 83 360 96 228 q 69 682 69 492 q 72 855 69 761 q 76 1046 74 949 q 172 1050 117 1049 q 308 1051 228 1051 z "},"ł":{"ha":617,"x_min":14,"x_max":603,"o":"m 72 349 l 14 460 l 182 543 q 181 682 181 607 q 183 855 181 761 q 188 1046 185 949 q 283 1050 228 1049 q 419 1051 339 1051 q 415 896 417 972 q 414 754 414 819 q 414 657 414 703 l 544 721 l 603 610 l 418 519 q 457 213 428 314 q 542 83 486 111 l 444 -28 q 313 27 365 -18 q 231 165 261 72 q 190 407 201 257 l 72 349 z "},"m":{"ha":1236,"x_min":42,"x_max":1194,"o":"m 267 -3 q 192 -2 236 -3 q 106 0 147 -1 q 42 3 65 1 q 42 331 42 176 q 45 601 43 485 q 49 774 47 717 q 153 772 93 774 q 260 768 213 771 q 263 689 261 739 q 490 785 376 785 q 592 760 549 785 q 664 679 635 735 q 903 785 774 785 q 1123 631 1051 785 q 1194 156 1194 476 q 1194 83 1194 118 q 1190 6 1193 47 q 1086 -3 1151 0 q 951 -6 1021 -6 q 958 119 956 53 q 960 251 960 186 q 934 570 960 467 q 856 674 908 674 q 777 631 819 674 q 710 524 735 588 q 726 373 721 458 q 731 182 731 288 q 726 3 731 90 q 656 0 699 1 q 569 -2 614 -1 q 488 -3 524 -3 q 494 156 492 71 q 496 317 496 240 q 488 527 496 449 q 463 640 481 606 q 415 674 446 674 q 335 629 378 674 q 264 519 293 585 q 266 278 265 413 q 267 -3 267 144 z "},"n":{"ha":876,"x_min":42,"x_max":835,"o":"m 49 -3 q 46 120 47 42 q 44 302 44 199 q 42 526 43 406 q 42 774 42 646 q 117 773 72 774 q 206 771 161 772 q 281 768 251 769 q 281 697 281 733 q 521 785 399 785 q 703 706 633 785 q 803 453 772 626 q 835 -3 835 279 q 758 -2 803 -3 q 671 0 714 -1 q 596 3 628 1 q 582 396 596 249 q 536 608 568 543 q 450 674 504 674 q 360 636 406 674 q 281 538 314 599 q 278 314 279 419 q 276 127 278 208 q 274 3 275 46 q 169 -1 231 1 q 49 -3 107 -3 z "},"ñ":{"ha":876,"x_min":42,"x_max":835,"o":"m 49 -3 q 46 120 47 42 q 44 302 44 199 q 42 526 43 406 q 42 774 42 646 q 117 773 72 774 q 206 771 161 772 q 281 768 251 769 q 281 697 281 733 q 521 785 399 785 q 703 706 633 785 q 803 453 772 626 q 835 -3 835 279 q 758 -2 803 -3 q 671 0 714 -1 q 596 3 628 1 q 582 396 596 249 q 536 608 568 543 q 450 674 504 674 q 360 636 406 674 q 281 538 314 599 q 278 314 279 419 q 276 127 278 208 q 274 3 275 46 q 169 -1 231 1 q 49 -3 107 -3 m 528 843 q 413 901 474 843 q 314 956 356 956 q 279 944 296 956 q 231 897 263 932 l 196 958 q 346 1068 267 1068 q 463 1010 404 1068 q 560 956 517 956 q 595 967 578 956 q 644 1014 613 979 l 679 953 q 528 843 607 843 z "},"o":{"ha":889,"x_min":42,"x_max":847,"o":"m 433 -7 q 235 44 324 -7 q 94 183 146 96 q 42 378 42 271 q 74 536 42 463 q 163 666 106 610 q 296 753 221 722 q 456 785 371 785 q 654 733 565 785 q 795 595 743 682 q 847 400 847 508 q 815 242 847 315 q 726 112 783 168 q 594 24 668 56 q 433 -7 519 -7 m 474 106 q 589 169 547 106 q 631 344 631 232 q 603 513 631 439 q 526 629 575 586 q 415 672 478 672 q 300 609 342 672 q 258 433 258 546 q 286 266 258 340 q 363 149 314 192 q 474 106 413 106 z "},"ó":{"ha":889,"x_min":42,"x_max":847,"o":"m 433 -7 q 235 44 324 -7 q 94 183 146 96 q 42 378 42 271 q 74 536 42 463 q 163 666 106 610 q 296 753 221 722 q 456 785 371 785 q 654 733 565 785 q 795 595 743 682 q 847 400 847 508 q 815 242 847 315 q 726 112 783 168 q 594 24 668 56 q 433 -7 519 -7 m 474 106 q 589 169 547 106 q 631 344 631 232 q 603 513 631 439 q 526 629 575 586 q 415 672 478 672 q 300 609 342 672 q 258 433 258 546 q 286 266 258 340 q 363 149 314 192 q 474 106 413 106 m 258 829 l 236 885 l 567 1088 l 653 954 l 258 829 z "},"ô":{"ha":889,"x_min":42,"x_max":847,"o":"m 433 -7 q 235 44 324 -7 q 94 183 146 96 q 42 378 42 271 q 74 536 42 463 q 163 666 106 610 q 296 753 221 722 q 456 785 371 785 q 654 733 565 785 q 795 595 743 682 q 847 400 847 508 q 815 242 847 315 q 726 112 783 168 q 594 24 668 56 q 433 -7 519 -7 m 474 106 q 589 169 547 106 q 631 344 631 232 q 603 513 631 439 q 526 629 575 586 q 415 672 478 672 q 300 609 342 672 q 258 433 258 546 q 286 266 258 340 q 363 149 314 192 q 474 106 413 106 m 226 818 l 179 860 l 444 1107 l 710 860 l 663 818 l 444 947 l 226 818 z "},"ö":{"ha":889,"x_min":42,"x_max":847,"o":"m 433 -7 q 235 44 324 -7 q 94 183 146 96 q 42 378 42 271 q 74 536 42 463 q 163 666 106 610 q 296 753 221 722 q 456 785 371 785 q 654 733 565 785 q 795 595 743 682 q 847 400 847 508 q 815 242 847 315 q 726 112 783 168 q 594 24 668 56 q 433 -7 519 -7 m 474 106 q 589 169 547 106 q 631 344 631 232 q 603 513 631 439 q 526 629 575 586 q 415 672 478 672 q 300 609 342 672 q 258 433 258 546 q 286 266 258 340 q 363 149 314 192 q 474 106 413 106 m 507 851 l 507 1051 l 674 1051 l 674 851 l 507 851 m 215 851 l 215 1051 l 382 1051 l 382 851 l 215 851 z "},"ò":{"ha":889,"x_min":42,"x_max":847,"o":"m 433 -7 q 235 44 324 -7 q 94 183 146 96 q 42 378 42 271 q 74 536 42 463 q 163 666 106 610 q 296 753 221 722 q 456 785 371 785 q 654 733 565 785 q 795 595 743 682 q 847 400 847 508 q 815 242 847 315 q 726 112 783 168 q 594 24 668 56 q 433 -7 519 -7 m 474 106 q 589 169 547 106 q 631 344 631 232 q 603 513 631 439 q 526 629 575 586 q 415 672 478 672 q 300 609 342 672 q 258 433 258 546 q 286 266 258 340 q 363 149 314 192 q 474 106 413 106 m 631 829 l 236 954 l 322 1088 l 653 885 l 631 829 z "},"ø":{"ha":889,"x_min":42,"x_max":847,"o":"m 201 -49 l 90 28 l 151 108 q 71 230 100 161 q 42 378 42 299 q 74 536 42 463 q 163 666 106 610 q 296 753 221 722 q 456 785 371 785 q 628 747 547 785 l 688 826 l 799 750 l 738 669 q 818 548 789 617 q 847 400 847 479 q 815 242 847 315 q 726 112 783 168 q 594 24 668 56 q 433 -7 519 -7 q 261 31 342 -7 l 201 -49 m 258 433 q 281 282 258 351 l 535 621 q 415 672 482 672 q 300 609 342 672 q 258 433 258 546 m 474 106 q 589 169 547 106 q 631 344 631 232 q 608 496 631 426 l 354 157 q 474 106 407 106 z "},"õ":{"ha":889,"x_min":42,"x_max":847,"o":"m 433 -7 q 235 44 324 -7 q 94 183 146 96 q 42 378 42 271 q 74 536 42 463 q 163 666 106 610 q 296 753 221 722 q 456 785 371 785 q 654 733 565 785 q 795 595 743 682 q 847 400 847 508 q 815 242 847 315 q 726 112 783 168 q 594 24 668 56 q 433 -7 519 -7 m 474 106 q 589 169 547 106 q 631 344 631 232 q 603 513 631 439 q 526 629 575 586 q 415 672 478 672 q 300 609 342 672 q 258 433 258 546 q 286 266 258 340 q 363 149 314 192 q 474 106 413 106 m 535 843 q 419 901 481 843 q 321 956 363 956 q 286 944 303 956 q 238 897 269 932 l 203 958 q 353 1068 274 1068 q 469 1010 411 1068 q 567 956 524 956 q 602 967 585 956 q 651 1014 619 979 l 686 953 q 535 843 614 843 z "},"œ":{"ha":1375,"x_min":42,"x_max":1333,"o":"m 406 -7 q 219 40 301 -7 q 89 171 136 88 q 42 360 42 254 q 74 526 42 449 q 163 661 106 603 q 294 752 219 719 q 456 785 369 785 q 613 752 542 785 q 733 663 683 719 q 858 752 788 719 q 1008 785 929 785 q 1178 738 1104 785 q 1292 606 1251 690 q 1333 413 1333 522 l 831 313 q 901 163 850 218 q 1025 107 953 107 q 1140 149 1086 107 q 1233 268 1194 192 l 1333 185 q 978 -7 1192 -7 q 816 25 889 -7 q 694 113 743 57 q 565 25 639 57 q 406 -7 490 -7 m 957 674 q 860 608 897 674 q 819 435 822 542 l 1107 476 q 1083 575 1104 531 q 1028 647 1061 619 q 957 674 996 674 m 453 106 q 567 174 524 106 q 610 356 610 243 q 583 516 610 444 q 510 630 556 588 q 408 672 465 672 q 294 603 338 672 q 251 422 251 535 q 278 262 251 333 q 351 148 306 190 q 453 106 397 106 z "},"p":{"ha":833,"x_min":69,"x_max":792,"o":"m 301 -162 q 185 -160 250 -162 q 76 -157 121 -158 q 74 -40 75 -118 q 72 140 74 38 q 70 353 71 242 q 69 573 69 465 q 69 768 69 681 q 143 771 100 769 q 231 773 186 772 q 308 774 276 774 q 308 728 308 751 q 483 785 392 785 q 642 735 572 785 q 751 598 711 685 q 792 400 792 511 q 749 195 792 288 q 635 48 707 103 q 475 -7 564 -7 q 304 40 394 -7 q 303 -81 304 -28 q 301 -162 303 -133 m 419 671 q 308 603 360 671 q 308 403 308 507 q 306 203 307 300 q 365 131 329 157 q 443 104 401 104 q 545 171 508 104 q 582 356 582 238 q 560 517 582 446 q 503 630 539 589 q 419 671 467 671 z "},"þ":{"ha":833,"x_min":69,"x_max":792,"o":"m 308 -162 q 197 -160 265 -162 q 69 -157 128 -158 q 69 63 69 -57 q 70 308 69 182 q 72 555 71 435 q 73 776 72 675 q 74 949 74 878 q 76 1046 75 1019 q 174 1050 118 1049 q 301 1051 229 1051 q 303 934 303 1021 q 306 725 304 847 q 483 785 390 785 q 642 735 572 785 q 751 598 711 685 q 792 400 792 511 q 749 195 792 288 q 635 48 707 103 q 475 -7 564 -7 q 308 39 396 -7 q 308 -162 308 -69 m 419 671 q 306 600 358 671 q 307 403 307 506 q 308 200 307 301 q 367 130 332 156 q 443 104 403 104 q 545 171 508 104 q 582 356 582 238 q 560 517 582 446 q 503 630 539 589 q 419 671 467 671 z "},"q":{"ha":833,"x_min":42,"x_max":764,"o":"m 350 -7 q 192 43 263 -7 q 82 181 122 93 q 42 378 42 268 q 84 583 42 492 q 199 730 126 675 q 358 785 271 785 q 531 736 440 785 q 532 774 532 758 q 643 772 579 774 q 757 768 707 771 q 759 648 758 729 q 761 461 760 567 q 763 242 763 356 q 764 25 764 129 q 764 -157 764 -79 q 689 -160 733 -158 q 601 -162 644 -161 q 525 -162 557 -162 q 525 51 525 -72 q 350 -7 442 -7 m 251 422 q 273 260 251 332 q 331 148 294 189 q 414 107 368 107 q 526 175 475 107 q 527 383 526 279 q 529 572 528 486 q 469 647 506 619 q 390 674 432 674 q 288 608 325 674 q 251 422 251 542 z "},"r":{"ha":813,"x_min":42,"x_max":771,"o":"m 274 -3 q 163 -1 225 -3 q 49 3 101 1 q 46 122 47 44 q 44 303 44 200 q 42 526 43 407 q 42 768 42 644 q 117 771 72 769 q 206 773 161 772 q 281 774 250 774 q 281 693 281 733 q 392 760 335 736 q 504 785 450 785 q 633 747 575 785 q 728 643 692 708 q 771 496 765 578 q 660 464 715 478 q 554 442 604 450 q 538 557 554 504 q 496 642 522 610 q 438 674 469 674 q 354 628 400 674 q 281 515 308 582 q 278 201 279 339 q 274 -3 276 63 z "},"s":{"ha":847,"x_min":42,"x_max":806,"o":"m 439 -7 q 310 2 382 -7 q 167 26 238 11 q 42 57 96 40 l 103 225 q 220 167 156 194 q 347 124 285 140 q 454 107 410 107 q 542 134 514 107 q 569 192 569 161 q 539 252 569 228 q 459 295 508 276 q 353 331 410 314 q 250 364 301 346 q 156 406 199 382 q 88 465 114 431 q 63 549 63 500 q 107 665 63 611 q 233 751 151 718 q 428 785 315 785 q 613 761 519 785 q 785 694 707 738 l 707 563 q 559 642 631 611 q 424 674 488 674 q 331 647 363 674 q 299 593 299 621 q 324 549 299 567 q 391 519 349 532 q 482 494 433 507 q 593 465 536 482 q 699 421 650 447 q 776 353 747 394 q 806 251 806 313 q 758 118 806 176 q 628 26 711 60 q 439 -7 546 -7 z "},"š":{"ha":847,"x_min":42,"x_max":806,"o":"m 439 -7 q 310 2 382 -7 q 167 26 238 11 q 42 57 96 40 l 103 225 q 220 167 156 194 q 347 124 285 140 q 454 107 410 107 q 542 134 514 107 q 569 192 569 161 q 539 252 569 228 q 459 295 508 276 q 353 331 410 314 q 250 364 301 346 q 156 406 199 382 q 88 465 114 431 q 63 549 63 500 q 107 665 63 611 q 233 751 151 718 q 428 785 315 785 q 613 761 519 785 q 785 694 707 738 l 707 563 q 559 642 631 611 q 424 674 488 674 q 331 647 363 674 q 299 593 299 621 q 324 549 299 567 q 391 519 349 532 q 482 494 433 507 q 593 465 536 482 q 699 421 650 447 q 776 353 747 394 q 806 251 806 313 q 758 118 806 176 q 628 26 711 60 q 439 -7 546 -7 m 424 818 l 158 1065 l 206 1107 l 424 978 l 642 1107 l 689 1065 l 424 818 z "},"ß":{"ha":847,"x_min":69,"x_max":806,"o":"m 435 -14 l 411 83 q 543 154 496 99 q 590 294 590 210 q 513 466 590 404 q 292 535 435 528 l 292 522 q 297 276 292 415 q 308 4 301 138 q 198 -2 256 0 q 83 -4 140 -4 q 73 206 76 115 q 69 372 69 296 q 108 778 69 626 q 233 996 146 929 q 465 1063 319 1063 q 690 1008 608 1063 q 771 860 771 954 q 549 639 771 710 q 682 588 624 628 q 773 488 740 547 q 806 356 806 428 q 774 219 806 285 q 691 100 743 153 q 572 17 639 47 q 435 -14 506 -14 m 428 951 q 331 881 363 951 q 293 639 300 811 q 569 824 569 710 q 550 886 569 857 q 498 933 531 915 q 428 951 465 951 z "},"t":{"ha":639,"x_min":42,"x_max":597,"o":"m 207 -3 q 205 91 206 26 q 203 246 204 156 q 202 442 203 336 q 201 658 201 547 l 50 658 l 42 786 l 200 786 q 200 1051 200 926 q 320 1050 251 1051 q 439 1046 389 1049 q 439 786 439 926 l 597 786 l 589 658 l 438 658 q 437 445 438 550 q 435 251 436 340 q 434 97 435 163 q 432 3 433 32 q 328 -1 385 0 q 207 -3 271 -3 z "},"u":{"ha":875,"x_min":42,"x_max":833,"o":"m 351 -7 q 42 558 42 -7 q 50 761 42 653 q 141 765 83 764 q 289 767 199 767 q 281 519 281 628 q 315 205 281 306 q 419 104 349 104 q 515 143 467 104 q 597 246 563 182 q 595 492 596 356 q 594 774 594 629 q 720 772 651 774 q 833 768 789 771 q 833 540 833 656 q 831 319 832 425 q 829 131 831 214 q 826 3 828 49 q 714 -1 772 0 q 601 -3 656 -3 q 599 83 600 31 q 351 -7 479 -7 z "},"ú":{"ha":875,"x_min":42,"x_max":833,"o":"m 351 -7 q 42 558 42 -7 q 50 761 42 653 q 141 765 83 764 q 289 767 199 767 q 281 519 281 628 q 315 205 281 306 q 419 104 349 104 q 515 143 467 104 q 597 246 563 182 q 595 492 596 356 q 594 774 594 629 q 720 772 651 774 q 833 768 789 771 q 833 540 833 656 q 831 319 832 425 q 829 131 831 214 q 826 3 828 49 q 714 -1 772 0 q 601 -3 656 -3 q 599 83 600 31 q 351 -7 479 -7 m 256 829 l 233 885 l 564 1088 l 650 954 l 256 829 z "},"û":{"ha":875,"x_min":42,"x_max":833,"o":"m 351 -7 q 42 558 42 -7 q 50 761 42 653 q 141 765 83 764 q 289 767 199 767 q 281 519 281 628 q 315 205 281 306 q 419 104 349 104 q 515 143 467 104 q 597 246 563 182 q 595 492 596 356 q 594 774 594 629 q 720 772 651 774 q 833 768 789 771 q 833 540 833 656 q 831 319 832 425 q 829 131 831 214 q 826 3 828 49 q 714 -1 772 0 q 601 -3 656 -3 q 599 83 600 31 q 351 -7 479 -7 m 224 818 l 176 860 l 442 1107 l 707 860 l 660 818 l 442 947 l 224 818 z "},"ü":{"ha":875,"x_min":42,"x_max":833,"o":"m 351 -7 q 42 558 42 -7 q 50 761 42 653 q 141 765 83 764 q 289 767 199 767 q 281 519 281 628 q 315 205 281 306 q 419 104 349 104 q 515 143 467 104 q 597 246 563 182 q 595 492 596 356 q 594 774 594 629 q 720 772 651 774 q 833 768 789 771 q 833 540 833 656 q 831 319 832 425 q 829 131 831 214 q 826 3 828 49 q 714 -1 772 0 q 601 -3 656 -3 q 599 83 600 31 q 351 -7 479 -7 m 504 851 l 504 1051 l 671 1051 l 671 851 l 504 851 m 213 851 l 213 1051 l 379 1051 l 379 851 l 213 851 z "},"ù":{"ha":875,"x_min":42,"x_max":833,"o":"m 351 -7 q 42 558 42 -7 q 50 761 42 653 q 141 765 83 764 q 289 767 199 767 q 281 519 281 628 q 315 205 281 306 q 419 104 349 104 q 515 143 467 104 q 597 246 563 182 q 595 492 596 356 q 594 774 594 629 q 720 772 651 774 q 833 768 789 771 q 833 540 833 656 q 831 319 832 425 q 829 131 831 214 q 826 3 828 49 q 714 -1 772 0 q 601 -3 656 -3 q 599 83 600 31 q 351 -7 479 -7 m 628 829 l 233 954 l 319 1088 l 650 885 l 628 829 z "},"v":{"ha":861,"x_min":14,"x_max":847,"o":"m 321 -12 q 162 371 242 171 q 14 756 82 571 q 167 776 97 768 q 286 786 236 783 q 379 476 326 636 q 493 158 432 315 q 608 471 556 311 q 700 781 661 631 l 847 761 q 697 366 775 560 q 540 -1 619 172 q 430 -10 488 -7 q 321 -12 372 -12 z "},"w":{"ha":1144,"x_min":14,"x_max":1131,"o":"m 429 -4 q 224 4 324 -4 q 170 175 199 81 q 113 372 142 269 q 59 574 85 474 q 14 763 33 675 q 258 779 179 779 q 316 469 283 629 q 382 172 349 310 q 453 499 422 350 q 506 768 483 647 q 587 771 540 769 q 678 773 633 772 q 750 774 724 774 q 808 465 776 621 q 874 172 840 308 q 943 491 911 338 q 997 775 975 644 l 1131 767 q 1063 490 1099 628 q 990 227 1026 351 q 921 4 954 103 q 715 -4 853 -4 q 644 229 682 100 q 574 488 607 358 q 500 221 538 347 q 429 -4 463 94 z "},"x":{"ha":875,"x_min":14,"x_max":861,"o":"m 194 -4 l 42 4 q 161 167 88 69 q 319 371 235 264 q 14 756 163 578 q 108 769 54 763 q 214 780 161 775 q 300 786 267 785 q 379 686 335 744 q 474 563 424 628 q 568 678 522 622 q 654 779 614 733 l 819 763 q 699 624 768 706 q 556 451 631 542 q 683 274 621 361 q 792 118 744 188 q 861 11 839 49 q 734 -5 806 1 q 599 -11 663 -11 q 503 124 553 56 q 403 261 454 193 q 290 120 343 189 q 194 -4 236 51 z "},"y":{"ha":861,"x_min":14,"x_max":847,"o":"m 111 -183 l 97 -53 q 230 -34 171 -49 q 338 11 289 -19 q 219 260 279 128 q 106 520 160 392 q 14 756 53 649 q 139 772 64 764 q 286 786 214 781 q 378 529 321 679 q 501 214 435 379 q 589 446 547 307 q 679 781 631 585 l 847 761 q 705 334 779 511 q 544 44 631 157 q 350 -122 457 -68 q 111 -183 243 -176 z "},"ý":{"ha":861,"x_min":14,"x_max":847,"o":"m 111 -183 l 97 -53 q 230 -34 171 -49 q 338 11 289 -19 q 219 260 279 128 q 106 520 160 392 q 14 756 53 649 q 139 772 64 764 q 286 786 214 781 q 378 529 321 679 q 501 214 435 379 q 589 446 547 307 q 679 781 631 585 l 847 761 q 705 334 779 511 q 544 44 631 157 q 350 -122 457 -68 q 111 -183 243 -176 m 300 829 l 278 885 l 608 1088 l 694 954 l 300 829 z "},"ÿ":{"ha":861,"x_min":14,"x_max":847,"o":"m 111 -183 l 97 -53 q 230 -34 171 -49 q 338 11 289 -19 q 219 260 279 128 q 106 520 160 392 q 14 756 53 649 q 139 772 64 764 q 286 786 214 781 q 378 529 321 679 q 501 214 435 379 q 589 446 547 307 q 679 781 631 585 l 847 761 q 705 334 779 511 q 544 44 631 157 q 350 -122 457 -68 q 111 -183 243 -176 m 549 851 l 549 1051 l 715 1051 l 715 851 l 549 851 m 257 851 l 257 1051 l 424 1051 l 424 851 l 257 851 z "},"z":{"ha":847,"x_min":42,"x_max":806,"o":"m 806 -6 q 492 -4 640 -6 q 234 0 344 -3 q 68 6 124 3 l 42 143 q 151 249 90 186 q 277 384 211 311 q 406 531 343 457 q 518 669 468 604 q 357 666 442 669 q 195 657 272 663 q 63 646 118 651 l 53 778 q 281 777 169 778 q 488 774 392 776 q 656 769 583 772 q 765 764 728 767 l 794 629 q 651 463 732 554 q 483 278 569 371 q 315 103 396 185 q 574 110 444 103 q 797 126 703 117 l 806 -6 z "},"ž":{"ha":847,"x_min":42,"x_max":806,"o":"m 806 -6 q 492 -4 640 -6 q 234 0 344 -3 q 68 6 124 3 l 42 143 q 151 249 90 186 q 277 384 211 311 q 406 531 343 457 q 518 669 468 604 q 357 666 442 669 q 195 657 272 663 q 63 646 118 651 l 53 778 q 281 777 169 778 q 488 774 392 776 q 656 769 583 772 q 765 764 728 767 l 794 629 q 651 463 732 554 q 483 278 569 371 q 315 103 396 185 q 574 110 444 103 q 797 126 703 117 l 806 -6 m 424 818 l 158 1065 l 206 1107 l 424 978 l 642 1107 l 689 1065 l 424 818 z "},"ａ":{"ha":969,"x_min":69,"x_max":900,"o":"m 349 -24 q 203 3 267 -24 q 105 79 140 31 q 69 192 69 128 q 135 353 69 278 q 315 480 200 428 q 578 553 429 532 q 433 678 525 678 q 290 637 378 678 q 113 528 203 596 l 69 671 q 481 793 286 793 q 724 713 632 793 q 858 455 815 632 q 900 -12 900 278 q 802 -16 872 -14 q 650 -18 732 -18 q 649 72 650 29 q 349 -24 499 -24 m 310 201 q 346 132 310 158 q 442 106 382 106 q 644 194 546 106 q 611 450 635 346 q 500 413 554 439 q 403 352 446 388 q 335 278 360 317 q 310 201 310 239 z "},"ｂ":{"ha":925,"x_min":97,"x_max":856,"o":"m 340 -18 q 212 -16 276 -18 q 104 -12 147 -14 q 102 91 103 19 q 101 260 101 163 q 99 467 100 357 q 98 688 99 578 q 97 897 97 799 q 97 1068 97 996 q 176 1067 131 1068 q 269 1064 222 1065 q 349 1061 315 1063 q 349 913 349 997 q 347 733 349 828 q 532 793 436 793 q 698 741 625 793 q 813 599 771 689 q 856 396 856 510 q 811 184 856 279 q 692 33 767 89 q 524 -24 617 -24 q 342 26 438 -24 q 340 -18 342 -1 m 465 675 q 347 606 401 675 q 347 390 347 496 q 344 197 346 285 q 407 119 369 147 q 489 92 444 92 q 597 160 558 92 q 635 350 635 228 q 613 517 635 443 q 552 633 590 590 q 465 675 514 675 z "},"ｃ":{"ha":913,"x_min":69,"x_max":871,"o":"m 493 -22 q 330 10 407 -22 q 194 98 253 42 q 103 227 136 154 q 69 382 69 300 q 104 540 69 465 q 199 671 139 614 q 340 760 260 728 q 510 793 419 793 q 871 639 699 793 l 732 490 q 613 627 685 575 q 471 679 542 679 q 349 617 394 679 q 304 447 304 554 q 339 272 304 351 q 431 143 374 192 q 557 94 489 94 q 677 131 618 94 q 775 232 736 168 l 864 146 q 493 -22 692 -22 z "},"ｄ":{"ha":925,"x_min":69,"x_max":828,"o":"m 393 -21 q 228 31 301 -21 q 112 172 154 82 q 69 375 69 261 q 114 587 69 492 q 234 738 158 682 q 401 794 310 794 q 578 747 485 794 q 576 924 576 840 q 576 1069 576 1007 q 656 1068 610 1069 q 749 1065 703 1067 q 828 1063 796 1064 q 828 889 828 990 q 827 674 828 788 q 826 447 826 560 q 824 236 825 333 q 823 72 824 139 q 821 -17 822 6 q 692 -15 757 -17 q 585 -11 628 -12 q 583 42 585 8 q 393 -21 493 -21 m 290 421 q 313 254 290 328 q 373 138 335 181 q 460 96 411 96 q 582 171 526 96 q 580 362 581 256 q 578 579 579 468 q 517 653 554 626 q 436 679 479 679 q 328 611 367 679 q 290 421 290 543 z "},"ｅ":{"ha":956,"x_min":69,"x_max":886,"o":"m 485 -22 q 272 31 367 -22 q 124 177 178 85 q 69 386 69 269 q 123 594 69 503 q 269 740 176 686 q 479 793 363 793 q 678 745 590 793 q 820 611 765 697 q 886 410 875 525 l 307 303 q 394 152 335 210 q 528 94 454 94 q 663 142 596 94 q 767 261 731 189 l 871 175 q 699 29 800 81 q 485 -22 599 -22 m 288 444 q 288 429 288 436 l 628 475 q 568 623 618 567 q 446 679 518 679 q 330 617 372 679 q 288 444 288 556 z "},"ｆ":{"ha":693,"x_min":69,"x_max":624,"o":"m 178 -18 q 183 376 178 208 q 200 663 188 543 l 78 663 l 69 794 l 222 794 q 296 973 247 913 q 422 1057 344 1033 q 615 1086 500 1081 l 610 965 q 504 931 542 965 q 449 794 467 897 l 624 794 l 614 663 l 435 663 q 429 515 431 597 q 428 328 428 432 q 429 152 428 236 q 433 -12 431 68 q 303 -16 372 -14 q 178 -18 235 -18 z "},"ｇ":{"ha":954,"x_min":69,"x_max":857,"o":"m 199 -201 l 194 -87 q 392 -63 313 -82 q 519 -6 471 -44 q 592 99 567 33 q 383 35 496 35 q 219 79 290 35 q 109 203 149 124 q 69 386 69 282 q 114 592 69 500 q 234 738 158 683 q 401 793 310 793 q 500 779 447 793 q 604 740 553 765 q 601 776 603 757 q 723 781 667 779 q 851 782 779 782 q 856 670 854 726 q 857 564 857 614 q 840 245 857 378 q 779 26 822 113 q 661 -111 736 -61 q 473 -181 586 -161 q 199 -201 360 -201 m 289 435 q 339 242 289 314 q 471 171 389 171 q 622 294 582 171 q 624 365 624 326 q 617 550 624 442 q 542 638 590 604 q 442 671 494 671 q 330 608 371 671 q 289 435 289 546 z "},"ｈ":{"ha":968,"x_min":97,"x_max":899,"o":"m 340 -18 q 217 -16 285 -18 q 104 -12 150 -14 q 102 90 103 19 q 101 256 101 161 q 99 460 100 351 q 98 679 99 569 q 97 888 97 789 q 97 1061 97 986 q 174 1064 129 1063 q 267 1067 219 1065 q 347 1068 314 1068 q 347 912 347 1001 q 346 724 347 822 q 453 775 397 757 q 563 793 508 793 q 817 597 735 793 q 899 -12 899 400 q 805 -17 861 -15 q 647 -18 749 -18 q 494 678 647 678 q 417 641 457 678 q 346 546 376 604 q 344 354 344 447 q 342 184 343 261 q 341 53 342 107 q 340 -18 340 0 z "},"ｉ":{"ha":444,"x_min":97,"x_max":347,"o":"m 99 878 l 99 1072 l 346 1072 l 346 878 l 99 878 m 104 -18 q 101 110 103 29 q 99 295 100 190 q 98 520 99 400 q 97 767 97 640 q 234 765 163 767 q 347 761 306 764 q 347 542 347 657 q 345 319 346 426 q 343 124 344 211 q 340 -11 342 38 q 213 -16 274 -14 q 104 -18 151 -18 z "},"ｊ":{"ha":568,"x_min":42,"x_max":471,"o":"m 210 879 l 210 1072 l 458 1072 l 458 879 l 210 879 m 114 -201 l 42 -72 q 182 87 138 -32 q 226 424 226 206 q 223 569 226 485 q 211 761 219 654 q 328 765 265 764 q 463 767 390 767 q 471 504 471 615 q 434 135 471 282 q 319 -94 397 -12 q 114 -201 240 -176 z "},"ｋ":{"ha":969,"x_min":97,"x_max":928,"o":"m 104 -18 q 102 89 103 14 q 101 266 101 164 q 99 482 100 368 q 98 707 99 596 q 97 913 97 818 q 97 1068 97 1007 q 231 1066 163 1068 q 347 1061 299 1064 q 347 903 347 999 q 347 698 347 808 q 346 476 346 588 q 502 605 425 539 q 644 731 579 671 q 750 836 708 790 l 879 750 q 772 656 832 706 q 644 554 713 607 q 710 434 674 503 q 786 289 747 365 q 862 138 825 213 q 928 0 899 63 l 649 -29 q 557 211 604 94 q 464 422 510 328 q 344 342 404 381 q 342 122 343 218 q 340 -12 342 25 q 247 -17 301 -15 q 104 -18 192 -18 z "},"ｌ":{"ha":518,"x_min":97,"x_max":476,"o":"m 347 1068 q 343 908 344 988 q 342 761 342 828 q 355 391 342 535 q 398 171 368 247 q 476 69 428 94 l 374 -44 q 242 8 296 -35 q 157 134 189 50 q 111 354 125 218 q 97 688 97 490 q 99 867 97 769 q 104 1063 101 965 q 205 1067 147 1065 q 347 1068 263 1068 z "},"ｍ":{"ha":1349,"x_min":69,"x_max":1279,"o":"m 306 -18 q 226 -17 272 -18 q 136 -15 179 -17 q 69 -12 93 -14 q 70 326 69 167 q 73 603 71 485 q 76 782 75 722 q 185 781 122 782 q 297 776 247 779 q 300 694 299 747 q 540 793 421 793 q 647 767 603 793 q 722 683 692 742 q 974 793 838 793 q 1205 635 1131 793 q 1279 144 1279 476 q 1278 69 1279 106 q 1275 -10 1278 33 q 1165 -18 1233 -15 q 1024 -21 1097 -21 q 1031 108 1028 40 q 1033 243 1033 176 q 1006 573 1033 467 q 924 679 979 679 q 841 634 885 679 q 769 525 797 589 q 786 369 781 457 q 792 172 792 282 q 788 -12 792 78 q 714 -15 758 -14 q 622 -17 669 -17 q 538 -18 575 -18 q 544 145 542 58 q 546 311 546 232 q 538 528 546 447 q 511 644 529 608 q 461 679 493 679 q 377 634 422 679 q 303 521 332 589 q 305 273 304 411 q 306 -18 306 135 z "},"ｎ":{"ha":971,"x_min":69,"x_max":901,"o":"m 76 -18 q 74 108 75 28 q 72 296 72 189 q 70 526 71 403 q 69 782 69 650 q 148 781 101 782 q 242 779 194 781 q 319 776 289 778 q 319 703 319 740 q 572 793 443 793 q 763 711 690 793 q 868 451 835 629 q 901 -18 901 272 q 822 -17 868 -18 q 729 -15 775 -17 q 650 -12 683 -14 q 635 393 650 242 q 588 612 621 544 q 497 679 554 679 q 402 640 450 679 q 319 538 354 601 q 317 308 318 417 q 315 117 317 200 q 313 -12 314 33 q 202 -16 267 -14 q 76 -18 138 -18 z "},"ｏ":{"ha":985,"x_min":69,"x_max":915,"o":"m 481 -22 q 319 8 394 -22 q 188 93 244 39 q 101 219 132 147 q 69 374 69 290 q 103 537 69 461 q 197 670 138 613 q 335 760 256 728 q 503 793 414 793 q 664 763 589 793 q 795 678 739 732 q 883 552 851 624 q 915 397 915 481 q 881 234 915 310 q 788 101 847 158 q 649 10 728 43 q 481 -22 571 -22 m 522 93 q 644 158 600 93 q 688 339 688 224 q 658 513 688 436 q 577 633 628 589 q 461 678 526 678 q 340 613 383 678 q 296 431 296 547 q 326 258 296 335 q 407 138 356 182 q 522 93 458 93 z "},"ｐ":{"ha":925,"x_min":97,"x_max":856,"o":"m 340 -183 q 218 -181 286 -183 q 104 -178 150 -179 q 102 -59 103 -139 q 100 126 101 21 q 98 347 99 232 q 97 574 97 463 q 97 775 97 685 q 174 778 129 776 q 267 780 219 779 q 349 781 314 781 q 349 735 349 758 q 532 793 436 793 q 698 741 625 793 q 813 599 771 689 q 856 396 856 510 q 811 184 856 279 q 691 33 767 89 q 524 -24 615 -24 q 344 25 439 -24 q 342 -100 343 -46 q 340 -183 342 -154 m 465 675 q 349 606 401 675 q 348 400 349 507 q 346 193 347 293 q 408 117 371 144 q 489 90 446 90 q 597 159 558 90 q 635 350 635 228 q 613 517 635 443 q 552 633 590 590 q 465 675 514 675 z "},"ｑ":{"ha":925,"x_min":69,"x_max":828,"o":"m 393 -22 q 228 30 301 -22 q 112 172 154 82 q 69 374 69 261 q 95 538 69 461 q 166 672 121 614 q 272 762 211 729 q 401 794 332 794 q 583 744 488 794 q 585 782 585 767 q 701 781 633 782 q 821 776 768 779 q 823 681 822 744 q 824 531 824 617 q 826 351 825 446 q 827 160 826 256 q 828 -23 828 64 q 828 -176 828 -110 q 749 -179 796 -178 q 656 -181 703 -181 q 576 -182 610 -182 q 576 -81 576 -137 q 576 38 576 -25 q 393 -22 489 -22 m 290 419 q 313 253 290 326 q 373 137 335 179 q 460 94 411 94 q 578 165 524 94 q 579 378 578 271 q 581 574 581 485 q 519 651 557 622 q 436 679 481 679 q 328 611 367 679 q 290 419 290 543 z "},"ｒ":{"ha":904,"x_min":69,"x_max":835,"o":"m 313 -18 q 197 -16 261 -18 q 76 -12 132 -14 q 74 110 75 31 q 72 297 72 190 q 70 526 71 403 q 69 776 69 649 q 148 779 101 778 q 242 781 194 781 q 319 782 289 782 q 319 697 319 740 q 437 768 376 743 q 554 793 497 793 q 689 753 628 793 q 790 647 750 714 q 835 496 829 581 q 607 440 717 458 q 590 558 607 504 q 546 646 574 613 q 485 679 518 679 q 427 657 458 679 q 367 598 396 635 q 319 515 339 561 q 317 191 318 333 q 313 -18 315 49 z "},"ｓ":{"ha":940,"x_min":69,"x_max":871,"o":"m 486 -24 q 351 -14 426 -24 q 201 11 275 -4 q 69 43 126 26 l 133 215 q 256 156 188 183 q 389 111 324 128 q 501 94 454 94 q 593 122 564 94 q 622 182 622 150 q 590 243 622 218 q 507 288 558 268 q 394 325 456 307 q 287 360 340 342 q 189 403 233 378 q 117 464 144 429 q 90 549 90 499 q 137 668 90 613 q 269 758 183 724 q 474 793 356 793 q 668 769 569 793 q 849 700 767 744 l 767 564 q 611 645 686 613 q 469 678 536 678 q 372 651 406 678 q 339 594 339 624 q 365 550 339 568 q 435 519 392 532 q 531 493 479 506 q 647 462 588 479 q 758 417 707 444 q 840 348 808 390 q 871 243 871 306 q 821 106 871 167 q 684 11 771 46 q 486 -24 597 -24 z "},"ｔ":{"ha":722,"x_min":69,"x_max":653,"o":"m 243 -17 q 241 80 242 14 q 240 239 240 146 q 238 440 239 332 q 238 664 238 549 l 78 664 l 69 796 l 236 796 q 236 1069 236 942 q 317 1068 272 1069 q 406 1065 361 1067 q 486 1063 451 1064 q 486 796 486 939 l 653 796 l 644 664 l 485 664 q 484 444 485 551 q 483 244 483 336 q 481 86 482 153 q 479 -11 481 19 q 370 -15 431 -14 q 243 -17 310 -17 z "},"ｕ":{"ha":969,"x_min":69,"x_max":900,"o":"m 394 -22 q 69 560 69 -22 q 78 768 69 658 q 173 774 113 772 q 328 775 233 775 q 319 519 319 632 q 356 195 319 299 q 465 92 392 92 q 565 132 515 92 q 651 238 615 172 q 649 492 650 351 q 649 782 649 633 q 735 781 689 782 q 826 779 782 781 q 900 776 869 778 q 899 542 900 661 q 898 314 899 422 q 896 120 897 206 q 893 -12 894 35 q 775 -17 836 -15 q 657 -18 714 -18 q 654 71 656 17 q 394 -22 528 -22 z "},"ｖ":{"ha":958,"x_min":42,"x_max":917,"o":"m 364 -28 q 197 367 281 161 q 42 763 113 574 q 202 784 129 776 q 326 794 275 792 q 424 475 368 640 q 544 147 481 310 q 665 470 610 306 q 761 789 721 635 l 917 768 q 758 363 840 563 q 593 -17 676 163 q 477 -25 538 -22 q 364 -28 417 -28 z "},"ｗ":{"ha":1256,"x_min":42,"x_max":1214,"o":"m 476 -19 q 261 -11 365 -19 q 205 164 235 67 q 145 367 175 261 q 89 576 115 472 q 42 769 63 679 q 191 783 128 779 q 297 788 254 788 q 359 469 325 633 q 428 163 393 304 q 503 498 471 344 q 557 776 535 651 q 642 779 593 778 q 739 781 692 781 q 814 782 786 782 q 875 463 842 624 q 943 163 908 303 q 1017 490 983 332 q 1074 783 1050 649 l 1214 775 q 1142 489 1179 632 q 1066 218 1104 346 q 993 -11 1028 90 q 778 -19 922 -19 q 703 220 742 88 q 628 488 664 353 q 551 212 590 342 q 476 -19 513 82 z "},"ｘ":{"ha":972,"x_min":42,"x_max":931,"o":"m 231 -19 l 71 -11 q 196 156 118 56 q 363 367 274 257 q 42 763 197 579 q 140 776 83 769 q 252 788 197 782 q 342 794 307 793 q 425 691 378 751 q 524 564 472 631 q 624 682 575 625 q 714 786 672 739 l 888 769 q 761 626 833 710 q 610 449 689 542 q 744 267 679 357 q 858 106 808 178 q 931 -4 907 35 q 797 -20 872 -14 q 656 -26 722 -26 q 555 113 607 42 q 450 254 503 183 q 331 108 388 179 q 231 -19 275 38 z "},"ｙ":{"ha":958,"x_min":42,"x_max":917,"o":"m 143 -204 l 129 -69 q 269 -50 207 -65 q 381 -4 331 -35 q 257 253 319 117 q 138 521 194 389 q 42 763 82 653 q 172 781 94 772 q 326 794 250 789 q 422 531 363 685 q 554 204 482 376 q 645 444 601 301 q 739 789 689 586 l 917 768 q 767 328 846 510 q 597 31 689 146 q 394 -141 506 -85 q 143 -204 282 -197 z "},"ｚ":{"ha":940,"x_min":69,"x_max":871,"o":"m 871 -21 q 542 -19 697 -21 q 270 -15 386 -18 q 96 -10 154 -12 l 69 132 q 183 240 119 176 q 316 379 247 304 q 450 530 385 454 q 568 674 515 606 q 400 670 489 674 q 230 661 311 667 q 90 650 149 656 l 81 786 q 319 785 203 786 q 535 781 435 783 q 712 776 636 779 q 828 771 788 774 l 858 632 q 708 461 793 556 q 531 270 622 367 q 356 90 440 174 q 627 97 492 90 q 861 114 763 104 l 871 -21 z "},"ﬁ":{"ha":961,"x_min":42,"x_max":892,"o":"m 146 -3 q 150 379 146 217 q 168 658 154 542 l 50 658 l 42 786 l 188 786 q 258 959 213 900 q 378 1041 304 1018 q 563 1069 453 1064 l 557 951 q 456 918 492 951 q 404 786 421 885 l 569 786 l 561 658 l 390 658 q 385 515 386 596 q 383 333 383 435 q 385 163 383 244 q 389 3 386 81 q 265 -1 331 1 q 146 -3 200 -3 m 654 868 l 654 1056 l 890 1056 l 890 868 l 654 868 m 660 -3 q 657 122 658 43 q 655 302 656 200 q 653 521 654 404 q 653 760 653 638 q 784 758 715 760 q 892 754 853 757 q 891 542 892 653 q 890 326 890 431 q 888 136 889 221 q 885 3 886 51 q 763 -1 821 0 q 660 -3 704 -3 z "},"ﬂ":{"ha":1056,"x_min":42,"x_max":1042,"o":"m 146 -3 q 150 379 146 217 q 168 658 154 542 l 50 658 l 42 786 l 188 786 q 258 959 213 900 q 378 1041 304 1018 q 563 1069 453 1064 l 557 951 q 456 918 492 951 q 404 786 421 885 l 569 786 l 561 658 l 390 658 q 385 515 386 596 q 383 333 383 435 q 385 163 383 244 q 389 3 386 81 q 265 -1 331 1 q 146 -3 200 -3 m 919 1051 q 915 896 917 972 q 914 754 914 819 q 927 395 914 535 q 968 181 940 256 q 1042 83 996 107 l 944 -28 q 819 22 869 -19 q 738 145 768 63 q 694 360 707 228 q 681 682 681 492 q 683 855 681 761 q 688 1046 685 949 q 783 1050 728 1049 q 919 1051 839 1051 z "},"ª":{"ha":654,"x_min":71,"x_max":585,"o":"m 243 579 q 119 617 167 579 q 71 714 71 654 q 111 815 71 768 q 222 896 151 863 q 385 942 293 929 q 296 1021 353 1021 q 207 995 261 1021 q 97 926 153 969 l 71 1017 q 325 1093 204 1093 q 475 1042 418 1093 q 558 880 532 992 q 585 585 585 768 q 524 583 567 583 q 429 582 481 582 q 429 638 429 611 q 243 579 336 579 m 219 721 q 242 676 219 693 q 300 660 264 660 q 425 715 365 660 q 404 878 419 813 q 316 844 358 869 q 247 785 274 818 q 219 721 219 751 z "},"º":{"ha":663,"x_min":71,"x_max":594,"o":"m 325 579 q 197 613 254 579 q 105 703 139 646 q 71 829 71 760 q 107 963 71 903 q 204 1058 143 1022 q 339 1093 265 1093 q 469 1060 411 1093 q 560 970 526 1026 q 594 843 594 914 q 558 710 594 771 q 460 615 521 650 q 325 579 399 579 m 351 651 q 426 693 400 651 q 453 807 453 735 q 413 960 453 899 q 313 1021 374 1021 q 238 980 265 1021 q 211 865 211 939 q 251 713 211 774 q 351 651 292 651 z "},"Δ":{"ha":1056,"x_min":21,"x_max":1035,"o":"m 53 -19 q 33 37 43 -7 q 21 119 24 81 q 106 367 57 235 q 226 668 156 500 q 394 1056 297 836 q 646 1069 492 1069 q 824 616 726 879 q 1035 14 921 353 q 939 3 1008 8 q 769 -6 869 -1 q 549 -12 668 -10 q 302 -17 429 -15 q 53 -19 175 -19 m 446 907 q 374 713 411 818 q 300 497 336 607 q 233 282 264 386 q 182 92 203 178 q 341 95 251 92 q 524 105 431 99 q 697 118 617 111 q 622 375 664 238 q 535 650 581 513 q 446 907 489 788 z "},"Π":{"ha":1111,"x_min":42,"x_max":1069,"o":"m 393 -4 q 242 -3 303 -4 q 129 1 182 -1 q 142 418 138 183 q 146 919 146 653 q 46 921 68 919 l 42 1038 q 217 1042 117 1040 q 430 1046 317 1044 q 658 1049 543 1047 q 880 1051 774 1050 q 1069 1051 986 1051 l 1064 913 q 965 913 1024 913 q 967 340 965 567 q 974 1 969 113 q 860 -3 922 -1 q 708 -4 799 -4 q 718 914 708 626 q 386 917 550 915 q 392 574 390 796 q 393 -4 393 351 z "},"Σ":{"ha":896,"x_min":42,"x_max":854,"o":"m 825 1058 l 836 907 l 308 925 q 382 851 339 897 q 472 750 425 804 q 558 644 518 696 q 624 554 599 592 q 563 469 603 521 q 472 358 524 418 q 365 236 421 297 q 257 122 310 175 l 854 142 l 849 -10 q 719 -4 796 -7 q 553 1 642 -1 q 374 6 464 4 q 201 8 283 7 q 56 10 118 10 q 42 125 42 65 q 192 253 122 192 q 315 366 263 315 q 393 447 368 417 q 317 537 363 488 q 224 636 272 586 q 131 728 175 686 q 58 792 88 769 q 63 842 58 810 q 73 913 67 875 q 87 985 79 951 q 100 1039 94 1019 q 355 1041 225 1039 q 606 1048 485 1043 q 825 1058 726 1053 z "},"Ω":{"ha":1097,"x_min":42,"x_max":1056,"o":"m 42 -4 q 46 81 42 38 q 58 157 50 124 q 286 100 124 121 l 300 164 q 115 338 183 225 q 47 593 47 451 q 85 788 47 699 q 190 942 122 876 q 348 1043 257 1007 q 547 1079 439 1079 q 747 1043 656 1079 q 906 942 839 1007 q 1010 788 974 876 q 1047 593 1047 699 q 983 344 1047 454 q 808 171 919 233 l 815 93 q 900 100 856 94 q 985 114 944 106 q 1050 131 1025 122 q 1054 67 1053 107 q 1056 -10 1056 26 l 614 6 l 635 231 q 756 341 713 256 q 800 549 800 426 q 763 759 800 665 q 661 908 725 853 q 518 963 597 963 q 401 922 451 963 q 322 808 350 881 q 294 636 294 735 q 340 409 294 511 q 461 258 385 307 l 471 8 l 42 -4 z "},"μ":{"ha":950,"x_min":69,"x_max":908,"o":"m 69 -161 q 72 28 69 -78 q 76 249 74 135 q 83 468 79 363 q 92 656 88 574 q 100 782 96 739 l 307 775 q 342 274 307 446 q 442 103 376 103 q 540 272 507 103 q 574 775 574 442 l 782 782 q 815 304 782 493 q 908 58 849 115 l 806 -28 l 701 92 q 606 9 663 39 q 488 -21 550 -21 q 381 -3 436 -21 q 297 38 325 14 l 304 -171 l 69 -161 z "},"π":{"ha":1014,"x_min":42,"x_max":972,"o":"m 89 4 q 106 197 99 88 q 117 426 113 307 q 125 656 122 544 q 42 656 83 656 l 47 790 q 267 786 133 788 q 564 784 401 785 q 899 783 726 783 l 903 667 q 788 664 849 665 q 775 410 775 556 q 783 220 775 290 q 812 120 792 150 q 865 90 832 90 q 908 95 881 90 q 943 104 936 100 l 972 11 q 891 -12 942 -3 q 797 -21 840 -21 q 603 92 663 -21 q 543 460 543 206 q 545 560 543 508 q 551 658 547 613 q 350 657 454 657 q 344 451 349 553 q 333 260 339 350 q 318 101 326 169 q 300 -4 310 33 q 168 -2 224 -4 q 89 4 113 0 z "},"〆":{"ha":1389,"x_min":78,"x_max":1311,"o":"m 308 -51 l 181 -22 q 128 130 151 49 q 91 290 104 211 q 78 428 78 368 q 110 601 78 521 q 199 742 142 682 q 331 837 256 803 q 494 871 407 871 q 631 851 560 871 q 775 793 703 831 q 959 968 868 888 q 1128 1107 1050 1049 l 1311 949 q 1153 811 1236 886 q 982 653 1069 736 q 1160 468 1079 571 q 1289 253 1240 365 q 1159 167 1229 215 q 996 50 1089 118 q 890 248 953 150 q 756 429 826 346 q 528 192 642 314 q 308 -51 415 71 m 204 438 q 217 321 204 390 q 249 192 229 251 q 397 383 310 278 q 583 596 483 488 q 478 662 529 638 q 386 686 428 686 q 295 652 336 686 q 229 562 254 618 q 204 438 204 506 z "},"々":{"ha":1389,"x_min":82,"x_max":1307,"o":"m 190 328 l 82 417 q 340 760 214 582 q 585 1131 467 939 l 840 983 q 729 857 786 919 l 1260 819 l 1307 721 q 1146 510 1236 614 q 932 290 1056 407 q 1013 210 975 250 q 1079 133 1050 171 l 814 -75 q 680 119 743 35 q 556 270 617 204 q 432 392 496 336 l 624 539 q 797 410 710 481 q 982 707 918 571 l 635 753 q 190 328 414 518 z "},"〻":{"ha":1389,"x_min":358,"x_max":975,"o":"m 396 913 l 617 1053 q 700 984 650 1031 q 803 878 750 938 q 902 756 856 818 q 975 640 949 693 q 860 593 929 624 q 719 527 790 563 q 596 458 649 492 q 691 358 633 410 q 816 256 749 306 q 950 165 883 207 q 892 98 932 138 q 803 21 851 58 q 711 -39 756 -17 q 623 51 672 -3 q 523 169 574 106 q 429 295 472 232 q 358 413 386 358 q 456 499 401 454 q 570 585 511 544 q 682 656 629 626 q 611 740 656 694 q 511 832 567 786 q 396 913 456 878 z "},"一":{"ha":1389,"x_min":69,"x_max":1319,"o":"m 610 383 q 307 388 438 383 q 81 401 176 392 l 69 603 q 151 601 101 601 q 258 600 200 600 q 624 609 438 600 q 985 635 811 618 q 1300 672 1160 651 l 1319 411 q 1017 390 1196 397 q 610 383 838 383 z "},"七":{"ha":1389,"x_min":60,"x_max":1329,"o":"m 71 554 l 60 692 q 324 697 193 692 q 328 815 325 749 q 336 950 331 881 q 349 1081 342 1019 l 707 1067 q 671 726 682 847 q 991 777 838 746 q 1282 850 1144 808 l 1329 665 q 1047 618 1217 639 q 661 582 878 597 q 660 519 660 549 q 737 206 660 307 q 978 106 814 106 q 1132 121 1047 106 q 1283 161 1217 136 l 1304 13 q 1209 -6 1269 3 q 1081 -19 1149 -14 q 957 -24 1014 -24 q 511 126 671 -24 q 328 564 351 275 q 71 554 204 558 z "},"万":{"ha":1389,"x_min":94,"x_max":1294,"o":"m 296 -46 l 136 17 q 265 344 204 175 q 374 673 326 513 q 449 965 421 833 l 94 960 l 100 1101 l 1290 1082 l 1294 979 l 792 971 q 755 866 778 926 q 703 738 732 806 l 1200 732 q 1194 501 1200 626 q 1175 241 1188 375 q 1146 -22 1163 107 l 671 4 l 678 110 l 867 117 q 910 392 896 276 q 931 610 925 508 l 658 635 q 567 441 615 540 q 469 249 518 342 q 376 81 421 157 q 296 -46 332 4 z "},"三":{"ha":1389,"x_min":96,"x_max":1293,"o":"m 678 861 q 428 865 554 861 q 179 876 303 869 l 185 1015 q 397 1011 289 1011 q 792 1026 599 1011 q 1164 1067 986 1040 l 1182 882 q 944 867 1074 872 q 678 861 815 861 m 536 449 q 226 453 356 449 l 240 629 q 470 613 332 619 q 764 607 608 607 q 990 611 892 607 q 1150 622 1088 615 l 1158 463 q 1056 457 1124 460 q 902 452 989 454 q 721 449 815 450 q 536 449 626 449 m 1278 -11 q 949 12 1114 4 q 628 19 785 19 q 352 13 483 19 q 107 -7 221 7 l 96 144 q 555 178 328 167 q 986 190 782 190 q 1293 182 1154 190 l 1278 -11 z "},"上":{"ha":1389,"x_min":63,"x_max":1326,"o":"m 1311 -79 q 1010 -52 1171 -61 q 683 -43 849 -43 q 374 -51 528 -43 q 75 -74 221 -58 l 63 51 q 278 63 161 57 q 525 72 396 68 q 517 361 524 211 q 498 653 510 511 q 472 911 486 794 q 440 1099 457 1028 l 807 1136 q 811 1031 810 1088 q 813 904 813 974 q 811 703 813 807 q 1036 713 911 710 q 1276 717 1161 717 l 1261 558 q 1073 576 1190 569 q 807 585 956 582 q 796 307 803 439 q 779 79 789 175 q 1057 85 918 83 q 1326 86 1196 86 l 1311 -79 z "},"下":{"ha":1389,"x_min":65,"x_max":1324,"o":"m 501 -69 q 493 90 496 4 q 490 265 490 176 q 496 522 490 393 q 512 765 501 650 q 536 971 522 881 q 86 922 315 954 l 65 1081 q 230 1094 132 1088 q 447 1104 328 1100 q 694 1111 565 1108 q 949 1114 822 1114 q 1160 1112 1065 1114 q 1324 1106 1256 1110 l 1313 979 q 1013 992 1179 992 q 797 988 910 992 q 793 821 794 889 q 792 690 792 753 q 792 686 792 688 l 903 808 q 1009 747 953 782 q 1120 673 1065 711 q 1219 599 1175 635 q 1286 538 1263 564 l 1119 361 q 1051 424 1092 389 q 965 494 1011 458 q 873 563 918 531 q 792 619 828 596 q 838 -56 796 275 l 501 -69 z "},"中":{"ha":1389,"x_min":92,"x_max":1297,"o":"m 92 283 q 96 645 92 496 q 107 892 100 794 l 560 889 l 568 1143 l 821 1147 l 829 888 l 1283 885 q 1288 780 1286 847 q 1292 629 1290 713 q 1296 458 1294 546 q 1297 292 1297 369 l 849 289 l 861 -89 l 528 -85 l 540 286 l 92 283 m 353 397 l 543 399 l 556 776 l 344 779 q 345 688 344 742 q 347 577 346 633 q 350 473 349 521 q 353 397 351 425 m 1046 772 l 833 775 l 846 401 l 1036 403 q 1041 526 1039 457 q 1044 661 1043 594 q 1046 772 1046 728 z "},"丸":{"ha":1389,"x_min":53,"x_max":1336,"o":"m 165 -89 l 53 -1 q 282 417 183 194 q 146 551 214 496 l 201 615 q 336 550 267 590 q 410 769 378 658 l 115 779 l 128 871 l 439 876 q 492 1144 472 1010 l 758 1075 q 711 881 744 988 l 1071 888 q 1088 518 1071 674 q 1135 276 1104 363 q 1208 185 1165 190 l 1258 322 l 1336 297 l 1249 -89 q 997 33 1093 -61 q 858 304 901 128 q 814 756 814 481 l 668 761 q 517 425 606 596 q 683 261 607 350 q 807 82 760 172 l 569 -72 q 500 88 540 8 q 413 242 460 168 q 290 60 353 144 q 165 -89 226 -25 z "},"九":{"ha":1389,"x_min":53,"x_max":1336,"o":"m 174 -78 l 53 3 q 219 360 146 175 q 342 724 293 546 l 93 729 l 100 829 l 369 835 q 417 1133 406 996 l 725 1099 q 703 972 717 1038 q 669 840 689 907 l 1058 849 q 1045 738 1050 796 q 1040 619 1040 679 q 1088 319 1040 432 q 1218 200 1136 206 l 1268 314 l 1336 288 l 1293 -75 q 998 1 1113 -62 q 829 186 883 64 q 775 496 775 308 q 778 595 775 542 q 790 715 782 649 l 631 718 q 506 418 578 567 q 348 141 433 269 q 174 -78 263 13 z "},"二":{"ha":1389,"x_min":75,"x_max":1314,"o":"m 706 757 q 456 764 583 757 q 199 785 328 771 l 206 932 q 317 928 264 929 q 422 926 371 926 q 808 944 632 926 q 1156 1001 983 963 l 1190 792 q 967 766 1089 775 q 706 757 844 757 m 122 54 l 75 257 q 363 288 211 278 q 672 299 515 299 q 1001 288 838 299 q 1314 253 1164 276 l 1304 103 q 1126 110 1215 108 q 953 113 1038 113 q 527 98 729 113 q 122 54 325 83 z "},"五":{"ha":1389,"x_min":72,"x_max":1317,"o":"m 78 -19 l 72 79 q 293 97 174 89 q 326 285 303 172 q 379 517 350 397 q 228 494 297 507 l 215 643 q 413 651 318 647 q 454 808 433 735 q 493 936 475 882 q 324 940 400 938 q 183 946 247 942 l 196 1075 q 435 1053 310 1063 q 690 1040 561 1044 q 940 1035 819 1035 q 1049 1036 994 1035 q 1156 1039 1104 1038 l 1156 939 q 1015 935 1101 936 q 806 933 929 933 q 731 933 767 933 q 703 799 717 868 q 675 660 689 731 q 899 665 789 664 q 1114 667 1008 667 q 1140 424 1131 564 q 1151 139 1150 285 q 1317 142 1235 140 l 1310 -7 q 1080 -1 1203 -3 q 828 1 957 1 q 432 -3 622 1 q 78 -19 242 -8 m 869 561 q 654 546 758 554 q 618 317 635 428 q 590 117 601 207 q 869 129 726 124 q 872 251 871 190 q 874 367 874 313 q 869 561 874 465 z "},"交":{"ha":1389,"x_min":69,"x_max":1319,"o":"m 147 363 l 69 428 l 397 849 l 101 851 l 110 956 l 563 960 l 549 1139 l 842 1142 l 828 961 l 1279 965 l 1288 840 l 951 843 l 1319 578 l 1165 382 l 776 747 l 899 844 l 447 849 l 586 717 l 147 363 m 156 -82 l 75 0 q 310 162 197 79 q 521 324 424 244 q 364 465 439 394 l 444 546 q 651 436 536 493 q 817 604 754 529 l 1015 447 q 950 390 986 419 q 874 331 914 361 q 1083 239 975 285 q 1304 150 1192 193 l 1099 -85 q 890 44 997 -28 q 678 196 783 115 q 495 85 589 138 q 315 -11 401 32 q 156 -82 228 -54 z "},"京":{"ha":1389,"x_min":74,"x_max":1315,"o":"m 100 824 l 93 943 l 564 939 l 550 1150 l 839 1142 l 825 936 l 1296 932 l 1289 843 l 100 824 m 274 343 l 242 756 l 1149 744 l 1115 353 l 808 349 l 826 -94 l 422 -76 l 426 15 l 564 22 l 579 347 l 274 343 m 886 439 l 899 660 l 494 654 l 504 443 l 886 439 m 256 -64 l 74 3 l 165 317 l 436 244 l 256 -64 m 1058 -60 l 961 261 l 1165 315 l 1315 26 l 1058 -60 z "},"人":{"ha":1389,"x_min":47,"x_max":1342,"o":"m 163 -64 l 47 26 q 291 363 188 183 q 456 736 394 543 q 529 1121 517 929 l 839 1088 q 740 665 828 872 q 999 422 850 543 q 1342 175 1147 300 l 1097 -51 q 988 53 1047 -10 q 867 190 928 115 q 749 343 806 265 q 650 492 693 421 q 163 -64 482 208 z "},"今":{"ha":1389,"x_min":25,"x_max":1364,"o":"m 954 540 l 282 547 l 278 629 q 147 474 201 542 l 25 574 q 183 726 96 644 q 365 892 271 808 q 550 1051 460 975 q 715 1186 640 1128 q 867 1074 782 1140 q 1041 933 951 1008 q 1215 783 1131 858 q 1364 642 1299 707 l 1129 451 q 958 636 1050 544 l 954 540 m 583 960 q 435 804 510 885 q 293 647 361 724 l 903 689 q 583 960 763 822 m 792 -131 l 569 -46 q 643 43 603 -7 q 724 146 683 93 q 799 244 765 199 q 851 319 832 290 l 171 297 l 161 421 l 1192 415 l 1207 336 q 1126 228 1176 290 q 1016 100 1075 167 q 899 -27 957 33 q 792 -131 840 -87 z "},"休":{"ha":1389,"x_min":33,"x_max":1356,"o":"m 185 -75 l 206 560 q 131 436 164 494 l 33 475 q 83 588 50 515 q 157 751 115 660 q 245 944 199 843 q 338 1140 292 1044 l 532 1033 q 481 968 508 1006 q 422 886 453 931 l 728 896 l 739 1138 l 922 1133 l 932 901 l 1297 913 l 1297 785 l 1079 783 q 1206 519 1135 679 q 1356 163 1276 358 l 1132 56 q 1073 249 1106 143 q 1006 460 1040 356 q 943 650 972 565 l 975 -78 l 685 -86 l 718 657 l 493 111 l 418 144 l 431 -64 l 185 -75 m 408 779 l 403 858 q 267 657 335 763 l 388 664 l 415 193 l 611 781 l 408 779 z "},"会":{"ha":1389,"x_min":28,"x_max":1361,"o":"m 153 460 l 28 564 q 319 855 164 708 q 672 1171 475 1001 q 1031 938 858 1061 q 1361 679 1204 815 l 1114 469 q 933 642 1040 546 l 940 532 l 268 539 l 272 619 q 153 460 217 547 m 556 949 q 416 794 483 872 q 276 625 349 717 l 894 675 q 731 812 818 742 q 556 949 644 882 m 260 -96 l 235 -26 l 338 279 l 122 264 l 111 401 l 1210 432 l 1206 340 l 614 299 l 494 3 l 889 65 l 846 226 l 1078 278 l 1200 -85 l 936 -114 l 917 -42 q 703 -68 817 -57 q 475 -87 589 -79 q 260 -96 361 -94 z "},"体":{"ha":1389,"x_min":22,"x_max":1367,"o":"m 196 -67 l 224 601 q 110 450 161 519 l 22 500 q 115 691 60 586 q 238 910 171 796 q 378 1135 306 1024 l 571 1018 q 516 958 546 992 q 453 883 486 924 l 718 888 l 729 1131 l 899 1128 l 908 889 l 1257 893 l 1271 807 l 1072 793 q 1188 585 1131 694 q 1293 376 1246 475 q 1367 204 1340 276 l 1161 107 q 1126 197 1144 149 q 1085 296 1107 244 l 1076 179 l 936 181 l 946 -72 l 676 -78 l 688 185 l 550 186 l 540 285 l 693 296 l 708 651 l 454 121 l 408 146 l 401 -64 l 196 -67 m 421 750 l 417 840 q 265 654 342 751 l 425 643 l 413 257 l 603 763 l 421 750 m 915 696 l 931 313 l 1075 322 q 993 517 1035 419 q 915 696 951 615 z "},"何":{"ha":1389,"x_min":43,"x_max":1346,"o":"m 463 -96 l 221 -93 l 251 613 q 118 497 181 546 l 43 546 q 136 676 86 600 q 235 838 186 753 q 326 1006 285 924 q 392 1151 367 1088 l 614 1035 q 509 888 581 975 q 353 713 438 800 l 435 710 l 463 -96 m 617 892 l 611 967 l 1336 1017 l 1346 894 l 1244 894 l 1297 -78 l 858 -58 l 864 8 l 1053 24 l 1025 893 l 617 892 m 528 168 l 507 785 l 982 776 l 963 194 l 528 168 m 794 244 l 778 721 l 693 715 l 715 251 l 794 244 z "},"作":{"ha":1389,"x_min":40,"x_max":1349,"o":"m 590 460 l 503 510 q 583 686 543 594 q 660 867 624 778 q 724 1033 696 956 q 768 1165 751 1110 l 1017 1092 q 892 869 963 985 l 1349 890 l 1340 760 l 1097 776 l 1097 578 l 1329 596 l 1324 472 l 1097 479 l 1097 318 l 1340 307 l 1318 181 l 1097 224 l 1097 -103 l 825 -97 l 878 792 l 843 794 q 719 620 783 706 q 590 460 656 535 m 250 -106 l 276 625 q 194 522 232 572 q 128 431 156 472 l 40 481 q 118 644 74 554 q 210 825 163 733 q 303 999 257 917 q 385 1143 349 1082 l 608 996 q 482 863 549 936 q 350 715 415 790 l 467 717 l 513 -106 l 250 -106 z "},"元":{"ha":1389,"x_min":61,"x_max":1328,"o":"m 204 972 l 222 1113 q 469 1098 336 1103 q 742 1093 603 1093 q 987 1097 875 1093 q 1179 1110 1099 1101 l 1185 1000 q 782 979 1036 986 q 204 972 528 972 m 188 -57 l 61 22 q 189 233 131 124 q 289 444 247 342 q 349 624 331 546 q 100 607 226 617 l 96 718 q 273 736 168 728 q 503 751 378 744 q 765 764 629 758 q 1034 772 900 769 q 1286 775 1168 775 l 1293 622 q 1153 630 1228 626 q 997 635 1079 633 q 988 476 992 560 q 980 311 983 392 q 974 167 976 231 q 972 68 972 103 l 1049 71 q 1083 137 1063 94 q 1123 227 1103 179 q 1158 316 1143 275 q 1178 376 1174 357 l 1328 361 q 1319 265 1326 324 q 1303 146 1313 207 q 1285 37 1294 85 q 1269 -28 1276 -11 q 1183 -26 1238 -28 q 1064 -23 1128 -25 q 937 -19 1000 -21 q 823 -14 874 -17 q 746 -8 772 -11 q 722 191 731 61 q 713 476 713 321 q 715 636 713 561 q 654 635 685 635 q 603 502 638 575 q 520 351 568 429 q 417 197 472 272 q 302 56 361 121 q 188 -57 243 -10 z "},"兄":{"ha":1389,"x_min":67,"x_max":1322,"o":"m 188 -69 l 67 1 q 186 202 131 101 q 281 388 242 303 q 338 526 321 474 l 176 525 l 196 1125 l 1201 1118 l 1201 533 l 974 532 q 976 357 974 447 q 981 190 978 267 q 989 72 985 114 l 1046 79 q 1074 139 1057 99 q 1108 227 1090 179 q 1140 322 1125 275 q 1161 400 1154 368 l 1322 374 q 1313 283 1321 335 q 1292 178 1304 232 q 1267 77 1281 124 q 1240 0 1253 31 q 1119 -10 1189 -6 q 979 -19 1050 -15 q 848 -26 908 -24 q 753 -29 788 -29 q 732 76 743 8 q 711 226 721 144 q 695 387 701 307 q 686 529 689 467 l 650 529 q 595 413 632 478 q 509 278 558 347 q 404 142 460 208 q 293 21 349 76 q 188 -69 238 -35 m 935 622 l 921 1029 l 469 1021 l 456 629 l 935 622 z "},"先":{"ha":1389,"x_min":75,"x_max":1314,"o":"m 218 -76 l 114 1 q 279 256 207 135 q 390 464 351 378 q 86 438 235 453 l 75 564 q 330 573 206 569 q 571 579 454 576 l 576 782 l 338 788 l 197 607 l 92 661 l 263 1132 l 517 1017 l 404 872 l 579 876 l 588 1118 l 872 1110 l 849 881 l 1182 886 l 1168 771 l 838 778 l 818 583 q 954 583 888 583 q 1079 583 1013 583 q 1208 583 1146 583 q 1311 581 1269 582 l 1314 497 q 972 493 1142 497 q 980 324 975 410 q 991 162 985 239 q 1003 29 997 85 l 1068 32 q 1101 126 1085 67 q 1131 249 1118 185 q 1149 361 1144 313 l 1300 339 q 1294 114 1300 219 q 1278 -62 1289 8 q 1040 -57 1151 -62 q 843 -42 928 -51 q 711 -19 758 -33 q 713 90 711 26 q 718 224 715 154 q 726 363 721 294 q 736 485 731 431 q 692 483 714 483 q 635 383 675 442 q 543 259 596 325 q 433 128 490 193 q 319 10 375 64 q 218 -76 264 -43 z "},"光":{"ha":1389,"x_min":83,"x_max":1306,"o":"m 201 -68 l 113 4 q 270 244 196 115 q 389 486 344 372 q 238 487 315 486 q 96 489 161 488 l 83 610 q 333 603 204 606 q 590 600 461 600 l 565 1118 l 839 1124 l 811 600 q 1053 604 940 601 q 1278 611 1167 607 l 1272 517 q 972 497 1124 504 q 982 338 976 422 q 994 176 988 254 q 1008 43 1001 99 l 1057 47 q 1081 106 1067 67 q 1109 191 1094 144 q 1135 278 1124 238 q 1149 338 1146 318 l 1306 321 q 1301 234 1306 283 q 1287 132 1296 185 q 1267 32 1278 79 q 1243 -47 1256 -15 q 1147 -45 1207 -47 q 1017 -40 1088 -43 q 875 -32 946 -36 q 746 -24 804 -28 q 735 120 740 33 q 726 305 729 207 q 722 489 724 403 q 681 488 701 489 q 603 351 654 426 q 485 199 551 276 q 346 53 419 122 q 201 -68 272 -17 m 1017 665 l 879 731 l 1025 1094 l 1278 976 l 1017 665 m 369 654 l 110 947 l 369 1089 l 499 719 l 369 654 z "},"入":{"ha":1389,"x_min":47,"x_max":1342,"o":"m 183 -68 l 47 13 q 191 172 119 83 q 326 354 263 260 q 439 539 390 449 q 515 706 488 629 q 407 1069 450 876 l 556 1125 q 683 854 621 972 q 809 642 744 736 q 950 469 874 549 q 1122 317 1026 390 q 1342 165 1218 243 l 1069 -61 q 844 138 949 19 q 656 406 740 256 q 517 232 594 318 q 353 68 439 146 q 183 -68 268 -10 z "},"八":{"ha":1389,"x_min":17,"x_max":1372,"o":"m 1051 -11 q 957 194 1003 79 q 872 443 911 310 q 801 719 832 576 q 751 1003 771 861 l 936 1067 q 1152 564 1046 767 q 1372 233 1258 361 l 1051 -11 m 165 15 l 17 101 q 113 297 65 183 q 201 538 160 410 q 272 790 242 665 q 315 1021 303 915 l 586 956 q 535 737 574 857 q 439 489 496 617 q 312 239 382 361 q 165 15 242 117 z "},"公":{"ha":1389,"x_min":18,"x_max":1371,"o":"m 1108 481 q 1031 613 1076 539 q 933 765 985 688 q 831 912 882 843 q 740 1029 781 981 l 931 1139 q 1084 999 1004 1078 q 1239 837 1164 919 q 1371 681 1314 754 l 1108 481 m 181 454 l 18 560 q 173 824 81 688 q 393 1114 265 961 l 603 1004 q 490 876 549 947 q 373 731 431 806 q 265 584 315 656 q 181 454 215 513 m 242 -15 l 218 51 q 276 219 236 118 q 376 445 317 319 q 510 711 436 571 l 797 664 q 714 530 758 604 q 626 378 669 456 q 546 228 583 301 q 482 97 508 156 l 882 172 q 856 299 871 236 q 826 415 842 361 l 1035 453 q 1081 318 1058 389 q 1124 179 1104 247 q 1157 53 1143 111 q 1175 -44 1171 -6 l 919 -82 q 904 46 914 -24 q 620 9 788 25 q 242 -15 453 -7 z "},"六":{"ha":1389,"x_min":76,"x_max":1315,"o":"m 1301 696 l 85 707 l 76 826 l 561 831 l 539 1118 l 850 1126 l 829 833 l 1313 838 l 1301 696 m 1054 -57 q 974 138 1019 38 q 881 334 929 239 q 788 503 833 429 l 978 611 q 1315 151 1129 464 l 1054 -57 m 239 -56 l 90 47 q 143 191 111 113 q 211 348 175 269 q 283 494 247 426 q 347 606 318 563 l 619 461 q 555 381 597 435 q 460 255 513 326 q 350 103 407 183 q 239 -56 293 22 z "},"内":{"ha":1389,"x_min":83,"x_max":1306,"o":"m 103 -85 q 95 140 99 17 q 89 399 92 264 q 85 668 86 533 q 83 925 83 803 l 546 922 q 579 1140 572 1038 l 892 1117 q 839 919 882 1028 l 1306 917 q 1304 666 1306 800 q 1300 398 1303 532 q 1294 146 1297 264 q 1288 -58 1292 28 l 914 -36 l 908 31 l 1035 54 q 1050 222 1043 133 q 1061 397 1057 310 l 897 264 q 806 426 865 335 q 674 606 746 517 q 555 440 619 524 q 417 274 490 357 l 328 310 q 340 115 333 210 q 354 -58 346 19 l 103 -85 m 1078 822 l 794 818 q 756 743 776 782 q 926 621 842 689 q 1068 494 1011 553 q 1075 674 1072 589 q 1078 822 1078 758 m 313 813 q 316 588 313 710 q 326 344 319 467 q 518 815 453 589 l 313 813 z "},"円":{"ha":1389,"x_min":104,"x_max":1285,"o":"m 1285 -35 l 838 14 l 847 103 l 1038 103 q 1042 298 1040 193 q 1043 525 1043 403 l 346 508 q 349 245 347 383 q 356 -29 351 107 l 104 -26 q 113 460 104 179 q 135 1082 121 740 l 1254 1090 q 1264 899 1260 1006 q 1272 672 1268 792 q 1279 428 1276 551 q 1283 186 1282 304 q 1285 -35 1285 68 m 351 986 q 349 888 350 946 q 347 765 347 831 q 346 636 346 700 l 578 631 l 590 981 l 351 986 m 1038 969 l 800 975 l 811 625 l 1043 619 q 1042 822 1043 733 q 1038 969 1040 910 z "},"冬":{"ha":1389,"x_min":40,"x_max":1349,"o":"m 171 142 l 40 343 q 169 424 93 378 q 331 521 244 469 q 507 622 418 572 q 336 721 421 674 q 147 589 233 653 l 76 674 q 278 870 181 779 q 460 1033 376 961 q 608 1151 544 1106 l 850 1029 q 757 978 804 1004 l 1211 817 l 1203 749 q 1058 682 1133 718 q 906 604 983 646 q 1349 389 1153 496 l 1214 163 q 981 326 1110 240 q 714 497 853 411 q 428 322 568 414 q 171 142 288 231 m 888 831 l 603 889 q 443 789 522 840 q 658 708 550 750 q 785 778 726 746 q 888 831 844 810 m 821 164 l 508 282 l 664 431 l 928 297 l 821 164 m 825 -96 l 439 42 l 553 183 l 940 72 l 825 -96 z "},"出":{"ha":1389,"x_min":89,"x_max":1300,"o":"m 122 -53 l 89 396 l 364 417 l 376 49 l 585 44 l 569 513 l 138 510 l 110 961 l 376 983 l 376 599 l 567 606 l 550 1108 l 847 1101 l 831 614 l 1014 621 l 1001 979 l 1279 969 l 1253 518 l 828 515 l 813 42 l 1015 38 l 1028 422 l 1300 408 l 1268 -42 l 122 -53 z "},"刀":{"ha":1389,"x_min":113,"x_max":1276,"o":"m 429 -12 l 113 57 q 199 248 153 138 q 292 481 246 358 q 376 726 338 604 q 443 951 415 847 l 113 965 l 124 1065 l 1276 1068 q 1271 840 1276 961 q 1256 597 1265 719 q 1235 362 1247 475 q 1207 155 1222 249 q 1176 0 1192 61 l 736 19 l 732 118 l 917 128 q 943 356 932 226 q 960 631 954 485 q 965 928 965 778 l 669 940 q 635 763 656 861 q 588 558 614 664 q 535 347 563 451 q 481 151 508 243 q 429 -12 453 58 z "},"分":{"ha":1389,"x_min":18,"x_max":1371,"o":"m 146 494 l 18 581 q 147 774 75 671 q 291 977 218 878 q 426 1153 364 1076 l 624 1026 q 500 894 568 968 q 363 744 432 821 q 237 602 294 668 q 146 494 179 536 m 1150 496 q 1056 640 1111 563 q 942 793 1001 717 q 827 934 883 869 q 728 1039 771 999 l 911 1150 q 1053 1026 974 1104 q 1217 856 1133 949 q 1371 671 1300 764 l 1150 496 m 476 -69 l 207 -28 q 259 86 231 19 q 318 228 288 153 q 377 381 349 304 q 429 525 406 458 l 288 528 l 297 629 l 1026 639 q 1049 471 1039 565 q 1069 276 1060 376 q 1083 88 1078 176 q 1088 -61 1088 0 l 703 -51 l 703 43 l 833 49 q 829 158 833 94 q 817 290 825 222 q 801 418 810 357 q 783 518 792 479 l 661 521 q 624 378 646 458 q 575 215 601 299 q 523 58 549 132 q 476 -69 497 -17 z "},"切":{"ha":1389,"x_min":43,"x_max":1346,"o":"m 583 224 q 401 244 476 224 q 275 315 325 264 q 196 456 225 365 q 154 689 167 547 l 56 679 l 43 806 l 146 808 q 142 940 143 869 q 140 1092 140 1011 l 407 1094 q 401 930 403 996 q 397 813 399 864 l 646 818 l 646 733 l 397 711 q 415 484 399 565 q 474 367 432 403 q 592 321 515 331 l 583 224 m 829 -36 l 574 -1 q 627 216 600 97 q 681 460 654 335 q 730 705 707 585 q 769 928 753 825 l 510 931 l 507 1010 l 1346 1040 q 1342 860 1346 961 q 1333 647 1339 760 q 1317 421 1326 535 q 1299 200 1308 307 q 1278 4 1289 93 l 900 39 l 904 107 l 1072 126 q 1083 257 1078 178 q 1094 429 1089 336 q 1104 615 1100 522 q 1110 790 1108 708 q 1113 924 1113 871 l 982 925 q 961 746 974 844 q 933 540 949 647 q 899 327 917 432 q 863 128 881 222 q 829 -36 846 35 z "},"前":{"ha":1389,"x_min":86,"x_max":1303,"o":"m 93 792 l 86 913 l 304 910 l 267 1117 l 533 1131 l 553 907 l 835 904 l 856 1138 l 1122 1113 l 1082 901 l 1303 899 l 1297 813 l 93 792 m 760 197 l 778 732 l 957 735 l 975 190 l 760 197 m 1263 -56 l 860 -37 l 867 46 l 1049 57 l 1071 731 l 1263 726 l 1263 -56 m 313 -82 l 136 -76 l 110 714 l 676 719 l 706 -57 l 404 -60 l 400 13 l 503 25 l 499 163 l 321 172 l 313 -82 m 336 631 l 331 483 l 489 479 l 483 631 l 336 631 m 328 379 l 324 263 l 494 274 l 492 388 l 328 379 z "},"力":{"ha":1389,"x_min":97,"x_max":1292,"o":"m 296 -90 l 110 -37 q 382 747 268 357 q 104 750 238 750 l 97 857 q 417 869 242 864 q 486 1146 456 1013 l 799 1071 q 736 876 771 976 q 1292 881 1001 881 q 1279 439 1292 664 q 1239 -46 1267 214 l 739 -35 l 732 60 l 968 75 q 993 728 993 394 q 846 735 924 732 q 686 740 768 738 q 510 326 608 536 q 296 -90 411 115 z "},"北":{"ha":1389,"x_min":39,"x_max":1350,"o":"m 1301 -43 l 750 -29 l 750 1106 l 1029 1086 l 1013 840 l 1278 967 l 1350 763 l 1003 700 l 960 51 l 1093 71 l 1185 363 l 1318 346 l 1301 -43 m 156 -37 l 39 189 l 386 314 l 360 722 l 64 711 l 58 861 l 351 835 l 335 1089 l 622 1104 l 622 -62 l 413 -76 l 397 161 l 156 -37 z "},"十":{"ha":1389,"x_min":54,"x_max":1335,"o":"m 567 -94 q 540 542 556 244 l 54 549 l 64 671 l 533 678 q 519 926 526 808 q 503 1147 511 1044 l 886 1143 q 883 925 886 1042 q 875 682 881 808 l 1326 689 l 1335 531 l 868 538 q 848 219 860 379 q 822 -92 836 58 l 567 -94 z "},"千":{"ha":1389,"x_min":82,"x_max":1307,"o":"m 89 403 l 82 556 l 571 551 q 589 850 579 710 q 385 803 485 828 q 197 756 285 779 l 157 865 q 323 944 222 901 q 544 1031 424 988 q 788 1114 665 1075 q 1019 1179 911 1153 l 1158 954 q 992 928 1081 943 q 811 894 904 913 q 823 733 817 821 q 835 550 829 644 l 1307 546 l 1301 435 l 840 422 q 853 133 849 274 q 857 -112 857 -8 l 550 -124 q 553 128 550 -11 q 564 415 557 268 l 89 403 z "},"午":{"ha":1389,"x_min":43,"x_max":1346,"o":"m 47 332 l 43 439 l 564 456 l 576 840 l 340 835 l 163 551 l 69 576 l 190 1143 l 497 1088 l 422 968 l 1276 954 l 1282 858 l 843 847 l 857 464 l 1346 479 l 1340 340 l 861 338 l 875 -81 l 546 -87 l 560 335 l 47 332 z "},"半":{"ha":1389,"x_min":69,"x_max":1319,"o":"m 135 506 l 129 651 l 581 650 l 564 1153 l 867 1147 l 847 649 l 1258 647 l 1254 536 l 842 525 l 835 354 l 1314 361 l 1319 213 l 829 219 l 817 -92 l 607 -97 l 596 224 l 69 232 l 74 342 l 592 350 l 586 518 l 135 506 m 976 736 l 896 817 l 1142 1138 l 1288 999 l 976 736 m 385 708 l 101 956 l 296 1126 l 529 842 l 385 708 z "},"南":{"ha":1389,"x_min":81,"x_max":1308,"o":"m 125 892 l 129 1017 l 560 1013 l 554 1151 l 835 1151 l 828 1010 l 1260 1006 l 1264 924 l 824 911 l 819 803 l 1279 811 l 1308 -96 l 931 -67 l 940 15 l 1071 21 l 1071 697 l 322 700 l 322 -83 l 81 -94 l 110 790 l 569 799 l 565 904 l 125 892 m 361 125 l 357 218 l 579 231 l 582 333 l 358 328 l 351 449 l 443 446 l 372 639 l 597 665 l 640 440 l 751 438 l 792 661 l 1017 633 l 943 432 l 1039 429 l 1035 344 l 806 339 l 810 243 l 1035 256 l 1035 131 l 813 129 l 819 -62 l 569 -58 l 575 126 l 361 125 z "},"原":{"ha":1389,"x_min":58,"x_max":1331,"o":"m 268 -71 l 58 -37 q 151 1107 151 522 l 1269 1128 l 1279 1022 l 933 1026 l 926 896 l 1244 894 l 1261 388 l 947 386 l 976 -61 l 660 -57 l 650 0 l 739 15 l 739 386 l 447 385 l 424 897 l 701 896 l 689 1029 l 375 1033 q 367 761 375 906 q 345 469 360 617 q 311 183 331 322 q 268 -71 292 44 m 629 800 l 636 688 l 1046 700 l 1046 804 l 629 800 m 1046 482 l 1046 590 l 642 593 l 647 485 l 1046 482 m 1090 -39 l 1038 301 l 1240 329 l 1331 -8 l 1090 -39 m 592 -40 l 363 -19 l 432 328 l 628 304 l 592 -40 z "},"友":{"ha":1389,"x_min":56,"x_max":1333,"o":"m 194 -65 l 56 -10 q 408 803 258 399 l 79 799 l 72 940 l 457 935 q 528 1147 494 1042 l 861 1114 q 779 931 821 1021 l 1317 922 l 1310 817 l 721 808 q 661 690 692 749 l 1233 651 l 1261 582 q 1151 433 1214 514 q 1017 267 1089 353 q 1333 140 1164 203 l 1139 -76 q 868 96 1007 -3 q 697 -92 783 -1 l 382 8 q 651 260 533 143 q 496 393 569 326 q 194 -65 356 157 m 925 560 l 614 600 q 557 497 586 549 q 769 381 651 440 q 925 560 860 476 z "},"口":{"ha":1389,"x_min":99,"x_max":1290,"o":"m 365 6 l 99 13 q 101 422 99 242 q 108 755 103 603 q 119 1051 113 907 l 435 1040 q 429 999 432 1019 q 662 1005 546 1003 q 900 1007 778 1007 q 1257 1003 1065 1007 q 1275 691 1268 858 q 1286 352 1282 524 q 1290 22 1290 181 l 988 8 q 992 82 990 46 q 816 88 908 86 q 618 89 724 89 q 367 86 492 89 q 365 6 365 43 m 988 885 q 708 879 847 885 q 415 861 568 874 q 395 640 404 754 q 380 413 386 525 q 369 199 374 300 q 686 214 526 208 q 997 221 846 219 q 1001 347 1000 288 q 1003 460 1003 406 q 999 659 1003 554 q 988 885 994 764 z "},"古":{"ha":1389,"x_min":38,"x_max":1351,"o":"m 406 -82 l 164 -79 l 143 501 l 565 499 l 557 738 l 49 739 l 38 851 l 551 863 l 542 1129 l 847 1138 l 839 869 l 1351 881 l 1340 736 l 833 738 l 826 496 l 1246 493 l 1226 -72 l 985 -75 l 985 1 l 406 -10 l 406 -82 m 406 388 l 406 111 l 985 92 l 985 400 l 406 388 z "},"台":{"ha":1389,"x_min":64,"x_max":1325,"o":"m 78 560 l 64 686 l 465 1139 l 732 1054 l 381 708 q 582 710 475 708 q 794 714 689 711 q 992 721 900 717 l 946 929 l 1203 964 l 1325 582 l 1033 531 l 1014 618 q 714 590 871 603 q 396 570 557 578 q 78 560 235 563 m 413 -83 l 164 -81 l 146 479 l 1246 471 l 1226 -74 l 978 -76 l 978 0 l 413 -11 l 413 -83 m 413 371 l 413 110 l 978 90 l 978 379 l 413 371 z "},"右":{"ha":1389,"x_min":47,"x_max":1342,"o":"m 136 94 l 47 149 q 227 468 143 306 q 381 794 311 631 q 57 796 219 796 l 47 907 q 235 913 140 910 q 432 918 331 915 q 510 1132 474 1025 l 889 1086 q 790 922 843 1006 q 936 922 861 922 q 1174 922 1071 922 q 1342 918 1278 921 l 1332 772 q 1024 783 1181 778 q 704 790 867 788 q 551 574 631 681 l 1314 568 l 1289 -69 l 415 -76 l 397 378 q 263 224 329 296 q 136 94 197 153 m 1036 22 l 1060 475 l 644 461 l 658 33 l 1036 22 z "},"合":{"ha":1389,"x_min":17,"x_max":1372,"o":"m 271 494 l 263 576 q 142 429 199 500 l 17 538 q 144 664 67 590 q 317 823 222 738 q 511 995 411 908 q 707 1160 611 1082 q 1086 876 918 1010 q 1372 628 1254 742 l 1132 422 q 964 594 1061 500 l 960 499 l 271 494 m 588 939 q 421 756 496 840 q 282 597 346 672 q 618 628 461 615 q 908 649 775 640 q 753 793 835 719 q 588 939 672 867 m 253 -104 q 233 122 240 -3 q 226 371 226 247 l 1164 383 q 1160 157 1164 282 q 1149 -89 1156 32 l 253 -104 m 894 -4 q 910 135 906 65 q 914 281 914 204 l 475 275 q 483 126 475 197 q 501 1 490 54 l 894 -4 z "},"同":{"ha":1389,"x_min":71,"x_max":1318,"o":"m 71 -64 l 71 1121 l 1318 1111 l 1318 -56 l 861 -29 l 868 54 l 1051 58 l 1083 1025 l 301 1013 l 340 -58 l 71 -64 m 375 797 l 369 917 l 1019 903 l 1014 811 l 375 797 m 413 160 l 394 701 l 992 701 l 974 165 l 413 160 m 771 250 l 771 617 l 618 614 l 618 253 l 771 250 z "},"名":{"ha":1389,"x_min":69,"x_max":1319,"o":"m 272 17 l 76 194 q 276 326 169 251 q 489 481 383 401 l 374 658 q 143 501 254 571 l 69 585 q 579 1146 367 851 l 808 1021 q 736 954 772 988 l 1143 876 l 1175 806 q 1002 640 1103 733 q 785 443 901 546 l 1319 442 l 1301 -90 l 550 -90 l 539 233 q 405 123 472 178 q 272 17 338 68 m 893 814 l 649 878 q 481 740 565 807 l 665 618 q 790 721 732 671 q 893 814 849 771 m 1078 11 l 1067 343 l 788 339 l 776 15 l 1078 11 z "},"四":{"ha":1389,"x_min":65,"x_max":1324,"o":"m 65 -22 l 65 1036 l 1324 1036 l 1324 -21 l 1074 -12 l 1076 83 l 325 75 l 328 -15 l 65 -22 m 296 943 l 313 453 q 403 720 368 590 q 443 942 439 850 l 296 943 m 408 342 l 315 371 l 321 214 l 1081 199 l 1086 386 l 722 410 l 756 938 l 690 939 q 635 731 676 836 q 534 526 593 625 q 408 342 475 426 m 964 514 l 1089 476 l 1104 933 l 950 935 l 964 514 z "},"回":{"ha":1389,"x_min":72,"x_max":1317,"o":"m 1317 -39 l 72 -35 l 72 1090 l 1317 1096 l 1317 -39 m 290 36 l 1094 50 l 1063 1000 l 322 1019 l 290 36 m 982 197 l 410 203 l 389 851 l 1004 851 l 982 197 m 786 272 l 767 778 l 621 769 l 604 272 l 786 272 z "},"図":{"ha":1389,"x_min":79,"x_max":1310,"o":"m 79 -54 l 79 1110 l 1310 1104 l 1310 -49 l 79 -54 m 1082 38 l 1050 1018 l 335 1010 l 301 47 l 1082 38 m 665 675 l 607 951 l 815 982 l 851 711 l 665 675 m 428 568 l 343 858 l 546 908 l 611 619 l 428 568 m 426 61 l 338 133 q 501 296 419 213 l 332 393 l 431 540 l 651 457 q 914 774 806 628 l 1054 647 q 940 522 1001 586 q 814 394 879 458 l 1053 304 l 900 69 l 629 224 q 525 137 576 178 q 426 61 474 96 z "},"国":{"ha":1389,"x_min":76,"x_max":1313,"o":"m 1313 -61 l 76 -56 l 76 1111 l 1313 1117 l 1313 -61 m 317 29 l 1086 50 l 1043 1026 l 317 1024 l 317 29 m 389 485 l 368 606 l 569 618 l 578 833 l 375 822 l 365 938 l 1010 944 l 1006 858 l 772 844 l 772 632 l 994 646 l 994 554 l 772 529 l 772 219 l 1032 221 l 1032 106 l 351 117 l 357 217 l 554 218 l 565 506 l 389 485 m 854 260 l 835 482 l 986 499 l 1026 275 l 854 260 z "},"園":{"ha":1389,"x_min":72,"x_max":1317,"o":"m 72 -67 l 72 1124 l 1317 1118 l 1317 -62 l 72 -67 m 363 440 l 354 671 l 1036 674 l 1028 468 l 1107 369 l 1085 1047 l 308 1036 l 282 282 l 569 444 l 363 440 m 326 719 l 319 813 l 597 807 l 593 879 l 340 883 l 340 949 l 589 950 l 585 1010 l 806 1010 l 801 953 l 1049 954 l 1049 872 l 797 876 l 792 803 l 1071 797 l 1064 729 l 326 719 m 549 501 l 842 513 l 838 604 l 553 601 l 549 501 m 754 365 l 617 315 l 617 314 l 738 282 l 994 453 l 682 446 l 754 365 m 851 251 l 1113 182 l 1107 342 l 851 251 m 310 201 l 281 271 l 272 19 l 1118 8 l 1114 157 l 983 29 l 628 213 l 644 47 l 443 42 l 461 257 l 310 201 z "},"土":{"ha":1389,"x_min":67,"x_max":1322,"o":"m 489 547 q 294 549 392 547 q 122 551 197 550 l 135 710 q 327 694 228 700 q 528 683 426 688 q 523 915 525 803 q 521 1115 521 1026 l 868 1125 q 866 912 868 1025 q 861 679 864 799 q 1057 685 960 681 q 1253 699 1154 690 l 1267 571 q 857 551 1074 557 q 847 312 853 431 q 835 83 842 193 l 1322 94 l 1315 -69 l 75 -57 l 67 67 l 554 78 q 543 286 549 163 q 532 547 538 410 q 489 547 511 547 z "},"地":{"ha":1389,"x_min":43,"x_max":1346,"o":"m 1047 125 l 865 129 l 865 642 q 771 618 818 631 q 785 316 776 469 q 806 17 794 163 l 1144 28 l 1190 233 l 1333 215 l 1321 -76 l 565 -53 q 556 251 560 96 q 547 560 551 407 q 443 531 496 546 l 417 615 q 546 661 483 639 q 543 879 544 774 q 542 1078 542 985 l 760 1085 q 761 917 760 1006 q 767 733 763 828 q 865 763 817 749 l 865 1132 l 1092 1121 l 1078 822 q 1319 876 1203 854 l 1346 314 l 1088 322 l 1088 389 l 1153 403 l 1125 700 q 1072 689 1099 694 l 1047 125 m 156 -19 l 43 182 l 172 240 l 151 682 l 43 675 l 47 788 l 146 786 l 133 1039 l 369 1035 l 357 783 l 489 782 l 493 703 l 353 694 l 335 313 l 485 381 l 521 311 l 156 -19 z "},"場":{"ha":1389,"x_min":50,"x_max":1339,"o":"m 603 688 l 583 1115 l 1247 1131 l 1228 701 l 603 688 m 204 47 l 50 221 l 203 326 l 190 701 l 50 700 l 56 807 l 188 800 l 178 1075 l 411 1082 l 399 789 l 543 782 l 536 707 l 394 706 l 383 450 l 476 514 l 528 464 l 204 47 m 811 1050 l 808 951 l 1022 946 l 1018 1056 l 811 1050 m 801 767 l 1028 771 l 1024 879 l 804 863 l 801 767 m 467 86 l 383 132 l 654 551 l 518 556 l 514 624 l 1339 628 l 1333 528 l 879 543 l 804 460 l 1308 454 l 1339 -58 l 1018 -54 l 1022 21 l 1128 43 l 1139 297 l 894 -72 l 786 -54 l 993 371 l 956 369 l 663 -40 l 557 -6 l 761 363 l 714 361 l 467 86 z "},"声":{"ha":1389,"x_min":67,"x_max":1322,"o":"m 74 917 l 67 1031 l 560 1026 l 553 1150 l 836 1156 l 829 1024 l 1322 1019 l 1315 929 l 824 924 l 818 821 l 1264 826 l 1264 708 l 125 719 l 125 814 l 571 819 l 565 922 l 74 917 m 278 -100 l 79 -81 q 127 301 111 122 q 143 619 143 481 l 1256 617 l 1233 260 l 353 269 q 320 88 339 181 q 278 -100 301 -6 m 1019 533 l 818 529 l 824 364 l 1026 357 l 1019 533 m 385 518 q 369 378 379 451 l 588 371 l 593 524 l 385 518 z "},"売":{"ha":1389,"x_min":50,"x_max":1339,"o":"m 142 742 l 135 821 l 553 833 l 546 929 l 96 924 l 101 1038 l 538 1029 l 529 1140 l 860 1135 l 851 1022 l 1288 1014 l 1290 939 l 844 933 l 838 843 l 1254 856 l 1247 749 l 142 742 m 307 381 l 50 397 l 74 651 l 1315 661 l 1339 413 l 1082 401 l 1058 575 l 331 561 l 307 381 m 246 -85 l 78 -11 q 210 141 144 54 q 333 324 276 228 q 428 510 390 419 l 694 451 q 627 319 674 392 q 517 170 581 246 q 384 28 454 94 q 246 -85 314 -39 m 761 -69 q 753 52 757 -29 q 748 247 750 133 q 746 494 746 361 l 994 492 q 995 310 994 404 q 998 137 996 217 q 1003 8 1000 57 q 1097 33 1047 13 l 1106 279 l 1276 301 l 1335 -35 q 1162 -55 1247 -47 q 980 -66 1076 -62 q 761 -69 883 -69 z "},"夏":{"ha":1389,"x_min":50,"x_max":1339,"o":"m 111 186 l 50 278 l 451 474 l 210 471 l 194 940 l 456 946 l 486 1038 l 104 1043 l 110 1122 l 1281 1128 l 1285 1028 l 782 1035 l 692 950 l 1183 960 l 1183 482 l 610 475 l 668 432 l 1222 401 l 1226 342 q 1106 274 1175 311 q 958 196 1036 236 q 1339 143 1149 161 l 1164 -56 q 738 85 938 6 q 563 1 649 42 q 403 -72 478 -39 l 171 43 q 354 108 264 75 q 526 174 444 142 q 354 258 439 214 l 111 186 m 453 879 l 451 821 l 939 826 l 938 882 l 453 879 m 446 694 l 944 688 l 942 747 l 449 753 l 446 694 m 949 550 l 946 614 l 443 607 l 442 550 l 949 550 m 894 336 l 657 349 l 496 301 q 706 247 601 272 q 894 336 825 299 z "},"夕":{"ha":1389,"x_min":57,"x_max":1332,"o":"m 193 439 l 57 508 q 341 871 224 708 q 546 1185 458 1033 l 831 1075 q 754 988 792 1031 q 1040 951 897 972 q 1304 903 1182 929 l 1332 829 q 1119 476 1232 651 q 894 146 1007 301 q 679 -129 782 -10 l 358 -7 q 524 169 443 79 q 681 347 606 258 q 404 628 556 493 q 193 439 301 531 m 1025 803 q 848 845 942 825 q 657 882 754 865 q 517 736 588 807 q 842 544 692 658 q 943 681 897 615 q 1025 803 989 746 z "},"外":{"ha":1389,"x_min":29,"x_max":1360,"o":"m 388 -101 l 119 33 q 244 226 182 125 q 364 425 307 326 l 229 557 q 121 426 172 483 l 29 482 q 202 853 129 676 q 311 1165 275 1031 l 544 1043 q 485 938 517 992 l 771 886 q 609 415 707 667 q 388 -101 511 164 m 782 -108 l 821 1100 l 1007 1096 l 1022 635 l 1360 525 l 1251 304 l 1028 438 l 1046 -108 l 782 -108 m 565 811 l 429 844 q 304 658 369 749 l 447 572 q 515 703 485 642 q 565 811 546 764 z "},"多":{"ha":1389,"x_min":53,"x_max":1336,"o":"m 194 442 l 53 592 q 259 659 147 619 q 482 742 371 699 l 422 846 q 287 799 357 822 q 144 754 217 775 l 83 821 q 251 905 163 858 q 423 1001 339 951 q 574 1093 507 1050 q 676 1167 640 1136 l 839 1043 q 782 1006 815 1026 l 1072 929 l 1078 871 q 938 789 1021 835 q 758 694 856 743 q 558 597 660 644 q 363 509 457 549 q 194 442 269 469 m 835 894 l 674 950 q 546 894 615 922 l 635 803 q 742 851 692 828 q 835 894 793 874 m 249 224 l 183 311 q 335 381 246 335 q 528 486 425 426 q 734 613 631 546 q 926 743 838 679 l 1125 618 q 1026 556 1088 590 l 1333 447 l 1336 389 q 1163 286 1261 342 q 954 174 1064 231 q 732 63 844 117 q 514 -37 619 10 q 321 -117 408 -83 l 135 71 q 391 150 250 103 q 672 251 532 197 l 619 358 q 425 282 521 317 q 249 224 329 247 m 1081 424 l 925 500 q 740 411 840 457 l 839 317 q 968 372 907 344 q 1081 424 1029 399 z "},"夜":{"ha":1389,"x_min":33,"x_max":1356,"o":"m 85 367 l 33 435 q 169 573 101 500 q 296 715 238 646 q 394 840 354 785 l 79 838 l 71 960 l 565 956 l 553 1150 l 838 1143 l 825 953 l 1318 949 l 1310 849 l 964 846 l 1081 799 l 1011 729 l 1347 624 q 1217 428 1286 525 q 1076 239 1149 331 q 1356 118 1206 178 l 1175 -94 q 938 75 1047 -10 q 778 -90 856 -17 l 550 8 q 778 207 674 113 q 632 349 700 276 l 554 271 l 469 325 l 818 844 l 464 840 l 639 718 q 509 621 597 681 q 315 497 421 561 l 439 494 l 463 -90 l 204 -82 l 228 446 q 85 367 153 403 m 1146 592 l 931 649 l 896 613 l 1072 503 q 1146 592 1113 549 m 715 433 q 904 325 804 378 q 949 371 926 349 l 786 503 l 715 433 z "},"大":{"ha":1389,"x_min":49,"x_max":1340,"o":"m 208 -90 l 49 18 q 295 326 196 169 q 450 656 394 483 q 378 656 414 656 q 213 658 293 656 q 50 663 132 660 l 65 838 q 488 797 272 804 q 524 1154 524 964 l 810 1146 q 779 801 810 964 q 1246 871 1035 817 l 1268 708 q 1026 683 1154 694 q 764 665 897 672 q 931 468 838 565 q 1128 283 1024 371 q 1340 121 1232 194 l 1075 -99 q 978 -2 1032 -64 q 867 137 924 60 q 760 296 811 214 q 669 453 708 378 q 476 151 593 286 q 208 -90 360 15 z "},"天":{"ha":1389,"x_min":61,"x_max":1328,"o":"m 201 -72 l 61 33 q 303 322 207 182 q 453 611 399 461 q 115 556 285 593 l 88 714 q 285 731 182 724 q 493 742 388 738 q 529 956 518 842 q 319 959 429 956 q 89 967 208 963 l 99 1099 q 553 1069 324 1069 q 1215 1128 869 1069 l 1233 982 q 1038 969 1133 975 q 850 961 942 964 q 808 747 840 854 l 814 747 q 1046 743 935 747 q 1264 732 1157 739 l 1254 586 q 1048 617 1158 606 q 818 629 938 628 q 1058 375 929 490 q 1328 175 1186 260 l 1081 -67 q 986 28 1038 -32 q 882 163 935 88 q 781 319 829 238 q 693 482 732 401 q 486 194 610 335 q 201 -72 363 54 z "},"太":{"ha":1389,"x_min":47,"x_max":1342,"o":"m 178 -78 l 47 32 q 298 344 197 183 q 451 683 399 504 q 61 696 239 685 l 79 868 q 281 838 179 850 q 485 822 383 826 q 515 1151 515 976 l 797 1151 q 763 818 797 982 q 1027 838 901 822 q 1260 879 1153 853 l 1279 719 q 822 689 1078 697 q 1067 382 932 526 q 1342 132 1201 238 l 1096 -86 q 992 30 1050 -43 q 875 192 935 103 q 763 373 815 282 q 674 540 710 464 q 521 267 611 394 l 701 297 l 822 -6 l 582 -94 l 485 218 q 178 -78 353 47 z "},"女":{"ha":1389,"x_min":71,"x_max":1318,"o":"m 435 -106 l 169 50 q 330 142 246 88 q 496 261 414 197 q 352 338 424 301 q 211 408 281 375 q 296 557 250 474 q 389 731 342 640 l 71 722 l 78 897 l 467 888 q 536 1030 503 960 q 596 1161 569 1100 l 821 1111 q 765 1010 801 1071 q 685 882 729 949 l 1313 865 l 1318 754 l 1169 750 q 1070 559 1135 663 q 925 351 1006 456 q 1115 258 1021 306 q 1294 164 1210 210 l 1065 -94 q 913 13 999 -44 q 728 129 826 69 q 575 -10 650 51 q 435 -106 500 -72 m 453 556 q 573 509 507 536 q 710 450 639 482 q 851 604 789 528 q 950 744 914 681 l 588 736 q 517 638 551 685 q 453 556 483 592 z "},"妹":{"ha":1389,"x_min":35,"x_max":1354,"o":"m 653 24 l 569 39 l 679 588 l 567 581 l 556 713 l 796 717 l 790 868 l 579 874 l 583 968 l 786 969 l 781 1140 l 1060 1131 l 1054 969 l 1293 971 l 1297 857 l 1050 863 l 1044 721 l 1329 725 l 1329 631 l 1168 619 l 1354 125 l 1143 28 l 1033 453 l 1014 -76 l 824 -74 l 806 447 l 653 24 m 282 -62 l 75 24 q 189 267 138 151 l 35 390 l 147 776 l 46 774 l 53 889 l 176 878 l 246 1119 l 435 1079 l 340 864 l 578 843 q 512 610 547 729 q 440 376 476 490 l 593 292 l 451 56 l 357 132 q 282 -62 315 19 m 189 515 l 275 468 q 383 785 344 644 l 306 782 l 189 515 z "},"姉":{"ha":1389,"x_min":42,"x_max":1347,"o":"m 278 -78 l 71 4 q 189 249 138 136 l 44 369 l 142 743 l 42 749 l 54 864 l 168 849 l 242 1131 l 444 1093 l 335 825 l 571 793 q 515 580 547 692 q 443 353 482 468 l 572 278 l 572 706 l 846 711 l 849 811 l 546 810 l 540 899 l 842 908 l 785 1121 l 1022 1147 l 1042 915 l 1347 925 l 1347 813 l 1025 811 l 1028 715 l 1329 721 l 1329 82 l 1074 99 l 1074 167 l 1140 172 l 1125 607 l 1031 610 l 1054 -90 l 819 -87 l 843 615 l 756 618 l 774 75 l 572 71 l 572 235 l 450 29 l 356 108 q 278 -78 317 11 m 199 497 l 275 453 q 363 732 331 600 l 297 735 l 199 497 z "},"子":{"ha":1389,"x_min":64,"x_max":1325,"o":"m 64 451 l 74 611 l 561 608 q 550 761 557 683 l 654 772 q 743 895 703 831 q 803 1010 783 960 l 208 997 l 214 1135 l 1165 1096 l 1172 1026 q 1082 922 1140 981 q 955 806 1024 864 q 822 707 886 749 q 832 606 828 657 l 1317 603 l 1325 486 l 842 472 q 861 -79 861 192 l 318 -44 l 333 69 l 567 64 q 571 158 569 108 q 572 261 572 207 q 568 465 572 364 l 64 451 z "},"字":{"ha":1389,"x_min":61,"x_max":1328,"o":"m 1328 594 l 1089 604 l 1099 869 l 292 882 l 307 607 l 61 604 l 76 974 l 558 972 l 551 1175 l 838 1171 l 831 972 l 1313 971 l 1328 594 m 93 246 l 85 376 l 561 369 q 564 514 564 450 l 619 517 q 692 601 654 554 q 750 682 729 649 l 347 653 l 353 774 l 1046 774 l 1050 710 q 997 638 1033 682 q 914 545 961 594 q 815 447 867 496 q 819 367 818 410 l 1306 360 l 1296 264 l 825 257 q 829 75 828 171 q 831 -118 831 -21 l 308 -64 l 317 25 l 546 28 q 558 253 553 138 l 93 246 z "},"学":{"ha":1389,"x_min":68,"x_max":1321,"o":"m 68 535 l 96 907 l 214 908 l 124 1094 l 347 1140 l 436 910 l 588 910 l 513 1131 l 757 1157 l 806 913 l 925 913 l 1053 1150 l 1265 1069 l 1129 914 l 1293 915 l 1321 542 l 1085 546 l 1069 825 l 304 807 l 292 544 l 68 535 m 90 243 l 90 372 l 558 369 q 567 482 563 429 l 617 485 q 669 540 643 511 q 715 595 694 569 q 742 636 735 621 l 350 617 l 356 736 l 1035 736 l 1039 678 q 975 594 1014 642 q 894 499 936 546 q 815 419 851 453 l 817 369 l 1299 367 l 1299 272 l 821 261 l 832 -101 l 313 -61 l 321 28 l 547 36 q 553 254 547 138 l 90 243 z "},"室":{"ha":1389,"x_min":61,"x_max":1328,"o":"m 107 -92 l 99 40 l 557 38 l 554 149 l 136 154 l 132 261 l 550 269 l 546 400 l 225 381 l 196 446 l 390 650 l 343 649 l 338 785 l 1051 774 l 1047 664 l 617 654 l 561 513 l 935 513 l 921 614 l 1103 642 l 1093 867 l 297 872 l 288 622 l 61 635 l 76 965 l 565 967 l 558 1147 l 831 1143 l 824 968 l 1313 969 l 1328 632 l 1156 629 l 1219 367 l 958 331 l 946 425 l 840 418 l 836 275 l 1261 283 l 1256 140 l 831 146 l 828 36 l 1290 33 l 1282 -67 l 107 -92 z "},"家":{"ha":1389,"x_min":61,"x_max":1328,"o":"m 63 618 l 76 967 l 551 968 l 540 1142 l 849 1135 l 838 968 l 1313 969 l 1328 629 l 1089 636 l 1097 885 l 292 879 l 303 622 l 63 618 m 168 -24 l 125 47 l 658 297 q 654 333 657 315 l 100 168 l 61 244 l 618 486 q 604 517 611 501 l 121 404 l 92 488 l 749 710 l 346 694 l 340 815 l 1050 831 l 1046 721 l 908 715 l 961 599 l 792 560 q 829 501 813 532 l 1285 592 l 1304 458 l 1056 443 q 1171 269 1106 361 q 1313 85 1236 178 l 1108 -56 q 893 321 992 103 q 911 129 911 232 q 907 27 911 81 q 896 -86 903 -26 l 419 -78 l 408 -4 l 646 24 q 660 132 656 76 l 168 -24 z "},"寺":{"ha":1389,"x_min":72,"x_max":1317,"o":"m 101 299 l 96 439 l 854 432 q 856 572 856 501 l 76 572 l 72 675 l 567 686 l 560 840 l 163 832 l 168 967 l 556 963 l 549 1128 l 842 1125 l 835 958 l 1222 954 l 1226 854 l 831 846 l 825 690 l 1317 701 l 1313 572 l 1117 572 q 1115 429 1117 501 l 1293 428 l 1289 335 l 1111 329 q 1088 -90 1104 149 l 642 -81 l 633 -1 l 844 24 q 853 321 850 147 l 413 308 l 674 121 l 521 -64 l 238 200 l 346 306 l 101 299 z "},"小":{"ha":1389,"x_min":44,"x_max":1344,"o":"m 806 -71 l 393 -58 l 383 21 l 565 47 l 517 1122 l 844 1126 l 806 -71 m 1051 129 q 1024 315 1039 218 q 992 508 1008 413 q 960 686 976 604 q 931 825 944 768 l 1122 872 q 1207 661 1165 775 q 1285 432 1249 547 q 1344 213 1321 317 l 1051 129 m 192 114 l 44 147 q 88 485 61 308 q 151 858 115 661 l 451 800 q 319 476 385 653 q 192 114 253 300 z "},"少":{"ha":1389,"x_min":33,"x_max":1356,"o":"m 363 -94 l 92 64 q 451 197 282 114 q 751 385 619 281 l 413 443 l 415 522 l 576 532 l 556 1144 l 826 1150 l 803 428 q 1019 681 944 551 l 933 939 l 1131 1000 l 1356 474 l 1132 343 l 1072 524 q 906 265 1010 385 q 664 52 801 144 q 363 -94 526 -40 m 178 349 l 33 394 l 207 1001 l 469 879 l 178 349 z "},"山":{"ha":1389,"x_min":88,"x_max":1301,"o":"m 111 -25 q 99 208 104 75 q 90 492 93 340 q 88 801 88 644 l 369 785 q 349 410 356 592 q 342 63 342 228 l 576 68 l 543 1081 l 846 1081 l 814 75 l 1049 81 q 1045 297 1049 178 q 1035 543 1042 415 q 1019 793 1029 671 l 1301 807 q 1299 547 1301 689 q 1290 260 1296 406 q 1278 -17 1285 114 l 111 -25 z "},"岩":{"ha":1389,"x_min":72,"x_max":1317,"o":"m 158 733 l 146 1081 l 414 1064 l 393 821 l 589 826 l 567 1118 l 851 1118 l 829 833 l 1024 839 l 1003 1072 l 1271 1086 l 1258 736 l 158 733 m 176 -50 l 72 15 q 164 188 118 94 q 249 374 210 282 q 315 540 289 465 l 90 540 l 85 629 l 1317 651 l 1311 538 l 653 539 q 561 410 607 472 l 1286 413 l 1271 -62 l 475 -60 l 464 282 q 176 -50 313 88 m 724 26 l 1024 31 l 1014 318 l 724 325 l 724 26 z "},"川":{"ha":1389,"x_min":88,"x_max":1301,"o":"m 1014 -29 l 1014 1081 l 1265 1078 l 1301 -19 l 1014 -29 m 278 -25 l 88 -11 q 113 340 103 167 q 127 694 122 513 q 132 1076 132 875 l 415 1063 q 381 506 415 782 q 278 -25 346 231 m 594 201 l 567 1039 l 853 1039 l 825 204 l 594 201 z "},"工":{"ha":1389,"x_min":67,"x_max":1322,"o":"m 1317 18 q 674 35 1008 35 q 71 22 383 35 l 67 135 q 529 158 297 150 l 506 875 q 132 883 317 876 l 126 1031 q 448 1019 279 1024 q 817 1012 617 1014 q 1264 1010 1018 1010 l 1258 893 q 883 879 1063 883 l 861 169 q 1322 175 1092 175 l 1317 18 z "},"左":{"ha":1389,"x_min":47,"x_max":1342,"o":"m 136 94 l 47 149 q 231 475 147 318 q 375 772 314 632 q 223 774 301 772 q 57 778 144 775 l 47 919 q 433 908 232 913 q 510 1132 482 1032 l 889 1086 q 781 903 844 1001 q 1046 901 907 901 q 1342 900 1185 900 l 1332 793 q 992 779 1150 785 q 696 772 833 774 q 553 575 628 674 l 1290 561 l 1290 451 l 993 446 l 1006 63 l 1315 68 l 1321 -74 l 328 -57 l 333 51 l 693 57 l 706 442 l 446 436 q 286 250 365 338 q 136 94 207 163 z "},"市":{"ha":1389,"x_min":56,"x_max":1333,"o":"m 149 32 l 149 653 l 563 658 l 567 793 l 56 788 l 56 914 l 571 908 l 517 1113 l 824 1147 l 843 904 l 1333 899 l 1333 801 l 813 796 l 817 663 l 1240 668 l 1240 43 l 888 54 l 888 122 l 1007 133 l 1007 554 l 821 557 l 842 -89 l 538 -92 l 558 563 l 385 565 l 403 36 l 149 32 z "},"帰":{"ha":1389,"x_min":69,"x_max":1319,"o":"m 572 703 l 578 800 l 1085 781 l 1085 876 l 593 868 l 583 964 l 1085 956 l 1085 1047 l 593 1042 l 586 1132 l 1274 1108 l 1288 711 l 572 703 m 456 -49 l 279 -39 q 297 184 289 53 q 310 469 304 315 q 319 788 315 624 q 322 1110 322 951 l 521 1110 q 517 903 521 1018 q 508 663 514 789 q 493 409 501 536 q 476 165 485 282 q 456 -49 467 47 m 260 314 l 94 322 l 69 1078 l 260 1082 l 260 314 m 531 376 l 556 646 l 1311 639 l 1319 393 l 1243 393 l 1299 85 l 1086 71 l 1074 351 l 1014 350 l 1028 -76 l 850 -76 l 836 346 l 769 344 l 769 67 l 567 82 l 608 376 l 531 376 m 1131 583 l 1006 579 l 1011 431 l 1125 428 l 1131 583 m 726 571 l 722 436 l 833 435 l 829 574 l 726 571 z "},"年":{"ha":1389,"x_min":43,"x_max":1346,"o":"m 49 149 l 43 249 l 239 253 l 258 671 l 632 657 l 640 890 l 353 893 l 147 582 l 54 621 l 203 1146 l 482 1090 l 418 993 l 1285 1007 l 1281 883 l 892 888 l 900 647 l 1263 635 l 1258 532 l 903 533 l 913 269 l 1346 281 l 1340 149 l 915 149 l 924 -89 l 608 -85 l 615 149 l 49 149 m 501 536 l 460 258 l 619 263 l 628 535 l 501 536 z "},"広":{"ha":1389,"x_min":57,"x_max":1332,"o":"m 224 -101 l 57 -82 q 87 183 74 43 q 110 460 100 322 q 126 721 121 599 q 132 933 132 843 l 596 936 l 583 1157 l 861 1157 l 849 938 l 1317 940 l 1304 804 l 399 826 q 363 508 388 671 q 303 190 339 346 q 224 -101 268 35 m 396 -43 l 585 729 l 839 689 l 735 150 l 1035 157 l 1007 506 l 1247 533 l 1332 -60 l 1056 -93 l 1044 50 l 396 -43 z "},"店":{"ha":1389,"x_min":67,"x_max":1322,"o":"m 233 -101 l 67 -82 q 94 202 82 57 q 115 484 106 347 q 130 736 125 621 q 135 931 135 851 l 596 940 l 583 1156 l 861 1158 l 849 944 l 1313 954 l 1322 828 l 401 835 q 341 389 383 624 q 233 -101 299 154 m 396 -78 l 411 371 l 688 372 l 674 785 l 922 782 l 917 624 l 1296 638 l 1296 518 l 914 529 l 908 374 l 1253 375 l 1268 -75 l 396 -78 m 1019 0 l 1010 292 l 657 283 l 646 7 l 1019 0 z "},"弓":{"ha":1389,"x_min":82,"x_max":1307,"o":"m 729 -60 q 648 -15 704 -39 q 520 33 592 10 q 375 72 449 56 q 242 93 301 88 l 253 176 l 596 147 q 713 221 649 175 q 835 317 776 267 q 937 414 894 368 q 989 486 979 460 l 82 468 l 154 861 l 972 840 l 965 1025 l 172 1001 l 168 1115 l 1221 1108 l 1235 757 l 401 750 l 382 579 l 1283 583 l 1307 508 q 1214 362 1276 442 q 1070 202 1151 282 q 901 53 989 122 q 729 -60 813 -15 z "},"引":{"ha":1389,"x_min":121,"x_max":1268,"o":"m 978 -57 l 1015 1114 l 1231 1111 l 1268 -40 l 978 -57 m 644 -50 l 199 -8 l 207 65 l 431 63 q 476 185 456 118 q 510 319 497 251 q 525 442 524 386 l 135 454 l 121 817 l 556 831 l 546 1029 l 126 1001 l 126 1100 l 810 1106 l 796 754 l 376 733 l 369 536 l 796 521 q 775 364 790 446 q 739 204 760 282 q 694 60 718 126 q 644 -50 669 -6 z "},"弟":{"ha":1389,"x_min":78,"x_max":1311,"o":"m 171 -78 l 78 -19 q 310 374 249 224 l 79 368 l 101 722 l 574 714 l 569 844 l 115 831 l 111 946 l 307 944 l 278 1099 l 528 1131 l 536 943 l 854 942 l 863 1133 l 1113 1107 l 1081 940 l 1271 939 l 1288 617 l 818 617 l 814 481 l 1311 485 l 1286 -43 l 913 -31 l 907 39 l 1067 53 l 1040 392 l 810 386 l 793 -65 l 599 -61 l 586 324 q 171 -78 426 103 m 1019 857 l 826 851 l 822 710 l 1033 707 l 1019 857 m 329 476 l 581 479 l 576 617 l 351 617 l 329 476 z "},"弱":{"ha":1389,"x_min":88,"x_max":1301,"o":"m 783 46 l 729 129 l 907 219 l 694 381 l 839 546 l 1065 314 q 1064 462 1065 399 q 1061 554 1063 525 l 749 571 l 739 857 l 1046 875 l 1040 1040 l 722 1025 l 722 1115 l 1289 1101 l 1279 799 l 976 794 l 964 647 l 1301 624 q 1299 433 1301 531 q 1290 242 1296 335 q 1277 72 1285 150 q 1261 -60 1269 -6 l 829 -26 l 829 39 l 1067 61 q 1067 207 1067 133 l 783 46 m 165 67 l 107 139 l 278 236 l 88 376 l 207 533 l 440 333 q 445 451 443 394 q 447 553 447 508 l 147 553 l 131 858 l 467 875 l 451 1028 l 110 996 l 110 1096 l 668 1101 l 678 808 l 371 799 l 371 636 l 694 622 q 686 492 692 565 q 672 339 681 418 q 655 185 664 260 q 636 48 646 110 q 618 -51 626 -14 l 206 -24 l 201 40 l 419 71 q 427 141 424 97 q 435 238 431 185 l 165 67 z "},"強":{"ha":1389,"x_min":81,"x_max":1308,"o":"m 603 -81 l 553 135 l 844 144 l 839 288 l 582 279 l 569 642 l 828 653 l 824 758 q 567 736 696 742 q 653 944 603 839 q 763 1140 704 1049 l 960 1101 q 892 983 926 1047 q 831 867 857 919 q 944 872 889 868 q 1057 881 999 875 l 1021 1018 l 1197 1051 l 1303 761 l 1099 721 l 1076 808 q 1026 794 1053 801 l 1021 661 l 1286 672 l 1286 303 l 1010 293 l 1004 150 l 1092 153 l 1089 228 l 1267 236 l 1308 -67 l 1100 -90 l 1094 56 l 603 -81 m 467 -85 l 81 25 l 103 106 l 281 75 q 300 187 292 125 q 313 310 308 249 q 318 419 318 371 l 119 431 l 132 763 l 344 781 l 331 981 l 113 942 l 100 1040 l 546 1069 l 546 710 l 353 697 l 333 500 l 542 490 q 514 181 533 326 q 467 -85 494 35 m 767 361 l 838 368 l 831 574 l 757 574 l 767 361 m 1094 574 l 1018 574 l 1013 383 l 1088 390 l 1094 574 z "},"当":{"ha":1389,"x_min":79,"x_max":1310,"o":"m 129 -61 l 135 76 l 999 47 l 999 232 l 139 219 l 139 357 l 999 344 l 999 532 l 125 499 l 119 636 l 564 635 l 547 1117 l 829 1114 l 813 635 l 1268 633 l 1246 -57 l 129 -61 m 988 692 l 876 792 l 1107 1107 l 1310 931 l 988 692 m 333 682 l 79 921 l 265 1079 l 499 821 l 333 682 z "},"形":{"ha":1389,"x_min":42,"x_max":1347,"o":"m 893 725 l 825 797 l 1153 1136 l 1303 943 l 893 725 m 271 -79 l 97 -58 q 161 546 139 256 l 42 543 l 42 685 l 171 682 q 182 986 181 844 l 53 988 l 53 1083 l 846 1096 l 846 975 l 758 976 l 758 667 l 869 664 l 869 564 l 758 561 l 758 -72 l 561 -68 l 540 556 l 376 551 q 329 230 356 389 q 271 -79 303 71 m 392 676 l 536 672 l 526 981 l 424 982 q 392 676 410 826 m 878 319 l 808 403 l 1189 767 l 1336 558 l 878 319 m 889 -72 l 818 6 l 1206 386 l 1347 164 l 889 -72 z "},"後":{"ha":1389,"x_min":24,"x_max":1365,"o":"m 647 157 l 497 296 l 839 524 l 550 443 l 511 636 l 644 647 l 718 703 l 556 856 l 969 1161 l 1068 1069 l 778 911 l 890 833 l 1132 1015 l 1219 919 l 821 663 l 1113 686 l 1092 789 l 1261 824 l 1349 529 l 1154 488 l 1129 604 l 978 563 l 1053 518 l 985 457 l 1294 419 l 1300 368 q 1124 192 1226 285 q 1365 106 1246 143 l 1208 -96 q 976 67 1078 -15 q 751 -103 867 -24 l 557 46 q 836 192 700 110 q 768 265 801 226 l 647 157 m 96 682 l 31 764 l 411 1125 l 568 993 l 96 682 m 90 364 l 24 453 l 439 861 l 599 729 l 300 514 l 456 500 q 458 316 456 418 q 466 105 461 214 q 478 -108 471 -4 l 221 -104 q 230 196 221 46 q 254 482 239 346 l 90 364 m 1085 364 l 899 381 l 836 325 q 953 267 893 296 q 1085 364 1021 314 z "},"心":{"ha":1389,"x_min":44,"x_max":1344,"o":"m 726 515 q 717 692 724 599 q 703 880 711 786 q 683 1054 694 974 l 876 1081 q 940 806 914 942 q 981 550 967 669 l 726 515 m 1193 -25 q 860 -22 1015 -25 q 582 -11 704 -18 q 382 6 460 -4 q 384 285 382 143 q 390 563 386 428 q 401 818 394 699 q 414 1029 407 938 l 610 1018 q 613 758 610 890 q 621 500 615 625 q 633 270 626 375 q 649 92 640 165 q 826 101 739 92 q 975 128 914 111 l 1043 438 l 1163 431 q 1193 -25 1193 225 m 1099 519 q 1055 749 1083 631 q 989 986 1026 868 l 1172 1025 q 1269 806 1225 919 q 1344 574 1313 693 l 1099 519 m 256 231 l 44 249 q 96 828 57 556 l 333 813 q 288 515 307 660 q 256 231 268 371 z "},"思":{"ha":1389,"x_min":43,"x_max":1346,"o":"m 1225 479 l 165 492 l 186 1122 l 1203 1133 l 1225 479 m 417 1050 l 407 865 l 588 863 l 593 1047 l 417 1050 m 975 1043 l 794 1046 l 800 860 l 985 857 l 975 1043 m 999 572 l 989 757 l 804 754 l 810 569 l 999 572 m 392 564 l 578 567 l 583 749 l 401 746 l 392 564 m 1128 -78 q 742 -71 928 -78 q 401 -50 556 -64 q 405 49 401 -10 q 415 177 408 108 q 429 314 421 246 q 446 439 438 382 l 632 433 q 634 319 632 392 q 640 165 636 247 q 647 10 643 83 q 804 14 721 10 q 956 25 888 18 l 1010 174 l 1121 158 l 985 379 l 1149 457 l 1346 196 l 1169 81 l 1135 136 l 1128 -78 m 215 -36 l 43 26 l 193 444 l 401 374 l 215 -36 m 728 100 l 711 422 l 908 432 l 949 103 l 728 100 z "},"戸":{"ha":1389,"x_min":83,"x_max":1306,"o":"m 1276 999 l 146 1010 l 142 1117 l 1283 1139 l 1276 999 m 281 -83 l 83 -62 q 113 287 101 117 q 132 604 125 457 q 139 863 139 751 l 1306 879 l 1290 425 l 383 432 q 340 178 365 310 q 281 -83 314 46 m 415 767 q 397 544 411 667 l 1035 522 l 1021 767 l 415 767 z "},"手":{"ha":1389,"x_min":47,"x_max":1342,"o":"m 88 547 l 82 690 l 571 682 q 565 856 568 771 l 149 819 l 135 921 l 1115 1146 l 1181 910 l 833 879 q 847 678 840 776 l 1307 669 l 1303 567 l 853 560 q 861 390 857 474 l 1342 394 l 1335 261 l 865 265 q 871 -90 871 82 l 364 -79 l 367 3 l 578 35 q 578 268 578 161 l 54 274 l 47 382 l 576 388 q 574 556 575 475 l 88 547 z "},"才":{"ha":1389,"x_min":96,"x_max":1293,"o":"m 158 63 l 96 161 q 364 317 215 236 q 678 482 513 399 q 669 781 675 635 l 114 747 l 99 900 l 665 914 q 654 1136 660 1035 l 979 1139 q 979 921 979 1029 l 1286 928 l 1290 817 l 978 799 q 975 626 976 711 q 1201 728 1089 679 l 1293 499 q 971 388 1126 443 q 957 -83 965 132 l 471 -75 l 463 1 l 682 32 q 681 281 682 154 q 158 63 393 169 z "},"教":{"ha":1389,"x_min":33,"x_max":1356,"o":"m 115 118 l 78 243 l 329 282 l 332 322 l 525 500 l 363 469 q 185 301 272 379 l 33 435 q 315 642 193 546 l 65 619 l 58 735 l 308 742 q 292 882 297 803 l 129 869 l 133 985 l 288 982 q 285 1150 285 1054 l 507 1156 q 499 1060 503 1104 q 492 979 494 1017 l 678 976 q 704 1007 692 992 l 774 936 q 622 751 700 843 l 731 756 q 779 913 757 835 q 817 1056 801 992 q 838 1154 833 1119 l 1038 1122 q 996 994 1021 1064 q 940 851 971 925 l 1310 857 l 1300 754 l 1242 758 q 1169 566 1214 669 q 1068 356 1124 463 q 1219 186 1143 268 q 1356 44 1294 104 l 1154 -100 q 968 179 1054 38 q 878 37 925 107 q 785 -97 832 -33 l 635 -21 q 749 167 690 64 q 858 376 807 271 q 789 525 819 453 q 735 433 760 471 l 654 461 l 531 382 l 533 314 l 740 346 l 756 274 l 536 221 l 546 -87 l 192 -67 l 192 -7 l 314 4 l 324 168 l 115 118 m 485 897 q 478 778 479 826 q 614 908 553 844 l 485 897 m 844 635 q 928 525 881 585 q 984 660 960 596 q 1022 772 1008 724 l 911 781 q 844 635 878 704 m 465 576 l 668 569 q 706 678 686 618 l 544 663 q 465 576 506 619 z "},"数":{"ha":1389,"x_min":33,"x_max":1356,"o":"m 285 -107 l 104 19 q 187 69 143 40 q 275 135 231 99 q 133 171 204 160 l 193 347 l 38 346 l 49 464 l 229 456 l 272 581 l 313 571 l 304 732 l 151 508 l 71 558 l 174 757 l 46 742 l 33 842 l 297 864 l 293 935 l 174 864 l 38 1029 l 168 1132 l 292 968 l 282 1154 l 474 1161 l 474 879 l 699 899 l 703 819 l 603 808 l 696 706 q 749 872 724 786 q 794 1033 774 957 q 824 1163 814 1110 l 1031 1132 q 997 1012 1019 1082 q 942 864 974 942 l 1319 869 l 1315 767 l 1239 769 q 1178 576 1218 685 q 1089 356 1139 468 q 1230 196 1160 271 q 1356 71 1300 121 l 1175 -89 q 1089 31 1133 -36 q 1001 171 1044 99 q 926 31 964 97 q 850 -92 888 -36 l 690 -32 q 786 155 735 46 q 885 378 838 264 q 800 554 835 474 q 746 457 771 499 l 622 504 q 667 621 642 550 l 572 560 l 474 753 l 474 514 l 396 510 l 361 449 l 794 428 l 797 350 l 647 349 q 572 208 618 281 q 725 126 664 171 l 569 -54 q 450 44 515 0 q 367 -42 410 -3 q 285 -107 325 -81 m 581 910 l 490 953 l 596 1158 l 721 1086 l 581 910 m 854 661 q 947 532 894 601 q 997 665 975 601 q 1033 779 1019 729 l 910 785 q 854 661 882 721 m 272 293 q 419 263 343 283 q 500 349 464 307 l 303 347 l 272 293 z "},"文":{"ha":1389,"x_min":72,"x_max":1317,"o":"m 336 -103 l 88 67 q 326 194 206 117 q 558 363 447 271 q 374 594 458 478 q 231 810 289 710 l 72 813 l 78 917 l 575 925 l 561 1168 l 828 1160 l 815 929 l 1311 938 l 1317 792 l 1119 794 q 1028 613 1086 710 q 899 418 971 515 q 1303 113 1071 276 l 1043 -111 q 879 28 964 -50 q 710 194 794 107 q 517 14 614 93 q 336 -103 419 -65 m 506 806 q 751 546 600 683 q 859 674 811 610 q 940 799 907 738 l 506 806 z "},"新":{"ha":1389,"x_min":61,"x_max":1328,"o":"m 171 -32 l 83 4 l 211 393 l 68 383 l 64 496 l 321 496 l 324 589 l 61 582 l 65 689 l 179 686 l 168 878 l 64 879 l 74 949 l 325 956 l 311 1150 l 519 1160 l 513 961 l 732 968 l 742 874 l 663 874 l 644 672 l 729 669 l 726 600 l 479 593 l 482 496 l 728 496 l 733 428 l 639 421 l 732 107 l 586 31 l 486 374 l 501 -103 l 296 -97 l 313 313 l 171 -32 m 968 -72 l 744 -64 q 767 216 760 81 q 775 489 775 351 q 773 645 775 563 q 765 825 771 728 q 926 927 853 878 q 1068 1028 999 976 q 1210 1142 1138 1081 l 1307 994 q 1113 900 1197 938 q 956 839 1029 863 q 964 707 961 767 l 1319 740 l 1328 631 l 1260 631 l 1310 -56 l 1090 -67 l 1061 628 l 968 626 q 974 474 972 549 q 975 313 975 399 q 974 174 975 247 q 972 36 974 101 q 968 -72 971 -29 m 363 681 l 458 678 l 458 876 l 368 876 l 363 681 z "},"方":{"ha":1389,"x_min":78,"x_max":1311,"o":"m 300 -89 l 142 -26 q 261 247 203 103 q 367 528 319 390 q 443 778 414 667 l 86 781 l 78 881 l 560 886 l 546 1147 l 844 1140 l 831 889 l 1311 894 l 1303 772 l 743 776 q 696 656 722 721 l 1207 636 q 1201 468 1207 561 q 1187 276 1196 375 q 1165 81 1178 176 q 1138 -92 1153 -14 l 649 -32 l 663 75 l 876 71 q 917 301 903 192 q 938 517 932 411 l 651 556 q 535 316 597 438 q 412 89 474 194 q 300 -89 350 -17 z "},"日":{"ha":1389,"x_min":172,"x_max":1217,"o":"m 1217 -44 l 933 -33 q 936 43 935 6 l 454 47 q 457 -21 456 13 l 172 -32 q 178 501 172 215 q 193 1096 183 788 l 1196 1089 q 1208 720 1203 903 q 1215 349 1213 538 q 1217 -44 1217 161 m 443 969 q 444 653 443 803 l 949 633 q 949 650 949 642 q 947 822 949 733 q 943 985 946 911 l 443 969 m 446 500 q 448 323 446 408 q 451 160 450 238 l 940 179 q 945 352 943 267 q 949 524 947 438 l 446 500 z "},"早":{"ha":1389,"x_min":57,"x_max":1332,"o":"m 63 188 l 57 333 l 550 328 l 556 486 l 157 485 q 159 808 157 651 q 167 1110 161 964 l 1222 1107 q 1232 828 1229 989 q 1235 489 1235 667 l 835 488 l 840 325 l 1332 319 l 1326 215 l 844 204 l 853 -54 l 538 -54 l 546 199 l 63 188 m 432 1000 q 422 849 426 925 l 964 856 q 957 1006 961 933 l 432 1000 m 969 592 q 968 733 969 657 l 418 740 q 415 596 415 663 l 969 592 z "},"明":{"ha":1389,"x_min":69,"x_max":1319,"o":"m 1319 -67 l 971 -37 l 974 32 l 1113 51 l 1103 356 l 907 346 q 886 148 897 249 q 863 -54 875 47 l 661 -47 q 689 388 678 176 q 706 787 700 600 q 711 1122 711 974 l 1319 1111 l 1319 -67 m 69 125 l 69 1064 l 617 1053 l 617 125 l 69 125 m 950 1019 q 940 761 950 921 l 1089 771 l 1081 1029 l 950 1019 m 301 968 l 290 647 l 411 640 l 400 975 l 301 968 m 918 472 l 1100 449 l 1093 646 l 933 657 q 918 472 926 568 m 425 197 l 414 550 l 288 533 l 276 207 l 425 197 z "},"星":{"ha":1389,"x_min":58,"x_max":1331,"o":"m 85 -58 l 89 39 l 600 49 l 604 156 l 228 143 l 222 278 l 607 276 l 611 379 l 315 382 l 136 236 l 58 282 l 240 596 l 147 597 l 131 1101 l 1260 1114 l 1242 588 l 847 592 l 851 475 l 1285 479 l 1285 372 l 856 376 l 858 275 l 1251 272 l 1247 178 l 863 165 l 867 54 l 1324 64 l 1331 -54 l 85 -58 m 392 1017 l 392 903 l 999 893 l 999 1007 l 392 1017 m 392 685 l 999 692 l 999 801 l 392 789 l 392 685 m 504 536 l 424 471 l 614 472 l 618 593 l 426 594 l 504 536 z "},"春":{"ha":1389,"x_min":21,"x_max":1368,"o":"m 101 147 l 21 207 q 240 489 140 346 l 63 486 l 67 611 l 319 608 q 375 699 349 653 l 164 699 l 160 790 l 431 796 q 481 897 457 847 l 104 889 l 96 1003 l 526 1001 q 578 1144 557 1075 l 839 1114 q 797 1000 822 1058 l 1292 999 l 1283 914 l 774 903 q 849 804 806 857 l 1231 813 l 1225 696 l 943 697 q 1039 599 989 647 l 1322 594 l 1326 507 l 1139 504 q 1253 406 1196 453 q 1368 317 1311 358 l 1164 164 q 1040 290 1101 225 l 1028 -89 l 303 -85 l 289 307 q 101 147 197 221 m 558 604 l 785 601 q 719 697 749 651 l 626 697 q 558 604 594 651 m 468 493 q 390 408 431 450 l 932 413 q 861 499 896 456 l 468 493 m 515 315 l 515 218 l 815 204 l 815 310 l 515 315 m 515 4 l 815 11 l 815 111 l 515 104 l 515 4 z "},"昼":{"ha":1389,"x_min":49,"x_max":1340,"o":"m 278 121 l 49 168 q 121 619 93 390 q 163 1094 149 847 l 1235 1111 l 1271 810 l 1201 808 q 1267 452 1232 614 q 1340 168 1303 290 l 1113 119 q 1049 447 1076 271 q 1006 807 1021 624 l 356 799 q 338 571 349 689 q 311 338 326 453 q 278 121 296 222 m 361 1000 q 360 917 361 961 l 1031 897 l 1031 1017 l 361 1000 m 399 142 l 399 721 l 976 714 l 976 150 l 399 142 m 597 631 l 590 488 l 785 475 l 778 638 l 597 631 m 797 224 l 790 372 l 585 376 l 578 231 l 797 224 m 114 -56 l 114 69 l 1275 61 l 1275 -33 l 114 -56 z "},"時":{"ha":1389,"x_min":54,"x_max":1335,"o":"m 744 1 l 557 278 l 722 382 l 535 386 l 529 481 l 976 490 l 976 608 l 521 586 l 515 703 l 783 706 l 779 844 l 544 846 l 538 940 l 775 947 l 769 1140 l 1031 1136 l 1025 956 l 1272 963 l 1276 842 l 1021 843 l 1017 708 l 1335 711 l 1335 625 l 1196 618 l 1199 496 l 1321 499 l 1317 371 l 1203 374 l 1218 -85 l 829 -74 l 824 -1 l 976 19 l 976 378 l 749 382 l 904 113 l 744 1 m 88 22 l 54 1022 l 500 1018 l 468 33 l 88 22 m 243 947 l 243 574 l 313 572 l 313 942 l 243 947 m 243 106 l 313 111 l 313 479 l 243 475 l 243 106 z "},"晴":{"ha":1389,"x_min":67,"x_max":1322,"o":"m 67 44 l 67 1001 l 488 1017 l 488 696 l 808 707 l 806 783 l 551 778 l 556 883 l 803 882 l 800 958 l 531 960 l 526 1039 l 797 1046 l 794 1139 l 1022 1133 l 1019 1050 l 1283 1057 l 1288 957 l 1017 958 l 1014 881 l 1258 879 l 1261 794 l 1011 789 l 1008 715 l 1322 726 l 1322 624 l 488 613 l 488 49 l 67 44 m 221 936 l 238 571 l 315 574 l 304 936 l 221 936 m 1279 -82 l 956 -49 l 961 17 l 1067 25 l 1067 106 l 767 110 l 772 -65 l 550 -76 l 571 543 l 1258 560 l 1279 -82 m 260 110 l 331 124 l 319 486 l 242 492 l 260 110 m 754 461 l 757 375 l 1067 369 l 1067 458 l 754 461 m 761 276 l 764 183 l 1067 203 l 1067 294 l 761 276 z "},"曜":{"ha":1389,"x_min":54,"x_max":1335,"o":"m 54 46 l 54 1000 l 425 1007 l 451 493 l 615 689 l 488 681 l 483 772 l 719 772 l 714 867 l 482 849 l 486 950 l 710 947 l 704 1038 l 471 1038 l 476 1132 l 903 1100 l 889 708 l 749 699 l 811 656 l 719 572 l 897 586 l 939 685 l 938 685 l 942 767 l 1142 760 l 1142 867 l 932 854 l 932 946 l 1142 939 l 1142 1035 l 939 1039 l 939 1136 l 1335 1089 l 1306 688 l 1153 686 l 1085 600 l 1297 617 l 1308 513 l 1131 506 l 1124 404 l 1271 411 l 1271 304 l 1117 304 l 1111 215 l 1261 218 l 1265 111 l 1104 115 l 1097 22 l 1297 28 l 1293 -81 l 564 -65 l 547 417 l 458 336 l 472 64 l 54 46 m 217 929 l 217 574 l 286 568 l 272 938 l 217 929 m 756 492 l 756 386 l 925 394 l 925 499 l 756 492 m 303 122 l 289 490 l 217 488 l 217 131 l 303 122 m 756 304 l 756 208 l 925 213 l 925 304 l 756 304 m 756 13 l 925 17 l 925 121 l 756 126 l 756 13 z "},"書":{"ha":1389,"x_min":64,"x_max":1325,"o":"m 100 364 l 96 453 l 553 451 l 556 519 l 143 517 l 139 589 l 557 599 l 560 665 l 163 653 l 151 747 l 563 747 l 565 825 l 68 833 l 64 904 l 568 908 l 569 981 l 151 976 l 146 1064 l 572 1061 l 575 1142 l 781 1139 l 783 1058 l 1229 1056 l 1222 913 l 1325 914 l 1321 811 l 1218 813 l 1213 686 l 796 672 l 797 603 l 1229 613 l 1225 525 l 800 522 l 803 451 l 1265 450 l 1261 375 l 100 364 m 989 986 l 786 983 l 788 910 l 992 911 l 989 986 m 997 747 l 994 817 l 790 821 l 793 747 l 997 747 m 140 -86 l 154 307 l 1236 310 l 1249 -78 l 140 -86 m 376 228 l 376 153 l 1013 163 l 1013 228 l 376 228 m 1013 -3 l 1013 67 l 376 75 l 376 8 l 1013 -3 z "},"月":{"ha":1389,"x_min":136,"x_max":1253,"o":"m 328 -60 l 136 -40 q 197 341 172 143 q 235 737 222 539 q 249 1115 249 935 l 1226 1106 q 1237 815 1232 969 q 1245 503 1242 660 q 1251 202 1249 346 q 1253 -57 1253 58 l 774 -43 l 763 40 l 990 72 q 988 303 990 175 l 431 310 q 381 104 407 199 q 328 -60 354 10 m 531 986 q 508 768 522 881 l 968 782 q 954 1004 963 904 l 531 986 m 458 449 l 985 414 q 976 626 981 519 l 492 654 q 458 449 476 550 z "},"朝":{"ha":1389,"x_min":53,"x_max":1336,"o":"m 286 -78 l 293 126 l 53 136 l 56 215 l 296 218 l 299 313 l 101 307 l 82 835 l 278 838 l 275 929 l 58 932 l 58 1006 l 271 1014 l 267 1132 l 510 1139 l 501 1022 l 689 1029 l 693 925 l 496 928 l 489 842 l 689 844 l 671 322 l 500 318 l 508 221 l 688 224 l 683 110 l 517 117 l 531 -68 l 286 -78 m 1336 -83 l 1031 -56 l 1031 14 l 1125 25 l 1113 328 l 946 321 q 922 -76 936 138 l 729 -69 q 743 488 739 203 q 747 1094 747 772 l 1290 1111 l 1336 -83 m 964 1015 q 961 760 964 890 l 1096 750 l 1086 1011 l 964 1015 m 303 758 l 299 624 l 493 617 l 488 761 l 303 758 m 951 444 l 1110 425 l 1100 660 l 958 636 q 951 444 956 543 m 500 396 l 496 533 l 294 524 l 290 399 l 500 396 z "},"木":{"ha":1389,"x_min":24,"x_max":1365,"o":"m 136 13 l 24 83 q 342 738 165 425 q 69 747 207 742 l 79 849 q 291 840 182 843 q 515 838 400 838 q 533 838 525 838 q 544 1139 539 988 l 799 1139 q 813 843 807 979 q 1285 871 1044 850 l 1290 733 q 1172 731 1235 732 q 1029 729 1110 729 q 1127 589 1078 663 q 1222 444 1176 515 q 1305 310 1268 372 q 1365 203 1342 247 l 1119 14 q 1058 144 1094 68 q 981 305 1022 221 q 898 469 939 389 q 824 615 857 550 q 837 223 832 393 q 842 -76 842 53 l 519 -83 q 528 624 519 269 q 136 13 336 356 z "},"本":{"ha":1389,"x_min":24,"x_max":1365,"o":"m 125 47 l 24 101 q 195 442 114 283 q 354 747 276 601 q 209 737 282 743 q 60 724 136 731 l 65 865 q 299 872 188 869 q 511 878 410 875 q 508 1139 508 1022 l 818 1139 q 817 881 818 1014 q 1010 879 900 881 q 1271 874 1119 878 l 1279 772 q 1138 772 1206 772 q 1007 771 1071 772 q 1365 232 1189 538 l 1138 51 q 813 626 1004 324 q 803 265 808 451 l 992 274 l 992 121 l 799 125 q 790 -78 794 25 l 551 -83 q 539 132 544 25 l 322 138 l 322 242 l 533 251 q 518 639 524 453 q 340 378 436 522 q 125 47 244 233 z "},"村":{"ha":1389,"x_min":43,"x_max":1346,"o":"m 142 144 l 56 181 l 188 775 l 56 767 l 43 893 l 290 894 l 299 1138 l 453 1143 l 461 894 l 660 896 l 664 807 l 575 801 l 750 356 l 574 300 l 468 682 l 493 -87 l 258 -87 l 283 669 l 142 144 m 1256 -85 l 829 -64 l 833 22 l 1001 25 l 1026 811 l 717 819 l 713 913 l 1031 921 l 1038 1140 l 1215 1136 l 1222 926 l 1346 929 l 1346 801 l 1226 804 l 1256 -85 m 803 251 l 740 692 l 931 710 l 963 265 l 803 251 z "},"来":{"ha":1389,"x_min":56,"x_max":1333,"o":"m 156 -74 l 56 -4 q 318 432 176 235 l 68 426 l 60 561 l 289 560 l 153 793 l 271 882 l 86 883 l 92 978 l 576 981 l 582 1139 l 807 1144 l 813 983 l 1297 986 l 1303 875 l 1129 876 l 1261 708 l 972 558 l 1329 557 l 1329 456 l 1038 449 q 1333 114 1203 297 l 1101 -75 q 832 365 990 146 l 847 -89 l 542 -83 l 557 360 q 358 155 460 265 q 156 -74 257 44 m 528 690 l 336 560 l 563 560 l 574 881 l 339 882 l 528 690 m 858 644 l 1081 876 l 815 878 l 826 558 l 910 558 l 858 644 z "},"東":{"ha":1389,"x_min":56,"x_max":1333,"o":"m 169 -74 l 56 -4 l 310 329 l 182 331 l 165 836 l 575 840 l 578 922 l 93 917 l 99 1028 l 581 1022 l 585 1144 l 806 1139 l 810 1021 l 1290 1015 l 1296 929 l 813 924 l 815 843 l 1225 847 l 1207 319 l 1046 321 l 1333 86 l 1088 -75 l 835 246 l 846 -83 l 544 -89 l 556 267 l 169 -74 m 419 756 l 415 633 l 568 636 l 572 754 l 419 756 m 969 753 l 818 754 l 822 643 l 974 646 l 969 753 m 408 411 l 561 413 l 565 531 l 413 533 l 408 411 m 981 414 l 976 521 l 826 525 l 829 413 l 981 414 z "},"林":{"ha":1389,"x_min":26,"x_max":1363,"o":"m 124 144 l 38 181 l 158 771 l 42 763 l 26 888 l 251 890 l 251 1144 l 414 1142 l 428 892 l 625 893 l 629 806 l 533 799 l 689 449 l 763 811 l 665 817 l 669 910 l 861 908 l 869 1144 l 1024 1138 l 1031 907 l 1313 904 l 1308 776 l 1140 788 l 1363 176 l 1172 69 l 1042 600 l 1064 -81 l 829 -87 l 853 646 l 714 96 l 622 121 l 669 351 l 538 289 l 440 647 l 481 -87 l 251 -83 l 251 635 l 124 144 z "},"校":{"ha":1389,"x_min":43,"x_max":1346,"o":"m 139 168 l 50 204 l 185 771 l 57 760 l 43 883 l 246 888 l 246 1156 l 424 1156 l 433 892 l 597 896 l 597 808 l 497 800 l 642 600 l 706 856 l 633 857 l 633 946 l 853 953 l 840 1156 l 1061 1165 l 1053 960 l 1299 968 l 1303 844 l 1176 847 l 1346 544 l 1207 394 l 1004 768 l 1132 847 l 744 856 l 928 749 l 664 371 l 592 399 l 622 525 l 513 457 l 444 629 l 472 -78 l 246 -99 l 246 539 l 139 168 m 653 -90 l 575 -28 q 690 128 625 36 q 824 317 756 219 q 742 453 779 388 l 836 526 q 913 449 871 490 q 1006 590 965 526 l 1151 439 q 1050 318 1111 388 q 1197 183 1125 247 q 1319 79 1268 119 l 1135 -110 q 1025 28 1079 -43 q 919 174 971 100 q 774 24 846 96 q 653 -90 703 -47 z "},"森":{"ha":1389,"x_min":38,"x_max":1351,"o":"m 151 567 l 96 629 l 457 907 l 151 900 l 140 1006 l 571 1007 l 578 1140 l 786 1147 l 790 1007 l 1229 1008 l 1221 926 l 947 919 l 1326 738 l 1161 574 l 797 821 l 807 540 l 549 533 l 563 818 l 151 567 m 124 -8 l 38 14 l 189 372 l 74 368 l 69 478 l 288 478 l 304 639 l 483 636 l 478 478 l 668 478 l 674 389 l 575 386 l 703 144 l 796 385 l 711 385 l 717 469 l 854 476 l 849 631 l 1031 640 l 1043 488 l 1311 501 l 1315 382 l 1164 383 l 1351 76 l 1197 -8 l 1060 289 l 1092 -82 l 872 -92 l 861 249 l 722 -40 l 642 -12 l 669 58 l 557 15 l 471 265 l 460 -86 l 232 -81 l 268 285 l 124 -8 z "},"楽":{"ha":1389,"x_min":26,"x_max":1363,"o":"m 157 -68 l 82 -7 q 276 141 192 71 q 433 283 361 211 l 83 282 l 100 376 l 594 382 q 606 467 599 425 l 404 463 l 411 656 l 174 468 l 86 539 l 267 713 l 26 874 l 201 1044 l 415 804 l 422 986 l 597 989 l 635 1183 l 868 1156 l 789 993 l 983 997 l 989 839 l 1218 1085 l 1333 971 l 1124 824 l 1358 642 l 1179 471 l 994 692 l 1001 475 l 801 471 q 811 385 807 428 l 1282 390 l 1307 286 l 978 285 q 1163 167 1067 222 q 1363 65 1260 113 l 1126 -71 q 826 182 947 54 q 831 -97 831 67 l 572 -97 q 578 169 572 53 q 374 39 478 97 q 157 -68 269 -19 m 606 897 l 610 788 l 794 775 l 794 908 l 606 897 m 794 550 l 794 685 l 613 675 l 617 553 l 794 550 z "},"歌":{"ha":1389,"x_min":58,"x_max":1331,"o":"m 792 560 l 685 575 q 710 791 696 685 q 740 990 724 897 q 771 1154 756 1083 l 992 1107 q 936 986 965 1054 l 1331 1007 q 1318 888 1328 954 q 1292 749 1308 821 q 1258 613 1276 678 q 1219 500 1239 549 l 1076 526 q 1099 672 1089 596 q 1117 814 1110 749 q 1125 915 1124 879 l 907 915 q 840 730 871 824 q 792 560 810 636 m 453 547 l 490 1011 l 78 1017 l 81 1088 l 708 1103 l 713 1008 l 643 1010 l 643 550 l 453 547 m 110 607 l 97 956 l 432 953 l 415 619 l 110 607 m 292 667 l 292 908 l 239 900 l 231 669 l 292 667 m 840 -87 l 711 -61 q 751 145 729 38 q 795 360 772 253 q 842 563 818 467 q 886 736 865 658 q 924 861 907 814 l 1090 819 q 1052 699 1072 764 q 1013 565 1032 635 q 1140 325 1065 451 q 1331 31 1214 199 l 1121 -93 q 1065 26 1096 -43 q 1003 172 1035 94 q 944 326 972 250 q 885 100 913 208 q 840 -87 857 -8 m 379 -97 l 375 -42 l 490 -14 l 511 433 l 68 422 l 58 528 l 765 506 l 761 439 l 685 438 l 668 -83 l 379 -97 m 99 28 l 99 374 l 429 378 l 440 47 l 99 28 m 303 94 l 292 333 l 244 324 l 236 100 l 303 94 z "},"止":{"ha":1389,"x_min":72,"x_max":1317,"o":"m 85 -28 l 72 64 q 214 72 142 68 q 184 404 194 239 q 174 699 174 569 l 465 701 q 444 386 451 538 q 438 83 438 235 q 644 90 539 88 q 639 421 644 243 q 624 780 633 599 q 601 1124 614 961 l 933 1133 q 931 722 933 938 l 1288 757 l 1294 617 l 928 611 q 922 356 925 485 q 914 97 918 226 q 1317 101 1118 101 l 1311 -22 q 1031 -15 1161 -17 q 786 -12 901 -12 q 447 -17 622 -12 q 85 -28 271 -21 z "},"正":{"ha":1389,"x_min":71,"x_max":1318,"o":"m 83 -46 l 71 46 q 214 54 140 50 q 208 201 213 117 q 196 376 203 286 q 181 542 189 465 q 165 664 172 619 l 454 667 q 453 488 454 592 q 449 274 451 385 q 442 67 446 163 q 636 75 539 71 q 634 406 636 256 q 627 692 632 557 q 614 960 622 828 q 424 961 531 960 q 167 967 318 963 l 157 1068 q 584 1072 394 1068 q 931 1083 774 1075 q 1232 1101 1089 1090 l 1224 969 q 1078 965 1150 967 q 939 963 1007 963 q 935 789 938 886 q 929 583 933 692 l 1283 599 l 1289 465 l 925 479 q 916 277 921 378 q 906 83 911 176 q 1122 89 1017 88 q 1318 90 1226 90 l 1313 -40 q 1036 -33 1168 -35 q 785 -31 904 -31 q 443 -35 617 -31 q 83 -46 269 -39 z "},"歩":{"ha":1389,"x_min":51,"x_max":1338,"o":"m 321 -87 l 92 64 q 740 285 461 149 l 418 332 l 421 404 l 590 415 l 582 671 l 51 665 l 57 783 l 210 782 l 210 1064 l 457 1053 l 425 779 l 578 778 l 567 1138 l 842 1143 l 836 997 l 1232 1019 l 1236 899 l 833 899 l 829 774 l 1332 768 l 1338 679 l 826 674 l 814 324 q 978 422 900 369 l 885 569 l 1033 644 l 1328 354 l 1146 154 l 1047 311 q 321 -87 792 51 m 136 174 l 61 233 l 304 646 l 497 510 l 136 174 z "},"母":{"ha":1389,"x_min":43,"x_max":1346,"o":"m 708 -67 l 706 18 l 938 47 q 940 119 939 83 l 139 111 q 143 313 139 193 q 156 574 147 432 q 50 576 104 575 l 43 668 q 161 668 103 668 q 177 892 168 776 q 196 1122 186 1007 l 1225 1115 q 1222 905 1225 1021 q 1214 663 1219 789 q 1346 661 1282 663 l 1340 532 q 1208 539 1275 536 q 1190 214 1201 371 l 1296 210 l 1292 122 l 1183 121 q 1169 -60 1176 24 l 708 -67 m 444 1007 q 422 668 431 836 q 701 666 567 667 q 958 665 835 665 q 961 1021 961 850 l 444 1007 m 763 686 l 490 869 l 600 992 l 904 853 l 763 686 m 411 242 l 944 222 q 956 550 951 388 q 703 560 836 556 q 417 568 569 564 q 411 242 411 403 m 781 253 l 492 404 l 596 535 l 914 429 l 781 253 z "},"毎":{"ha":1389,"x_min":43,"x_max":1346,"o":"m 157 588 l 68 629 l 249 1160 l 499 1064 l 449 994 l 1242 1003 l 1254 922 l 360 871 l 157 588 m 49 356 l 43 488 l 240 486 q 294 654 267 575 q 344 792 321 733 l 1263 803 q 1235 481 1249 626 l 1346 481 l 1339 388 l 1225 385 q 1203 194 1214 282 l 1294 199 l 1300 81 l 1186 79 q 1156 -97 1172 -19 l 708 -104 l 706 -25 l 931 6 q 942 78 936 39 l 129 69 q 163 213 144 139 q 203 360 182 286 l 49 356 m 535 711 q 502 602 518 660 q 471 485 486 544 l 622 485 q 663 711 643 613 l 535 711 m 1010 711 l 886 711 q 838 483 861 601 l 990 482 q 1010 711 1001 599 m 818 375 q 788 176 799 265 l 957 183 q 979 379 968 276 l 818 375 m 407 160 l 574 167 q 603 369 589 274 l 444 365 q 407 160 421 253 z "},"毛":{"ha":1389,"x_min":47,"x_max":1342,"o":"m 54 278 l 47 386 q 447 403 243 393 q 443 565 444 482 q 263 555 353 560 q 83 546 174 550 l 68 689 q 440 700 254 694 q 439 844 439 774 l 149 819 l 135 921 l 1122 1146 l 1181 910 l 742 871 q 738 710 739 793 q 1015 719 876 714 q 1293 731 1153 725 l 1300 628 q 1013 605 1154 615 q 735 585 872 594 q 732 415 733 501 q 1342 450 1024 431 l 1335 317 q 1028 303 1179 310 q 731 293 876 297 q 729 17 729 156 q 887 7 797 11 q 1053 3 976 3 l 1093 222 l 1271 204 l 1281 -81 q 867 -88 1065 -86 q 475 -90 669 -90 q 463 74 468 -22 q 451 286 457 171 q 54 278 251 281 z "},"気":{"ha":1389,"x_min":63,"x_max":1326,"o":"m 176 638 l 63 665 l 183 1151 l 460 1079 l 393 975 l 1224 981 l 1226 896 l 319 860 l 176 638 m 311 678 l 311 774 l 1149 803 l 1154 681 l 311 678 m 1326 -96 q 1086 -76 1183 -96 q 931 -10 989 -57 q 847 115 872 36 q 821 311 821 193 q 822 378 821 338 q 828 471 824 419 l 150 482 l 154 578 l 1121 588 q 1090 412 1101 503 q 1079 247 1079 321 q 1100 87 1079 146 q 1157 22 1121 28 l 1203 263 l 1326 247 l 1326 -96 m 163 -93 l 83 -6 l 285 163 l 124 303 l 247 435 l 444 294 l 617 439 l 767 278 l 607 179 l 774 61 l 581 -94 l 407 57 l 163 -93 z "},"水":{"ha":1389,"x_min":44,"x_max":1344,"o":"m 176 8 l 44 88 q 202 426 132 258 q 315 733 272 594 l 47 736 l 68 871 l 554 801 q 538 1135 547 971 l 842 1149 q 841 949 842 1058 q 838 725 840 840 l 1179 989 l 1307 808 l 971 635 q 1142 422 1044 529 q 1344 224 1239 314 l 1093 4 q 832 431 942 203 q 825 154 829 286 q 817 -79 821 22 l 397 -40 l 407 46 l 572 54 q 569 317 572 178 q 563 606 567 457 q 393 315 492 468 q 176 8 294 161 z "},"池":{"ha":1389,"x_min":38,"x_max":1351,"o":"m 1035 129 l 864 136 l 844 686 q 747 678 794 682 q 760 353 751 521 q 781 25 769 186 l 1149 36 l 1199 242 l 1336 224 l 1325 -68 l 556 -44 q 544 311 549 132 q 538 657 540 490 q 433 643 481 650 l 421 728 q 536 756 478 743 q 535 929 536 846 q 535 1086 535 1013 l 739 1093 q 743 796 739 960 q 840 813 790 804 l 829 1136 l 1068 1128 l 1058 842 q 1333 869 1186 857 l 1351 322 l 1088 328 l 1081 393 l 1154 415 l 1139 707 q 1054 701 1096 704 l 1035 129 m 378 726 l 76 924 l 211 1111 l 481 861 l 378 726 m 390 408 l 38 540 l 140 756 l 464 549 l 390 408 m 208 -79 l 71 40 l 414 365 l 490 293 l 208 -79 z "},"汽":{"ha":1389,"x_min":33,"x_max":1356,"o":"m 549 638 l 446 665 l 556 1151 l 779 1079 l 726 978 l 1317 982 l 1317 865 l 681 889 l 549 638 m 351 736 l 72 940 l 200 1128 l 450 896 l 351 736 m 668 668 l 678 788 l 1250 774 l 1254 679 l 668 668 m 375 458 l 33 557 l 132 768 l 433 615 l 375 458 m 1333 -96 q 1099 -65 1186 -96 q 972 38 1011 -33 q 933 229 933 110 q 939 335 933 276 q 956 465 944 393 l 490 458 l 490 560 l 1229 588 q 1190 444 1207 519 q 1165 299 1174 369 q 1156 169 1156 228 q 1203 22 1156 38 l 1249 263 l 1356 249 l 1333 -96 m 204 -72 l 53 29 l 422 393 l 513 328 l 204 -72 z "},"活":{"ha":1389,"x_min":35,"x_max":1354,"o":"m 568 551 l 560 633 l 844 653 l 849 792 l 624 713 l 585 774 l 1146 1150 l 1326 961 l 1075 872 l 1082 669 l 1350 688 l 1354 568 l 1085 563 l 1089 435 l 1318 440 l 1294 -78 l 621 -72 l 604 422 l 836 428 l 842 557 l 568 551 m 469 706 l 101 914 l 232 1108 l 569 849 l 469 706 m 465 425 l 35 522 l 107 743 l 519 589 l 465 425 m 213 -78 l 71 74 l 504 376 l 569 300 l 213 -78 m 1072 -7 l 1060 350 l 861 343 l 861 0 l 1072 -7 z "},"海":{"ha":1389,"x_min":33,"x_max":1356,"o":"m 494 663 l 429 690 l 556 1164 l 765 1064 l 718 993 l 1332 979 l 1329 899 l 635 871 l 494 663 m 351 735 l 72 939 l 200 1126 l 450 894 l 351 735 m 436 381 l 432 499 l 543 496 l 603 794 l 1300 794 l 1275 474 l 1356 471 l 1349 386 l 1268 386 l 1251 176 l 1317 182 l 1321 71 l 1243 68 l 1229 -107 l 904 -107 l 901 -28 l 1054 -28 l 1060 63 l 454 44 l 521 381 l 436 381 m 358 442 l 33 556 l 132 767 l 429 599 l 358 442 m 763 713 l 728 490 l 821 488 l 838 708 l 763 713 m 1103 694 l 1021 699 l 999 482 l 1089 479 l 1103 694 m 988 383 l 964 154 l 1067 163 l 1082 385 l 988 383 m 674 131 l 793 140 l 813 383 l 713 382 l 674 131 m 204 -74 l 53 28 l 353 378 l 443 313 l 204 -74 z "},"火":{"ha":1389,"x_min":54,"x_max":1335,"o":"m 161 -58 l 54 32 q 420 495 290 225 q 564 1115 550 765 l 864 1101 q 758 625 849 844 q 1005 398 863 511 q 1335 165 1147 285 l 1107 -60 q 999 42 1057 -18 q 881 171 940 101 q 766 312 821 240 q 669 449 711 383 q 161 -58 493 156 m 1119 521 l 961 554 l 1039 1069 l 1318 1001 l 1119 521 m 117 543 l 75 1054 l 351 1060 l 351 557 l 117 543 z "},"点":{"ha":1389,"x_min":86,"x_max":1303,"o":"m 1211 286 l 171 299 l 157 713 l 536 718 l 514 1132 l 819 1135 l 811 969 l 1301 990 l 1290 850 l 806 856 l 799 722 l 1226 729 l 1211 286 m 460 386 l 928 389 l 919 625 l 468 625 l 460 386 m 318 -71 l 86 -58 l 121 240 l 342 228 l 318 -71 m 1074 -72 l 1050 224 l 1268 235 l 1303 -64 l 1074 -72 m 747 -79 l 738 219 l 957 229 l 972 -69 l 747 -79 m 417 -72 l 432 225 l 658 219 l 647 -65 l 417 -72 z "},"父":{"ha":1389,"x_min":51,"x_max":1338,"o":"m 1114 496 q 1012 669 1072 574 q 882 865 951 765 q 742 1054 813 964 l 925 1149 q 1338 692 1153 946 l 1114 496 m 153 499 l 51 543 q 222 863 135 714 q 399 1133 310 1011 l 604 999 q 353 735 468 863 q 153 499 239 608 m 172 -78 l 110 14 q 306 193 204 96 q 501 389 407 290 q 406 510 451 450 q 325 626 361 569 l 421 706 q 522 614 471 657 q 631 526 572 571 q 735 647 686 589 q 822 754 783 704 l 1006 593 q 925 503 974 551 q 818 400 876 454 q 1010 285 903 347 q 1256 147 1117 224 l 1024 -93 q 834 50 936 -39 q 633 243 732 139 q 395 65 517 150 q 172 -78 274 -21 z "},"牛":{"ha":1389,"x_min":43,"x_max":1346,"o":"m 163 501 l 69 526 l 176 1135 l 456 1051 l 356 865 l 569 864 l 579 1146 l 839 1138 l 849 863 l 1276 861 l 1282 758 l 851 746 l 864 401 l 1346 408 l 1340 269 l 867 276 l 879 -82 l 539 -90 l 551 282 l 47 289 l 43 389 l 554 396 l 565 736 l 283 728 l 163 501 z "},"犬":{"ha":1389,"x_min":49,"x_max":1340,"o":"m 968 831 l 901 1103 l 1150 1160 l 1250 892 l 968 831 m 200 -104 l 49 3 q 408 599 299 269 q 50 597 244 597 l 65 751 q 250 733 156 740 q 443 725 344 726 q 490 1132 490 919 l 792 1110 q 780 915 792 1010 q 747 729 768 819 q 1246 783 1000 742 l 1268 638 q 826 608 1085 618 q 1067 351 935 481 q 1340 104 1199 222 l 1085 -104 q 923 80 1003 -18 q 773 276 843 178 q 653 460 703 374 q 459 144 575 288 q 200 -104 343 1 z "},"玉":{"ha":1389,"x_min":76,"x_max":1313,"o":"m 93 -75 l 76 85 q 569 82 338 85 q 564 259 567 146 q 558 503 561 372 q 364 481 458 493 q 186 454 269 468 l 153 607 q 344 622 240 615 q 557 636 447 629 q 554 815 556 728 q 553 969 553 901 q 143 974 346 969 l 167 1103 q 585 1082 378 1082 q 906 1094 746 1082 q 1226 1131 1067 1107 l 1247 978 q 1062 974 1151 975 q 886 971 972 972 q 867 814 876 896 q 851 649 858 732 q 1037 653 946 651 q 1211 654 1128 654 l 1211 536 q 1031 533 1125 536 q 842 525 938 531 q 826 285 832 400 q 819 79 821 169 q 1101 73 975 76 q 1313 65 1226 69 l 1285 -61 q 992 -43 1125 -49 q 739 -37 858 -37 q 419 -47 579 -37 q 93 -75 258 -56 m 1021 136 l 1006 451 l 1235 460 l 1263 156 l 1021 136 z "},"王":{"ha":1389,"x_min":76,"x_max":1313,"o":"m 101 -67 l 76 100 q 310 99 189 100 q 554 97 432 99 q 543 257 549 161 q 532 460 538 353 q 344 462 436 460 q 174 467 253 464 l 199 606 q 525 593 363 594 q 517 794 521 697 q 513 960 514 890 q 338 959 429 960 q 143 958 246 958 l 172 1114 q 656 1085 413 1085 q 1218 1122 933 1085 l 1246 992 q 1067 979 1157 985 q 878 969 976 974 q 873 800 876 894 q 865 603 869 706 q 1196 633 1032 613 l 1215 479 q 1040 470 1131 474 q 858 464 950 467 q 847 270 853 365 q 833 93 840 175 q 1097 88 974 90 q 1313 81 1221 85 l 1294 -53 q 1012 -35 1146 -40 q 753 -29 878 -29 q 426 -38 586 -29 q 101 -67 265 -47 z "},"理":{"ha":1389,"x_min":46,"x_max":1343,"o":"m 518 -44 l 511 53 l 831 65 l 831 201 l 572 190 l 568 318 l 831 314 l 831 432 l 556 426 l 533 1100 l 1293 1096 l 1315 443 l 1024 436 l 1028 313 l 1303 308 l 1307 222 l 1031 210 l 1036 72 l 1331 83 l 1343 -40 l 518 -44 m 1107 1003 l 1006 1000 l 1011 814 l 1107 810 l 1107 1003 m 731 990 l 736 822 l 831 819 l 831 993 l 731 990 m 129 -15 l 47 196 l 192 232 l 182 501 l 64 494 l 50 618 l 178 617 l 168 897 l 46 908 l 46 990 l 507 983 l 499 868 l 392 878 l 382 615 l 499 614 l 494 521 l 379 514 l 371 278 l 496 308 l 526 251 l 129 -15 m 1107 522 l 1107 718 l 1015 714 l 1021 525 l 1107 522 m 746 532 l 831 529 l 831 703 l 740 699 l 746 532 z "},"生":{"ha":1389,"x_min":79,"x_max":1310,"o":"m 121 -58 l 125 50 q 613 74 381 65 q 604 335 607 211 l 279 322 l 274 474 l 600 472 q 593 740 596 613 q 354 756 465 747 l 193 426 l 79 449 l 160 1090 l 479 1010 l 408 864 q 592 860 496 861 q 590 1114 590 988 l 897 1111 q 896 858 897 982 q 1093 862 999 860 q 1278 868 1188 864 l 1272 726 q 896 731 1074 726 q 892 471 894 597 l 1250 469 l 1250 358 l 889 344 q 882 82 886 208 q 1304 86 1089 86 l 1310 -54 q 1063 -49 1192 -51 q 786 -47 935 -47 q 479 -49 639 -47 q 121 -58 319 -51 z "},"用":{"ha":1389,"x_min":88,"x_max":1301,"o":"m 272 -53 l 88 -33 q 110 334 101 140 q 124 726 119 528 q 129 1108 129 925 l 1260 1099 l 1301 -50 l 892 -36 l 896 33 l 1056 58 l 1046 308 l 797 304 l 797 15 l 592 11 l 582 300 l 325 296 q 299 103 313 193 q 272 -53 286 13 m 1018 997 l 797 992 l 797 768 l 1026 775 l 1018 997 m 372 979 q 370 875 372 932 q 365 756 368 818 l 568 761 l 560 985 l 372 979 m 339 428 l 578 424 l 571 644 l 358 650 q 339 428 350 540 m 797 419 l 1042 415 l 1033 632 l 797 638 l 797 419 z "},"田":{"ha":1389,"x_min":64,"x_max":1325,"o":"m 343 -14 l 64 3 q 67 310 64 150 q 76 658 69 471 q 93 1069 83 844 l 1296 1056 q 1312 677 1306 865 q 1322 319 1318 489 q 1325 11 1325 149 l 1040 -8 q 1040 49 1040 21 l 344 38 q 343 -14 344 3 m 1033 963 l 828 960 q 825 622 828 790 l 1039 626 q 1036 833 1038 747 q 1033 963 1035 919 m 350 954 q 350 611 350 785 l 565 615 q 563 790 564 704 q 563 957 563 875 l 350 954 m 346 169 l 576 163 q 572 330 574 247 q 568 493 569 413 l 349 497 q 348 321 349 404 q 346 169 347 238 m 813 154 l 1040 147 q 1039 482 1040 326 l 822 486 q 813 154 819 314 z "},"男":{"ha":1389,"x_min":86,"x_max":1303,"o":"m 278 -69 l 143 -10 q 278 147 201 49 q 432 358 356 246 l 86 369 l 90 465 l 500 463 q 556 550 529 507 l 164 550 l 164 1119 l 1226 1125 l 1226 550 l 872 550 q 813 460 846 507 l 1303 456 l 1265 -32 l 850 -21 l 847 46 l 1026 71 l 1040 338 l 726 349 q 583 188 660 267 q 428 44 507 110 q 278 -69 350 -22 m 981 1029 l 819 1026 l 815 889 l 985 896 l 981 1029 m 410 1019 l 404 872 l 575 879 l 571 1022 l 410 1019 m 397 656 l 583 651 l 579 783 l 401 786 l 397 656 m 993 643 l 989 778 l 811 781 l 807 647 l 993 643 z "},"町":{"ha":1389,"x_min":65,"x_max":1324,"o":"m 65 164 l 65 1107 l 790 1094 l 796 935 l 1324 949 l 1318 813 l 1221 817 l 1185 -44 l 758 -50 l 751 26 l 979 46 l 954 826 l 799 832 l 819 183 l 65 164 m 600 1013 l 532 1011 l 519 688 l 600 685 l 600 1013 m 269 1007 l 260 701 l 342 697 l 342 1008 l 269 1007 m 600 258 l 600 586 l 515 582 l 503 261 l 600 258 m 246 269 l 342 267 l 342 574 l 256 569 l 246 269 z "},"画":{"ha":1389,"x_min":43,"x_max":1346,"o":"m 331 144 l 331 892 l 589 889 l 586 989 l 100 983 l 92 1099 l 1297 1085 l 1289 997 l 804 992 l 800 888 l 1060 885 l 1060 153 l 331 144 m 864 804 l 797 803 l 790 569 l 872 567 l 864 804 m 526 794 l 519 575 l 600 572 l 592 796 l 526 794 m 75 -43 l 43 736 l 268 744 l 268 42 l 1114 58 l 1114 740 l 1346 740 l 1314 -43 l 75 -43 m 883 233 l 875 469 l 786 468 l 779 236 l 883 233 m 508 243 l 611 240 l 603 464 l 515 463 l 508 243 z "},"番":{"ha":1389,"x_min":32,"x_max":1357,"o":"m 239 -93 l 263 378 l 86 256 l 32 317 l 375 610 l 67 603 l 51 713 l 381 713 l 168 826 l 288 932 l 182 926 l 144 1010 l 1113 1149 l 1218 979 l 1083 972 l 1204 864 l 935 713 l 1335 713 l 1329 629 l 1056 624 l 1357 426 l 1239 250 l 1129 339 l 1151 -78 l 239 -93 m 783 957 l 790 732 l 1019 969 l 783 957 m 414 938 l 601 765 l 607 949 l 414 938 m 799 472 l 967 472 l 794 613 l 799 472 m 397 472 l 592 472 l 596 611 l 397 472 m 919 392 l 801 389 l 806 250 l 924 253 l 919 392 m 469 379 l 465 239 l 583 242 l 589 382 l 469 379 m 457 3 l 576 0 l 581 149 l 463 156 l 457 3 m 933 -8 l 929 129 l 810 136 l 815 -6 l 933 -8 z "},"白":{"ha":1389,"x_min":126,"x_max":1263,"o":"m 386 -78 l 126 -75 q 139 426 135 182 q 143 879 143 669 q 475 878 314 879 l 593 1135 l 885 1069 l 743 874 q 1006 868 881 872 q 1246 860 1132 864 q 1250 388 1246 625 q 1263 -65 1254 151 l 1003 -75 q 1001 -19 1001 -50 q 754 -31 869 -26 q 533 -35 639 -35 q 388 -33 461 -35 q 386 -78 388 -57 m 394 744 q 394 489 394 604 l 994 499 q 994 753 994 614 q 867 756 922 756 q 760 757 811 757 q 583 754 672 757 q 394 744 494 751 m 813 79 q 910 80 863 79 q 999 83 957 81 q 996 357 997 196 l 393 374 q 390 100 393 214 q 813 79 581 79 z "},"百":{"ha":1389,"x_min":103,"x_max":1286,"o":"m 103 965 l 114 1113 q 460 1095 288 1101 q 801 1089 633 1089 q 1275 1101 1038 1089 l 1286 1001 q 846 979 1065 988 l 767 833 q 954 835 864 835 q 1251 831 1114 835 q 1255 689 1254 767 q 1256 543 1256 611 q 1251 242 1256 393 q 1236 -57 1246 92 l 975 -43 q 978 -3 976 -22 l 413 13 q 417 -36 415 -12 l 156 -53 q 142 376 147 153 q 138 815 138 599 q 331 823 239 819 q 506 828 422 826 l 554 971 q 103 965 331 965 m 386 714 q 389 481 386 594 l 1000 485 q 1003 706 1003 594 q 706 712 864 710 q 386 714 547 714 m 393 342 q 404 128 397 235 l 986 136 q 997 372 993 257 l 393 342 z "},"目":{"ha":1389,"x_min":154,"x_max":1235,"o":"m 425 -46 l 154 -42 q 155 208 154 75 q 157 474 156 340 q 160 730 158 608 q 165 947 163 851 q 168 1094 167 1042 q 493 1099 319 1097 q 851 1101 667 1100 q 1222 1101 1036 1101 q 1225 982 1224 1058 q 1228 808 1226 906 q 1231 599 1229 710 q 1233 376 1232 489 q 1234 160 1233 264 q 1235 -31 1235 56 l 965 -42 q 965 21 965 -12 q 803 11 893 15 q 616 5 714 7 q 424 3 518 3 q 425 -46 424 -25 m 410 994 q 410 796 410 901 l 974 772 q 976 885 975 833 q 979 976 978 936 q 728 990 869 986 q 410 994 586 994 m 411 650 q 414 454 413 551 l 969 479 q 972 667 971 576 l 411 650 m 419 156 q 675 139 543 144 q 965 133 807 133 q 968 333 967 228 l 415 344 q 419 156 417 240 z "},"直":{"ha":1389,"x_min":74,"x_max":1315,"o":"m 89 894 l 93 1024 l 590 1018 l 596 1136 l 875 1121 l 853 1015 l 1299 1011 l 1301 933 l 832 918 l 813 826 l 1236 826 l 1213 92 l 425 94 l 397 826 l 582 826 l 586 910 l 89 894 m 638 736 l 638 603 l 996 631 l 996 726 l 638 736 m 99 -81 l 74 664 l 349 660 l 326 4 l 1308 26 l 1315 -72 l 99 -81 m 638 411 l 996 401 l 996 507 l 638 511 l 638 411 m 638 178 l 996 188 l 996 304 l 638 290 l 638 178 z "},"矢":{"ha":1389,"x_min":71,"x_max":1318,"o":"m 264 -115 l 140 -21 q 303 188 226 75 q 439 415 379 300 l 71 403 l 76 550 l 501 549 q 559 710 536 632 q 590 857 582 789 l 404 864 l 233 626 l 96 686 l 272 1174 l 564 1086 l 475 963 l 1261 963 l 1261 835 l 926 846 q 888 703 915 779 q 819 547 860 626 l 1314 544 l 1318 443 l 901 429 q 1098 237 989 333 q 1314 67 1207 140 l 1065 -118 q 863 88 958 -29 q 690 335 768 204 q 491 88 601 206 q 264 -115 381 -29 z "},"知":{"ha":1389,"x_min":61,"x_max":1328,"o":"m 197 -104 l 71 -39 q 185 199 133 79 q 279 436 238 319 l 69 438 l 75 538 l 317 553 q 385 842 365 711 l 308 840 l 164 611 l 61 661 l 233 1160 l 464 1089 l 385 964 l 746 933 l 740 846 l 638 844 q 568 568 621 719 l 756 581 l 756 432 l 581 433 l 783 54 l 551 -44 l 450 296 q 333 92 397 193 q 197 -104 269 -10 m 808 -15 l 775 994 l 1328 988 l 1294 -11 l 808 -15 m 1101 65 l 1101 907 l 1000 901 l 1000 72 l 1101 65 z "},"石":{"ha":1389,"x_min":68,"x_max":1321,"o":"m 172 65 l 68 113 q 152 346 111 228 q 229 574 193 464 q 293 778 265 683 q 339 944 321 874 q 226 946 281 944 q 126 949 171 947 l 132 1099 q 387 1091 251 1093 q 654 1089 522 1089 q 865 1090 763 1089 q 1076 1094 968 1092 q 1311 1101 1185 1097 l 1319 996 q 983 969 1144 979 q 676 951 822 958 q 616 815 651 889 q 540 661 581 740 l 1321 671 l 1297 -46 l 471 -33 l 454 503 q 312 267 385 382 q 172 65 239 153 m 714 71 l 1056 79 l 1040 543 l 714 553 l 714 71 z "},"社":{"ha":1389,"x_min":28,"x_max":1361,"o":"m 110 117 l 28 182 q 267 540 172 389 q 417 796 363 690 l 83 782 l 89 900 l 331 893 l 319 1154 l 539 1147 l 526 888 l 740 882 q 574 639 675 772 l 828 361 l 678 211 l 521 435 l 551 -99 l 307 -92 l 333 350 q 110 117 225 231 m 697 599 l 693 724 l 904 717 l 892 1113 l 1151 1115 l 1151 710 l 1331 704 l 1328 619 l 1151 614 l 1151 57 l 1361 63 l 1356 -60 l 661 -42 l 656 46 l 926 53 l 908 606 l 697 599 z "},"秋":{"ha":1389,"x_min":38,"x_max":1351,"o":"m 146 75 l 61 99 l 190 625 l 46 615 l 38 694 l 257 731 l 254 849 l 81 800 l 47 860 l 508 1142 l 593 946 l 422 897 l 432 760 l 589 786 l 606 653 l 486 644 l 728 382 l 568 233 l 457 408 l 492 -89 l 285 -97 l 267 446 l 146 75 m 692 -87 l 583 -26 q 719 219 664 103 q 807 448 774 335 q 856 683 840 561 q 871 946 871 804 q 867 1107 871 1022 l 1075 1114 q 1079 975 1079 1046 q 1069 765 1079 865 q 1039 572 1060 665 q 1102 438 1065 510 q 1181 294 1139 367 q 1267 158 1224 222 q 1351 46 1311 94 l 1135 -99 q 1035 85 1085 -19 q 944 297 985 189 q 836 103 899 199 q 692 -87 774 8 m 1253 515 l 1108 531 l 1138 1031 l 1324 1011 l 1253 515 m 657 538 l 622 1026 l 813 1026 l 796 538 l 657 538 z "},"科":{"ha":1389,"x_min":39,"x_max":1350,"o":"m 129 86 l 44 110 l 167 629 l 50 614 l 39 693 l 261 739 l 261 849 l 82 804 l 57 867 l 561 1144 l 633 943 l 446 896 l 449 776 l 678 824 l 692 700 l 553 682 l 743 363 l 557 250 l 458 507 l 478 -85 l 261 -89 l 261 504 l 129 86 m 676 31 l 594 192 l 997 367 l 997 526 l 860 369 l 663 600 l 775 703 l 997 583 l 997 833 l 886 713 l 675 915 l 767 1024 l 997 921 l 997 1115 l 1196 1121 l 1221 464 l 1308 501 l 1350 415 l 1226 344 l 1242 -58 l 997 -65 l 997 214 l 676 31 z "},"空":{"ha":1389,"x_min":69,"x_max":1319,"o":"m 114 431 l 103 511 q 260 552 197 526 q 363 620 324 578 q 421 728 401 663 q 447 888 440 793 l 317 889 l 328 668 l 69 653 l 81 960 l 572 965 l 564 1171 l 826 1171 l 819 968 l 1310 974 l 1319 679 l 1061 694 l 1072 883 l 961 885 q 966 771 963 831 q 974 657 969 711 q 986 565 979 603 l 1071 543 l 1144 635 l 1300 611 l 1267 461 q 1047 467 1149 461 q 874 485 946 474 q 771 510 803 496 q 747 664 756 561 q 738 886 739 767 l 682 886 q 642 687 675 769 q 543 551 608 604 q 372 470 478 499 q 114 431 267 442 m 117 -71 l 108 50 l 556 44 l 547 292 q 375 294 461 293 q 206 294 289 294 l 196 381 q 492 392 326 388 q 838 400 657 397 q 1193 403 1018 403 l 1185 276 q 842 288 1031 283 l 833 42 l 1281 36 l 1272 -60 l 117 -71 z "},"立":{"ha":1389,"x_min":71,"x_max":1318,"o":"m 82 -79 l 71 75 l 794 72 q 832 263 814 153 q 867 500 850 374 q 897 757 883 626 l 435 757 q 526 440 478 583 q 624 196 574 297 l 325 114 q 295 246 310 169 q 268 410 281 322 q 246 588 256 499 q 232 758 236 678 l 101 758 l 107 872 q 267 869 183 871 q 436 868 350 868 q 574 868 504 868 l 551 1129 l 836 1135 l 815 872 q 1044 880 926 875 q 1283 890 1161 885 l 1289 756 l 1185 756 q 1132 509 1163 632 q 1065 274 1101 386 q 990 71 1029 161 l 1318 69 l 1308 -39 l 82 -79 z "},"竹":{"ha":1389,"x_min":24,"x_max":1365,"o":"m 747 544 l 647 579 q 712 869 675 728 q 792 1139 749 1010 l 1036 1051 q 943 910 988 982 l 1365 906 l 1356 774 l 1229 785 q 1224 310 1229 521 q 1207 -65 1218 99 l 793 -43 l 793 42 l 956 49 q 972 410 965 211 q 978 807 978 608 l 886 815 q 815 683 850 750 q 747 544 781 615 m 289 -83 q 283 232 285 29 q 281 757 281 435 l 264 754 q 124 493 201 644 l 24 533 q 189 1125 74 793 l 438 1033 q 349 897 392 969 l 667 882 l 661 793 l 510 778 q 530 327 518 540 q 557 -61 542 114 l 289 -83 z "},"答":{"ha":1389,"x_min":21,"x_max":1368,"o":"m 110 264 l 21 375 l 449 707 l 335 688 l 307 910 l 129 714 l 47 749 l 204 1124 l 372 1006 l 640 1018 l 650 944 l 507 935 l 522 765 l 631 849 l 760 1147 l 903 1042 l 1239 1026 l 1232 943 l 1078 946 l 1046 706 l 922 711 l 1368 474 l 1189 271 l 968 419 l 969 379 l 281 376 l 283 421 l 110 264 m 739 810 l 865 742 l 865 947 l 739 810 m 575 685 l 332 465 l 851 499 l 575 685 m 206 -92 l 183 269 l 1121 290 l 1108 -82 l 206 -92 m 422 -26 l 881 -10 l 872 213 l 429 189 l 422 -26 z "},"算":{"ha":1389,"x_min":39,"x_max":1350,"o":"m 83 74 l 78 178 q 193 178 138 178 q 300 178 249 178 q 339 253 324 219 l 215 251 q 219 452 215 346 q 228 662 222 558 q 243 853 235 765 l 117 736 l 39 782 l 238 1156 l 378 1060 l 674 1057 l 674 986 l 590 981 l 597 860 l 631 860 l 813 1185 l 932 1072 l 1319 1061 l 1315 968 l 1154 983 l 1115 857 l 1211 857 q 1232 566 1225 717 q 1239 261 1239 415 l 1146 260 l 1156 172 q 1253 169 1206 171 q 1350 167 1300 168 l 1340 78 q 1165 89 1256 85 l 1183 -72 l 915 -78 l 915 99 q 736 100 828 100 q 515 97 622 100 q 399 -17 463 39 q 276 -114 336 -74 l 140 -36 q 191 22 165 -10 q 240 86 217 53 q 83 74 160 81 m 788 858 l 932 858 l 947 989 l 788 858 m 253 861 l 413 860 l 389 967 l 365 965 l 253 861 m 444 774 l 447 674 l 1007 696 l 1010 778 l 444 774 m 453 522 l 1000 510 l 1004 604 l 450 604 l 453 522 m 994 340 l 997 435 l 456 429 l 458 343 l 994 340 m 582 178 q 765 177 683 178 q 915 176 847 176 l 915 258 l 632 256 q 582 178 615 221 z "},"米":{"ha":1389,"x_min":54,"x_max":1335,"o":"m 161 -26 l 63 42 q 144 203 99 118 q 235 369 189 289 q 322 513 282 450 l 58 515 l 54 624 l 560 629 l 543 1126 l 850 1139 l 833 631 l 1335 636 l 1328 501 l 1060 504 q 1194 342 1126 433 q 1326 146 1263 250 l 1097 -42 q 971 209 1042 81 q 828 447 900 338 l 810 -83 l 582 -78 l 565 443 q 372 226 475 346 q 161 -26 269 107 m 942 671 l 863 781 l 1119 1079 l 1272 885 l 942 671 m 378 663 l 117 917 l 272 1076 l 525 815 l 378 663 z "},"糸":{"ha":1389,"x_min":71,"x_max":1318,"o":"m 101 317 l 71 504 l 313 514 l 358 549 l 185 743 l 731 1149 l 839 1040 l 444 804 l 561 699 l 963 996 l 1076 874 l 519 522 l 1006 540 l 924 686 l 1108 765 l 1318 410 l 1136 308 l 1049 464 l 797 425 l 815 -87 l 539 -93 l 554 388 l 101 317 m 1026 -90 l 851 274 l 1035 351 l 1256 50 l 1026 -90 m 207 -89 l 100 -15 l 275 331 l 513 188 l 207 -89 z "},"紙":{"ha":1389,"x_min":51,"x_max":1338,"o":"m 700 -56 l 669 864 q 840 958 754 908 q 1005 1056 926 1007 q 1142 1143 1083 1104 l 1224 1011 q 1172 987 1201 1000 q 1108 960 1143 974 q 1126 794 1117 874 q 1144 640 1135 714 l 1267 667 l 1292 540 l 1160 524 q 1197 292 1179 389 q 1231 144 1215 196 l 1300 185 l 1338 117 l 1088 -87 q 1024 174 1054 25 q 972 499 994 324 l 863 485 l 889 92 l 1001 101 l 1014 19 l 700 -56 m 125 333 l 51 533 l 143 544 l 204 610 l 53 761 l 463 1142 l 533 1051 l 256 835 l 346 760 l 560 986 l 635 900 l 275 561 l 483 588 l 478 726 l 607 743 l 650 365 l 493 354 l 486 507 l 422 475 l 443 -79 l 276 -76 l 276 406 l 125 333 m 838 868 l 857 579 l 960 600 q 931 896 943 744 q 838 868 878 879 m 486 -33 l 474 299 l 607 306 l 631 -33 l 486 -33 m 79 -39 l 90 293 l 222 296 l 233 -35 l 79 -39 z "},"細":{"ha":1389,"x_min":54,"x_max":1335,"o":"m 292 -94 l 275 404 l 118 342 l 54 508 l 135 522 l 199 592 l 75 754 l 442 1150 l 524 1071 l 274 839 l 354 761 l 531 954 l 619 860 l 272 546 l 492 585 l 492 713 l 619 719 l 647 365 l 492 353 l 492 490 l 426 464 l 456 -86 l 292 -94 m 694 -46 l 660 1007 l 1335 996 l 1335 -26 l 694 -46 m 854 918 l 854 547 l 928 546 l 928 918 l 854 918 m 1138 918 l 1064 918 l 1076 542 l 1150 540 l 1138 918 m 1167 47 l 1153 460 l 1079 456 l 1093 46 l 1167 47 m 854 39 l 928 40 l 928 447 l 854 443 l 854 39 m 492 -40 l 481 300 l 626 306 l 649 -36 l 492 -40 m 83 -53 l 96 297 l 231 297 l 244 -47 l 83 -53 z "},"組":{"ha":1389,"x_min":54,"x_max":1335,"o":"m 296 -83 l 279 407 l 113 349 l 54 521 l 147 532 l 207 593 l 81 743 l 468 1139 l 549 1063 l 279 821 l 350 736 l 567 954 l 640 858 l 276 547 l 507 576 l 503 706 l 649 713 l 676 369 l 515 357 l 511 488 l 425 457 l 456 -76 l 296 -83 m 675 -49 l 669 35 l 728 38 l 694 1060 l 1250 1060 l 1283 58 l 1335 60 l 1328 -49 l 675 -49 m 889 971 l 900 721 l 1074 738 l 1074 982 l 889 971 m 914 410 l 1074 397 l 1074 611 l 904 615 l 914 410 m 83 -29 l 94 306 l 244 306 l 244 -44 l 83 -29 m 490 -33 l 490 297 l 629 303 l 647 -29 l 490 -33 m 918 288 l 929 44 l 1074 50 l 1074 296 l 918 288 z "}}}
